<svg xmlns="http://www.w3.org/2000/svg" viewBox="0 0 1920.16 1082"><defs><style>.cls-1{fill:#7bbdff;}.cls-2{fill:#ff6482;}.cls-3{fill:#bc4864;}.cls-4{fill:#913c54;}.cls-5{fill:#c94b6f;}.cls-6{fill:#ffcad9;}.cls-7{fill:#5d94c1;}.cls-8{fill:#fff;}.cls-9{font-size:17.19px;font-family:Amatic-Bold, Amatic;font-weight:700;letter-spacing:0.2em;}.cls-10{fill:#7f765d;}.cls-11{fill:#4c4636;}.cls-12{fill:#b5a886;}.cls-13{fill:#bcae91;}.cls-14{fill:#c1b393;}.cls-15{fill:#897e64;}.cls-16{fill:#254208;}.cls-17{fill:#74931d;}.cls-18{fill:#4f3920;}.cls-19{fill:#e6b24c;}.cls-20{fill:#2c103a;}.cls-21{fill:#4f206b;}.cls-22{fill:#567499;}.cls-23{fill:#6586a8;}.cls-24{fill:#a0bcec;}.cls-25{fill:#b3d6ff;}.cls-26{fill:#af863e;opacity:0.38;}.cls-27{fill:#9e7d2b;}.cls-28{fill:#66605f;}.cls-29{fill:#ada6a5;}.cls-30{fill:#443d3d;}.cls-31{fill:#fecb39;}.cls-32{opacity:0.68;}.cls-33{fill:#b7903b;}.cls-34{fill:#775e25;opacity:0.33;}.cls-35,.cls-37{fill:#bf305c;}.cls-36{fill:#ff396d;}.cls-37{opacity:0.77;}.cls-38{fill:#684e29;opacity:0.66;}.cls-39,.cls-40{fill:#8f4bbf;}.cls-40{opacity:0.23;}</style></defs><title>page1Asset 1</title><g id="Layer_2" data-name="Layer 2"><g id="page_1" data-name="page 1"><rect class="cls-1" x="0.16" width="1920" height="1080"/><polygon class="cls-2" points="1062.62 255 1105.16 255 1105.16 237 1050.16 237 1050.16 255 1062.62 255"/><polygon class="cls-2" points="1158.8 255 1204.16 255 1204.16 237 1148.16 237 1148.16 255 1158.8 255"/><polygon class="cls-2" points="962.39 255 1007.16 255 1007.16 237 952.16 237 952.16 255 962.39 255"/><rect class="cls-3" x="952.16" y="243" width="55" height="12"/><rect class="cls-4" x="952.16" y="243" width="11" height="12"/><rect class="cls-3" x="1050.16" y="243" width="55" height="12"/><rect class="cls-3" x="1148.16" y="243" width="55" height="12"/><rect class="cls-4" x="1050.16" y="243" width="11" height="12"/><rect class="cls-4" x="1148.16" y="243" width="11" height="12"/><polygon class="cls-2" points="1295.16 255 1316.16 255 1316.16 237 1289.16 237 1289.16 255 1295.16 255"/><polygon class="cls-2" points="1343.16 255 1365.16 255 1365.16 237 1338.16 237 1338.16 255 1343.16 255"/><polygon class="cls-2" points="1203.16 231 1203.16 255 1148.16 255 1148.16 231 1105.16 231 1105.16 255 1050.16 255 1050.16 231 1007.16 231 1007.16 255 952.16 255 952.16 231 927.16 231 927.16 897 1231.16 897 1231.16 231 1203.16 231"/><polygon class="cls-2" points="1246.16 255 1268.16 255 1268.16 237 1241.16 237 1241.16 255 1246.16 255"/><polygon class="cls-5" points="1365.16 231 1365.16 255 1343.16 255 1338.16 255 1338.16 231 1316.16 231 1316.16 255 1295.16 255 1289.16 255 1289.16 231 1268.16 231 1268.16 255 1246.16 255 1241.16 255 1241.16 231 1231.16 231 1231.16 897 1371.16 897 1371.16 231 1365.16 231"/><path class="cls-3" d="M986.66,306.24a23.47,23.47,0,0,0-23.5,23.25V376h47V329.49A23.47,23.47,0,0,0,986.66,306.24Z"/><path class="cls-4" d="M990.92,306.68a23.5,23.5,0,0,0-4.49-.43,23.26,23.26,0,0,0-23.27,23.25V376h9V329.49A23.23,23.23,0,0,1,990.92,306.68Z"/><path class="cls-3" d="M1078.66,306.24a23.47,23.47,0,0,0-23.5,23.25V376h47V329.49A23.47,23.47,0,0,0,1078.66,306.24Z"/><path class="cls-4" d="M1082.92,306.68a23.5,23.5,0,0,0-4.49-.43,23.26,23.26,0,0,0-23.27,23.25V376h9V329.49A23.23,23.23,0,0,1,1082.92,306.68Z"/><path class="cls-3" d="M1170.66,306.24a23.47,23.47,0,0,0-23.5,23.25V376h47V329.49A23.47,23.47,0,0,0,1170.66,306.24Z"/><path class="cls-4" d="M1174.92,306.68a23.5,23.5,0,0,0-4.49-.43,23.26,23.26,0,0,0-23.27,23.25V376h9V329.49A23.23,23.23,0,0,1,1174.92,306.68Z"/><rect class="cls-6" x="954.16" y="368" width="66" height="15"/><rect class="cls-6" x="1045.16" y="368" width="66" height="15"/><rect class="cls-6" x="1136.16" y="368" width="66" height="15"/><rect class="cls-3" x="1246.16" y="243" width="22" height="12"/><rect class="cls-4" x="1241.16" y="243" width="5" height="12"/><rect class="cls-3" x="1295.16" y="243" width="21" height="12"/><rect class="cls-3" x="1343.16" y="243" width="22" height="12"/><rect class="cls-4" x="1289.16" y="243" width="6" height="12"/><rect class="cls-4" x="1338.16" y="243" width="5" height="12"/><path class="cls-3" d="M986.66,422.24a23.47,23.47,0,0,0-23.5,23.25V492h47V445.49A23.47,23.47,0,0,0,986.66,422.24Z"/><path class="cls-4" d="M990.92,422.68a23.5,23.5,0,0,0-4.49-.43,23.26,23.26,0,0,0-23.27,23.25V492h9V445.49A23.23,23.23,0,0,1,990.92,422.68Z"/><path class="cls-3" d="M1078.66,422.24a23.47,23.47,0,0,0-23.5,23.25V492h47V445.49A23.47,23.47,0,0,0,1078.66,422.24Z"/><path class="cls-4" d="M1082.92,422.68a23.5,23.5,0,0,0-4.49-.43,23.26,23.26,0,0,0-23.27,23.25V492h9V445.49A23.23,23.23,0,0,1,1082.92,422.68Z"/><path class="cls-3" d="M1170.66,422.24a23.47,23.47,0,0,0-23.5,23.25V492h47V445.49A23.47,23.47,0,0,0,1170.66,422.24Z"/><path class="cls-4" d="M1174.92,422.68a23.5,23.5,0,0,0-4.49-.43,23.26,23.26,0,0,0-23.27,23.25V492h9V445.49A23.23,23.23,0,0,1,1174.92,422.68Z"/><rect class="cls-6" x="954.16" y="484" width="66" height="15"/><rect class="cls-6" x="1045.16" y="484" width="66" height="15"/><rect class="cls-6" x="1136.16" y="484" width="66" height="15"/><path class="cls-3" d="M986.66,538.24a23.47,23.47,0,0,0-23.5,23.25V608h47V561.49A23.47,23.47,0,0,0,986.66,538.24Z"/><path class="cls-4" d="M990.92,538.68a23.5,23.5,0,0,0-4.49-.43,23.26,23.26,0,0,0-23.27,23.25V608h9V561.49A23.23,23.23,0,0,1,990.92,538.68Z"/><path class="cls-3" d="M1078.66,538.24a23.47,23.47,0,0,0-23.5,23.25V608h47V561.49A23.47,23.47,0,0,0,1078.66,538.24Z"/><path class="cls-4" d="M1082.92,538.68a23.5,23.5,0,0,0-4.49-.43,23.26,23.26,0,0,0-23.27,23.25V608h9V561.49A23.23,23.23,0,0,1,1082.92,538.68Z"/><path class="cls-3" d="M1170.66,538.24a23.47,23.47,0,0,0-23.5,23.25V608h47V561.49A23.47,23.47,0,0,0,1170.66,538.24Z"/><path class="cls-4" d="M1174.92,538.68a23.5,23.5,0,0,0-4.49-.43,23.26,23.26,0,0,0-23.27,23.25V608h9V561.49A23.23,23.23,0,0,1,1174.92,538.68Z"/><path class="cls-3" d="M1346.16,307.24c5.84,0,10,10.41,10,23.25V377h-20V330.49C1336.16,317.65,1340.32,307.24,1346.16,307.24Z"/><path class="cls-4" d="M1344.72,307.68a2.78,2.78,0,0,1,1.45-.43c5.84,0,10,10.41,10,23.25V377h-3V330.49C1353.16,319.18,1349.58,309.76,1344.72,307.68Z"/><path class="cls-3" d="M1305.66,307.24c5.84,0,10.5,10.41,10.5,23.25V377h-21V330.49C1295.16,317.65,1299.82,307.24,1305.66,307.24Z"/><path class="cls-4" d="M1303.3,307.68a5.75,5.75,0,0,1,2.16-.43c5.84,0,10.7,10.41,10.7,23.25V377h-4V330.49C1312.16,319.18,1308.17,309.76,1303.3,307.68Z"/><rect class="cls-6" x="1331.96" y="369" width="30.01" height="15" transform="translate(2693.92 753) rotate(180)"/><rect class="cls-6" x="1290.58" y="369" width="30.01" height="15" transform="translate(2611.17 753) rotate(180)"/><path class="cls-3" d="M1346.16,423.24c5.84,0,10,10.41,10,23.25V493h-20V446.49C1336.16,433.65,1340.32,423.24,1346.16,423.24Z"/><path class="cls-4" d="M1344.72,423.68a2.78,2.78,0,0,1,1.45-.43c5.84,0,10,10.41,10,23.25V493h-3V446.49C1353.16,435.18,1349.58,425.76,1344.72,423.68Z"/><path class="cls-3" d="M1305.66,423.24c5.84,0,10.5,10.41,10.5,23.25V493h-21V446.49C1295.16,433.65,1299.82,423.24,1305.66,423.24Z"/><path class="cls-4" d="M1303.3,423.68a5.75,5.75,0,0,1,2.16-.43c5.84,0,10.7,10.41,10.7,23.25V493h-4V446.49C1312.16,435.18,1308.17,425.76,1303.3,423.68Z"/><rect class="cls-6" x="1331.96" y="485" width="30.01" height="15" transform="translate(2693.92 985) rotate(180)"/><rect class="cls-6" x="1290.58" y="485" width="30.01" height="15" transform="translate(2611.17 985) rotate(180)"/><path class="cls-3" d="M1346.16,539.24c5.84,0,10,10.41,10,23.25V609h-20V562.49C1336.16,549.65,1340.32,539.24,1346.16,539.24Z"/><path class="cls-4" d="M1344.72,539.68a2.78,2.78,0,0,1,1.45-.43c5.84,0,10,10.41,10,23.25V609h-3V562.49C1353.16,551.18,1349.58,541.76,1344.72,539.68Z"/><path class="cls-3" d="M1305.66,539.24c5.84,0,10.5,10.41,10.5,23.25V609h-21V562.49C1295.16,549.65,1299.82,539.24,1305.66,539.24Z"/><path class="cls-4" d="M1303.3,539.68a5.75,5.75,0,0,1,2.16-.43c5.84,0,10.7,10.41,10.7,23.25V609h-4V562.49C1312.16,551.18,1308.17,541.76,1303.3,539.68Z"/><rect class="cls-6" x="1331.96" y="601" width="30.01" height="15" transform="translate(2693.92 1217) rotate(180)"/><rect class="cls-6" x="1290.58" y="601" width="30.01" height="15" transform="translate(2611.17 1217) rotate(180)"/><path class="cls-3" d="M1263.16,307.24c5.84,0,10,10.41,10,23.25V377h-20V330.49C1253.16,317.65,1257.32,307.24,1263.16,307.24Z"/><path class="cls-4" d="M1261.72,307.68a2.78,2.78,0,0,1,1.45-.43c5.84,0,10,10.41,10,23.25V377h-3V330.49C1270.16,319.18,1266.58,309.76,1261.72,307.68Z"/><rect class="cls-6" x="1248.96" y="369" width="30.01" height="15" transform="translate(2527.92 753) rotate(180)"/><path class="cls-3" d="M1263.16,423.24c5.84,0,10,10.41,10,23.25V493h-20V446.49C1253.16,433.65,1257.32,423.24,1263.16,423.24Z"/><path class="cls-4" d="M1261.72,423.68a2.78,2.78,0,0,1,1.45-.43c5.84,0,10,10.41,10,23.25V493h-3V446.49C1270.16,435.18,1266.58,425.76,1261.72,423.68Z"/><rect class="cls-6" x="1248.96" y="485" width="30.01" height="15" transform="translate(2527.92 985) rotate(180)"/><path class="cls-3" d="M1263.16,539.24c5.84,0,10,10.41,10,23.25V609h-20V562.49C1253.16,549.65,1257.32,539.24,1263.16,539.24Z"/><path class="cls-4" d="M1261.72,539.68a2.78,2.78,0,0,1,1.45-.43c5.84,0,10,10.41,10,23.25V609h-3V562.49C1270.16,551.18,1266.58,541.76,1261.72,539.68Z"/><rect class="cls-6" x="1248.96" y="601" width="30.01" height="15" transform="translate(2527.92 1217) rotate(180)"/><rect class="cls-6" x="954.16" y="600" width="66" height="15"/><rect class="cls-6" x="1045.16" y="600" width="66" height="15"/><rect class="cls-6" x="1136.16" y="600" width="66" height="15"/><path class="cls-7" d="M1061.19,132s-7.68,6.45-4.3,12.59,12,16,12,16,10.75,14.43-4.61,17.5-26.16,1-26.1-10.74,8.9-11.65,8.9-11.65,1.54,3,0,5.2-2.15,7.68,5.83,8.9,12.89-2.76,6.75-10.44-17.81-13.2-13.82-25.17S1072.24,127.74,1061.19,132Z"/><path class="cls-7" d="M1078.16,126.82v-16s-.2-7.68,6.25-4,4.51,10.44,4.51,12,.19,6.75.19,6.75,10.78-1.23,11.09,1.23-6.15,5.53-11.22,6.45c0,0,2.3,21.18,1.38,28.86s-2.46,12.59-6.14,12-6.76-.31-6.45-39.3c0,0-9.32.61-9.32-3.68S1078.16,126.82,1078.16,126.82Z"/><path class="cls-7" d="M1139.48,132.34s-5.22,24.87,0,35.92,12.76,3.07,13,0-.39-21.49,3.29-24.56,10.75-10.13,11.67-1.84,1.84,23.95,6.14,27.63,8.9,6.14,13.51-2.46,5.53-13.71,8-14.53,2.15,13.92,9.82,19.44,11.36,5.5,16.27,2-5.53-.45-7.06-3.21-3.38-20.88-7.37-25.48-9.21-16.89-24.56,11.05c0,0,.61-17.5-4.61-20.57s-16.58-9.82-29.47,9.82C1148.07,145.55,1150.53,133,1139.48,132.34Z"/><path class="cls-7" d="M1295.13,136.33s8.6-.92,8.9,8.29-1.54,27.94,5.53,29.47,8-9.82,8-15.66,1.84-14.74,9.21-16.27,7.37-7.11,1.23-5.86-12.28,4.63-12.89,8C1315.09,144.32,1308,122.52,1295.13,136.33Z"/><path class="cls-7" d="M1319.69,117s0-3.79,1.94-3.79,2.35,4-1.94,11.67c0,0-.61,1.84,4.61,2.46s4.61-2.46,0-2.46-3-.2-3-.2,4.2-5.12,4.3-8.49-1.78-6.55-6-3-2,4.81-1.31,4.91A1.07,1.07,0,0,0,1319.69,117Z"/><path class="cls-7" d="M1335.66,114.95s-2,.31-2.56,5,.51,5.53,1.28,5.53,3.22,0,3.43-6c0,0-.1-5-3.68-5.8,0,0,3.07.31,3.68,0a6.07,6.07,0,0,0,1.94,2.15c1.13.61.92,6.86-.72,8.6s-4,3.79-6.59,1.54-2.82-6-2-8.7S1333.82,112.36,1335.66,114.95Z"/><path class="cls-7" d="M1342.92,122s2.56-4.5,4.09-5.22c0,0-.82,10,1.74,10.2s1.43-5.53,1.43-6.64-.84-4.9.25-6.64c0,0-.86-1.74-1.88-1.43s-3.07,4-3.07,4S1341.49,121.6,1342.92,122Z"/><path class="cls-7" d="M1356.94,111.63a8.36,8.36,0,0,0-.92,8.73s3.79-4.28,7-1.52,2.25,6.34-.72,7.68-5.83-.92-5.83-.92l1.23-2.66s2.15,2.76,3.89,1.74,1.54-3.79-1-3.79-4.3,4.45-4.3,6.12-1.19,1-1.06-2.64c0,0-3.34-4.91-1.81-9.52S1357.93,110,1356.94,111.63Z"/><path class="cls-7" d="M1289,164c-1.23,2.76-15.66,6.14-14.74-7.37a23.94,23.94,0,0,0,16-8.9c6.45-8.29,3.38-18.11-8-18.11s-23.64,12.28-20.26,28.86,15.5,16.89,15.5,16.89,13.05,2.15,18.27-12.89S1290.22,161.2,1289,164Zm-8.83-25.64c5-3.68,6.06,0,6.06,0-1.54,10.44-12.13,11.05-12.13,11.05S1275.18,142,1280.17,138.33Z"/><path class="cls-7" d="M1127.78,164c-1.23,2.76-15.66,6.14-14.74-7.37a23.94,23.94,0,0,0,16-8.9c6.45-8.29,3.38-18.11-8-18.11s-23.64,12.28-20.26,28.86,15.5,16.89,15.5,16.89,13.05,2.15,18.27-12.89S1129,161.2,1127.78,164ZM1119,138.33c5-3.68,6.06,0,6.06,0-1.54,10.44-12.13,11.05-12.13,11.05S1114,142,1119,138.33Z"/><path class="cls-7" d="M1031.68,164c-1.23,2.76-15.66,6.14-14.74-7.37a23.94,23.94,0,0,0,16-8.9c6.45-8.29,3.38-18.11-8-18.11s-23.64,12.28-20.26,28.86,15.5,16.89,15.5,16.89,13.05,2.15,18.27-12.89S1032.91,161.2,1031.68,164Zm-8.83-25.64c5-3.68,6.06,0,6.06,0-1.54,10.44-12.13,11.05-12.13,11.05S1017.87,142,1022.86,138.33Z"/><path class="cls-7" d="M1254.61,150.76a8.53,8.53,0,0,0,.79.84C1255,150.77,1254.61,150.76,1254.61,150.76Z"/><path class="cls-7" d="M1263.82,148.62l-12.59-8s-4.94-4.35-9.57,0-2.1,5.24,1.59,6.47,4.3,14.74.31,20.26-13.82.78-14.12-13.12c0,0,9.52-7.76,14.43-24.64s1.54-27-9.82-24.87-20.88,33.46-14.12,57.1,31.93,15.35,34.69,2.15c1.66-7.94,1.32-11.1.79-12.36a8.53,8.53,0,0,1-.79-.84s.44,0,.79.84a7.82,7.82,0,0,0,6,2.36c3.95-.44,4.25-1.46,4.25-1.46Zm-27.43-38c1.23-.2,4.3-.82,2.46,13.1a42.69,42.69,0,0,1-10.64,22.72C1226.27,117.6,1235.16,110.85,1236.39,110.65Z"/><path class="cls-7" d="M1005.62,142.17c-4.61-2.76-15,0-15,0s-.31-10.44,0-22.1,9.52-8.6,9.52-8.6c4,2.76,2.15-8.6-11.67-6.45s-10.75,40.22-10.75,40.22c-56.49,47.89-26.71,101.31-4.3,79.82s17.06-74.3,17.06-74.3c2-2.15,15.18-5.22,15.18-5.22S1010.23,144.93,1005.62,142.17Zm-29.18,50.15c-3.06,12.89-12.27,23.13-17.18,18.83s-6.34-35.82,18.83-54.44C978.09,156.7,979.5,179.42,976.44,192.31Z"/><path class="cls-8" d="M1057.19,131s-7.68,6.45-4.3,12.59,12,16,12,16,10.75,14.43-4.61,17.5-26.16,1-26.1-10.74,8.9-11.65,8.9-11.65,1.54,3,0,5.2-2.15,7.68,5.83,8.9,12.89-2.76,6.75-10.44-17.81-13.2-13.82-25.17S1068.24,126.74,1057.19,131Z"/><path class="cls-8" d="M1074.16,125.82v-16s-.2-7.68,6.25-4,4.51,10.44,4.51,12,.19,6.75.19,6.75,10.78-1.23,11.09,1.23-6.15,5.53-11.22,6.45c0,0,2.3,21.18,1.38,28.86s-2.46,12.59-6.14,12-6.76-.31-6.45-39.3c0,0-9.32.61-9.32-3.68S1074.16,125.82,1074.16,125.82Z"/><path class="cls-8" d="M1135.48,131.34s-5.22,24.87,0,35.92,12.76,3.07,13,0-.39-21.49,3.29-24.56,10.75-10.13,11.67-1.84,1.84,23.95,6.14,27.63,8.9,6.14,13.51-2.46,5.53-13.71,8-14.53,2.15,13.92,9.82,19.44,11.36,5.5,16.27,2-5.53-.45-7.06-3.21-3.38-20.88-7.37-25.48-9.21-16.89-24.56,11.05c0,0,.61-17.5-4.61-20.57s-16.58-9.82-29.47,9.82C1144.07,144.55,1146.53,132,1135.48,131.34Z"/><path class="cls-8" d="M1291.13,135.33s8.6-.92,8.9,8.29-1.54,27.94,5.53,29.47,8-9.82,8-15.66,1.84-14.74,9.21-16.27,7.37-7.11,1.23-5.86-12.28,4.63-12.89,8C1311.09,143.32,1304,121.52,1291.13,135.33Z"/><path class="cls-8" d="M1315.69,116s0-3.79,1.94-3.79,2.35,4-1.94,11.67c0,0-.61,1.84,4.61,2.46s4.61-2.46,0-2.46-3-.2-3-.2,4.2-5.12,4.3-8.49-1.78-6.55-6-3-2,4.81-1.31,4.91A1.07,1.07,0,0,0,1315.69,116Z"/><path class="cls-8" d="M1331.66,113.95s-2,.31-2.56,5,.51,5.53,1.28,5.53,3.22,0,3.43-6c0,0-.1-5-3.68-5.8,0,0,3.07.31,3.68,0a6.07,6.07,0,0,0,1.94,2.15c1.13.61.92,6.86-.72,8.6s-4,3.79-6.59,1.54-2.82-6-2-8.7S1329.82,111.36,1331.66,113.95Z"/><path class="cls-8" d="M1338.92,121s2.56-4.5,4.09-5.22c0,0-.82,10,1.74,10.2s1.43-5.53,1.43-6.64-.84-4.9.25-6.64c0,0-.86-1.74-1.88-1.43s-3.07,4-3.07,4S1337.49,120.6,1338.92,121Z"/><path class="cls-8" d="M1352.94,110.63a8.36,8.36,0,0,0-.92,8.73s3.79-4.28,7-1.52,2.25,6.34-.72,7.68-5.83-.92-5.83-.92l1.23-2.66s2.15,2.76,3.89,1.74,1.54-3.79-1-3.79-4.3,4.45-4.3,6.12-1.19,1-1.06-2.64c0,0-3.34-4.91-1.81-9.52S1353.93,109,1352.94,110.63Z"/><path class="cls-8" d="M1285,163c-1.23,2.76-15.66,6.14-14.74-7.37a23.94,23.94,0,0,0,16-8.9c6.45-8.29,3.38-18.11-8-18.11s-23.64,12.28-20.26,28.86,15.5,16.89,15.5,16.89,13.05,2.15,18.27-12.89S1286.22,160.2,1285,163Zm-8.83-25.64c5-3.68,6.06,0,6.06,0-1.54,10.44-12.13,11.05-12.13,11.05S1271.18,141,1276.17,137.33Z"/><path class="cls-8" d="M1123.78,163c-1.23,2.76-15.66,6.14-14.74-7.37a23.94,23.94,0,0,0,16-8.9c6.45-8.29,3.38-18.11-8-18.11s-23.64,12.28-20.26,28.86,15.5,16.89,15.5,16.89,13.05,2.15,18.27-12.89S1125,160.2,1123.78,163ZM1115,137.33c5-3.68,6.06,0,6.06,0-1.54,10.44-12.13,11.05-12.13,11.05S1110,141,1115,137.33Z"/><path class="cls-8" d="M1027.68,163c-1.23,2.76-15.66,6.14-14.74-7.37a23.94,23.94,0,0,0,16-8.9c6.45-8.29,3.38-18.11-8-18.11s-23.64,12.28-20.26,28.86,15.5,16.89,15.5,16.89,13.05,2.15,18.27-12.89S1028.91,160.2,1027.68,163Zm-8.83-25.64c5-3.68,6.06,0,6.06,0-1.54,10.44-12.13,11.05-12.13,11.05S1013.87,141,1018.86,137.33Z"/><path class="cls-8" d="M1250.61,149.76a8.53,8.53,0,0,0,.79.84C1251,149.77,1250.61,149.76,1250.61,149.76Z"/><path class="cls-8" d="M1259.82,147.62l-12.59-8s-4.94-4.35-9.57,0-2.1,5.24,1.59,6.47,4.3,14.74.31,20.26-13.82.78-14.12-13.12c0,0,9.52-7.76,14.43-24.64s1.54-27-9.82-24.87-20.88,33.46-14.12,57.1,31.93,15.35,34.69,2.15c1.66-7.94,1.32-11.1.79-12.36a8.53,8.53,0,0,1-.79-.84s.44,0,.79.84a7.82,7.82,0,0,0,6,2.36c3.95-.44,4.25-1.46,4.25-1.46Zm-27.43-38c1.23-.2,4.3-.82,2.46,13.1a42.69,42.69,0,0,1-10.64,22.72C1222.27,116.6,1231.16,109.85,1232.39,109.65Z"/><path class="cls-8" d="M1001.62,141.17c-4.61-2.76-15,0-15,0s-.31-10.44,0-22.1,9.52-8.6,9.52-8.6c4,2.76,2.15-8.6-11.67-6.45s-10.75,40.22-10.75,40.22c-56.49,47.89-26.71,101.31-4.3,79.82s17.06-74.3,17.06-74.3c2-2.15,15.18-5.22,15.18-5.22S1006.23,143.93,1001.62,141.17Zm-29.18,50.15c-3.06,12.89-12.27,23.13-17.18,18.83s-6.34-35.82,18.83-54.44C974.09,155.7,975.5,178.42,972.44,191.31Z"/><text class="cls-9" transform="translate(939.22 89.11)">nit trichy’s </text><path class="cls-10" d="M363.16,583V315h-18V221h216v94h-12v27s40.84-17.76,69.42,8.12c0,0,74.58-34.12,128.58,15.88s94.36,140,304.18,126c0,0,136.85-26,182.33,12s67.09,54,127.29,69,202.2,49,270.2,41-80,292-80,292h-1172Z"/><path class="cls-11" d="M627.16,368s60-28.52,127,55.24S928,532.54,1004.1,524.77,1128.73,489,1222.45,535s174.05,100.4,377.72,107.27S1523,776.69,1523,776.69L1132,725,599.16,573.12Z"/><path class="cls-12" d="M1590.16,699s-169-51.47-224-56.73-108-13.27-142-33.27-106-64.49-179-56-221-11-284-69-139-178-212-142V315h12V221h-27v25h-35V221h-27v25h-35V221h-24v25h-35V221h-33v94h18V525l-3,155h189V897h1147Z"/><rect class="cls-13" x="378.16" y="239" width="35" height="7"/><rect class="cls-13" x="437.16" y="239" width="35" height="7"/><rect class="cls-13" x="499.16" y="239" width="35" height="7"/><path class="cls-14" d="M548.16,384.33s53.17-22,95.83,28S740.58,555,860.58,570s154.93,15,195.29,11,85.31,32.67,85.31,32.67l25.32,2.33s43.33,49,119.33,51,235,30,266.18,69-12.86,161-12.86,161h-990Z"/><path class="cls-15" d="M404.66,374.36a15.46,15.46,0,0,0-15.5,15.21V420h31V389.57A15.46,15.46,0,0,0,404.66,374.36Z"/><path class="cls-11" d="M407.38,374.64a15.67,15.67,0,0,0-3-.28,15.25,15.25,0,0,0-15.25,15.21V420h6V389.57A15.15,15.15,0,0,1,407.38,374.64Z"/><path class="cls-16" d="M1534.19,642.27S1492.4,644,1496.8,682s18.55,54,18.55,54-73.54-32-49.34,14,31.66,30,31.66,30-60.26-26.78-53.66,10.61,6.48,37.39,6.48,37.39-46.33-10-46.33,12v22s-48.29,12-17.48,36,30.86,24,30.86,24-70.38,4-55,24S1378,966,1378,966l19.82,14h136.36"/><path class="cls-16" d="M1918.16,755.08c-2.2-24-19-15-19-15,11.55-36-34.65-26-34.65-26,5-48.46-34.65-13-34.65-13,49.5-90-11.55-31.5-11.55-31.5-18.15-58.5-39.6,4.5-39.6,4.5-1.65-6-14.85-7.5-14.85-7.5,15.31-26.84.18-28-11.77-25.7a87.16,87.16,0,0,1-11.33,3.2,72.86,72.86,0,0,1,11.33-3.2c12.08-4.32,27.67-13.22,13.42-27.88-21.45-22.09-67.65,19.09-67.65,19.09-6.6-72-34.65,4.5-34.65,4.5,0-45-28.05-15-28.05-15-31.35-25.5-57.78,22.5-57.78,22.5-6.88-14.58-30.16-7.51-43.16-1.82V980h384Z"/><path class="cls-16" d="M1193.69,755c21-32-18.9-32-18.9-32,47.75-32,.95-48,.95-48,64.64-54,0-49,0-49,30.64-53-5.12-49-5.12-49,1.5-56-34.7-18-34.7-18s19.21-26-21-32-18.76,50-18.76,50c-97-42-56.33,49-56.33,49-23.3,25,28.59,39,28.59,39-54.71-8-23.29,24-23.29,24-54-18-41.07,25.57-41.07,25.57-18.9-19.64-30.19-15.65-36.58-7.81-1-4.33-3.81-9.57-9.85-15.76-21.5-22-30.5,12-30.5,12-30-56-56-10-56-10-44-34-57.5,10-57.5,10-31.51-52-66.5,0-66.5,0-24-52-60-24-60-24-4-42-42-16-42-16,12-60-46-60-46-60s18-10,16-26-34,0-34,0,12-24-12-38-34,38-34,38c-40-40-56,17-56,17,0-22.63-37.68-16.58-44.83-15.23-.72.17-1.17.23-1.17.23l1.17-.23c3.64-.88,14.5-4.81,12.83-20.15-2-18.38-34,0-34,0s10-37.62-20-50.89-36,21.27-36,21.27-10-32-50-50-32,58-32,58c-8-26-58-50-84-29.27s32,47.27,32,47.27c-44-4-30,38.82-30,38.82-36.94-11.07-28.77,19.12-25.2,29.1.79,1.9,1.2,3.08,1.2,3.08s-.52-1.17-1.2-3.08c-3.54-8.47-14.83-31.37-32.8-28.92-22,3,0,35,0,35l-32-8.59C79.76,614.13,66,628,60.26,635.92a28,28,0,0,1-3.14,5,37.59,37.59,0,0,1,3.14-5c3.85-7.81,7.16-23-17.18-33C9.08,588.92,0,625.84,0,625.84L.16,993h1237V753.34C1221.16,745.62,1193.69,755,1193.69,755Z"/><path class="cls-17" d="M252.16,713s-13-43,28-40c0,0-31-41,13-49,0,0-28-43,5-50,0,0-26.89-92.16,0-88L325,490.16s-36.69-27.54-43.27-4.3S268.09,549,287.63,565c0,0-36.46,12.88-10.46,53.94,0,0-32,13.06-18,42.06C259.16,661,218.16,702,252.16,713Z"/><path class="cls-16" d="M1227.93,750.72s21.72-3.72,29.47,22.28-6.8,26-6.8,26,34.57-12,46.56,10l12,22s-3.1-34,29.45-28,22.14,41,14.35,49.5c0,0,50.2-29.5,60.2,16.5s-120,55.71-120,55.71L1108.89,903l-31.22-34S1142.7,734.44,1227.93,750.72Z"/><rect class="cls-18" x="0.16" y="960.71" width="1920" height="119.29"/><rect class="cls-19" x="0.16" y="897" width="1920" height="80"/><path class="cls-20" d="M1526.27,376.91s-46.1,79.24-132.1,108.09v24s20.61-5.59,29.8-9l9.2-3.41V1079h198V484s.57,6.91,15.34,9,14.66,2.09,14.66,2.09V467S1562.16,455.21,1526.27,376.91Z"/><polygon class="cls-20" points="1526.16 377 1475.16 377 1456.16 539.24 1451.04 1056.5 1539.16 1055.68 1556.16 458.12 1526.16 377"/><path class="cls-21" d="M1475.27,376.91s-46.1,79.24-132.1,108.09v24s20.61-5.59,29.8-9l9.2-3.41V1079h198V484s.57,6.91,15.34,9,14.66,2.09,14.66,2.09V467S1511.16,455.21,1475.27,376.91Z"/><path class="cls-22" d="M1918.16,1080.43a7.82,7.82,0,0,1,2,0v-61.41c-33-2.84-39-28.06-39-28.06-58,50.77-100,0-100,0-60,64-102,0-102,0-48,59.6-108,0-108,0-72,66.22-104,0-104,0-56,66.22-96,0-96,0-70,72.84-116,0-116,0-76,72.84-118,0-118,0-72,75-126,0-126,0-110,68.42-142.1,0-142.1,0l-39.55,68.78,5.66-6.78s33.07,48.51,146.41,0c0,0,55.69,53.2,129.87,0,0,0,43.3,51.64,121.6,0,0,0,47.41,51.64,119.53,0,0,0,41.22,46.94,98.92,0,0,0,33,46.94,107.16,0,0,0,61.82,42.25,111.28,0,0,0,43.27,45.38,105.09,0,0,0,43.27,36,103,0,0,0,6.18,17.88,40.18,19.89Z"/><path class="cls-23" d="M1464.16,1006s-23,24-41,22C1423.16,1028,1436.16,1048,1464.16,1006Z"/><path class="cls-23" d="M1365.16,1006s-23,24-41,22C1324.16,1028,1337.16,1048,1365.16,1006Z"/><path class="cls-23" d="M1251.16,1006s-23,24-41,22C1210.16,1028,1223.16,1048,1251.16,1006Z"/><path class="cls-23" d="M1136.16,1006s-23,24-41,22C1095.16,1028,1108.16,1048,1136.16,1006Z"/><path class="cls-23" d="M1007.16,1000s-23,24-41,22C966.16,1022,979.16,1042,1007.16,1000Z"/><path class="cls-23" d="M1569.16,1006s-23,24-41,22C1528.16,1028,1541.16,1048,1569.16,1006Z"/><path class="cls-23" d="M1674.16,1006s-23,24-41,22C1633.16,1028,1646.16,1048,1674.16,1006Z"/><path class="cls-23" d="M1779.16,1006s-23,24-41,22C1738.16,1028,1751.16,1048,1779.16,1006Z"/><path class="cls-23" d="M1884.16,1006s-23,24-41,22C1843.16,1028,1856.16,1048,1884.16,1006Z"/><path class="cls-24" d="M1918.16,1079v-25.11c-34-2-40.18-19.89-40.18-19.89-59.76,36-103,0-103,0-61.82,45.38-105.09,0-105.09,0-49.46,42.25-111.28,0-111.28,0-74.18,46.94-107.16,0-107.16,0-57.7,46.94-98.92,0-98.92,0-72.12,51.64-119.53,0-119.53,0-78.31,51.64-121.6,0-121.6,0-74.18,53.2-129.87,0-129.87,0-113.34,48.51-146.41,0-146.41,0l-5.66,7-21.69,38Z"/><path class="cls-25" d="M982.16,1044.5s21,24.5,51,20.5C1033.16,1065,979.16,1076,982.16,1044.5Z"/><path class="cls-25" d="M1111.16,1044.5s21,24.5,51,20.5C1162.16,1065,1108.16,1076,1111.16,1044.5Z"/><path class="cls-25" d="M1231.16,1044.5s21,24.5,51,20.5C1282.16,1065,1228.16,1076,1231.16,1044.5Z"/><path class="cls-25" d="M1354.16,1044.5s21,24.5,51,20.5C1405.16,1065,1351.16,1076,1354.16,1044.5Z"/><path class="cls-25" d="M1451.16,1044.5s21,24.5,51,20.5C1502.16,1065,1448.16,1076,1451.16,1044.5Z"/><path class="cls-25" d="M1559.16,1044.5s21,24.5,51,20.5C1610.16,1065,1556.16,1076,1559.16,1044.5Z"/><path class="cls-25" d="M1671.16,1044.5s21,24.5,51,20.5C1722.16,1065,1668.16,1076,1671.16,1044.5Z"/><path class="cls-25" d="M1778.16,1044.5s21,24.5,51,20.5C1829.16,1065,1775.16,1076,1778.16,1044.5Z"/><path class="cls-25" d="M1867.16,1044.5s21,24.5,51,20.5C1918.16,1065,1864.16,1076,1867.16,1044.5Z"/><path class="cls-16" d="M.16,1082s18.29-76.56,58.73-22.85c0,0-30.81-78.94,0-62.36s27,34.58,27,34.58,3.85-55.73,25-36.87,21.18,26.37,21.18,26.37,11.55-9.28,23.11,15.43c0,0-23.11-81.7,0-63.07s42.36,58.14,42.36,58.14,15.4-84.17,27-58.14,0,51.89,0,51.89,34.66-59.72,44.29-35.73,0,42,0,42,30.81-56.1,46.21-37,0,46,0,46,53.92-72,48.14,18.8c0,0,21.18-49.33,52-18.8,0,0-5.78-90.49,28.88-46,0,0-25-86.44,67.4-9.88,0,0,11.55-92.62,48.14,2.47,0,0,40.44-84,48.14-2.47,0,0,59.69-71.82,50.07-11.21,0,0,36.59-50.22,27,39.77,0,0,28.88-106.36,53.92,46.15,0,0-2.9-103.67,44.77-18.8,0,0,9.15-70.73,33.22-19.48,0,0,11.55-95.71,42.36-66.07s9.63,66.07,9.63,66.07,23.54-47.28,24.07-7.5,0,27,0,27,5.13-35.86,23.11-19.48,8.67,29,8.67,29,23.11-18.18,23.11,13.75c0,0,28.88-17.46,28.88,18.35Z"/><path class="cls-16" d="M60.26,581.92a37.59,37.59,0,0,0-3.14,5A28,28,0,0,0,60.26,581.92Z"/><path class="cls-16" d="M434.33,524.77l-1.17.23S433.61,524.94,434.33,524.77Z"/><path class="cls-16" d="M168,568.92c.68,1.91,1.2,3.08,1.2,3.08S168.75,570.82,168,568.92Z"/><path class="cls-16" d="M1767.16,599.88a61.73,61.73,0,0,0-10.3,3.2A73.62,73.62,0,0,0,1767.16,599.88Z"/><rect class="cls-26" x="423.16" y="915.67" width="413" height="17.33" rx="8.67" ry="8.67"/><path class="cls-27" d="M769.46,640H786.9a13.77,13.77,0,0,1,13.57,11.41c4,23.07,16.32,73.68,47.2,80.59,40.19,9,10.86-21,10.86-21s21.74,18,10.33,32-85.27-4.65-85.27-4.65L753.16,673Z"/><polygon class="cls-27" points="444.83 822 498.5 803 840.16 803 840.16 867 840.16 877 813.16 904 468.5 868.67 444.83 822"/><polygon class="cls-27" points="840.16 803 840.16 753 832.16 753 832.16 809 840.16 803"/><rect class="cls-27" x="499.83" y="748.21" width="10" height="54.79"/><circle class="cls-28" cx="492.3" cy="914.67" r="18.33"/><circle class="cls-28" cx="767.64" cy="914.67" r="18.33"/><circle class="cls-29" cx="486.91" cy="915.67" r="18.33"/><circle class="cls-29" cx="762.25" cy="915.67" r="18.33"/><circle class="cls-28" cx="486.51" cy="915.67" r="8.33"/><circle class="cls-28" cx="762.25" cy="915.67" r="8.33"/><path class="cls-30" d="M481,915.67a8.33,8.33,0,0,1,6.71-8.17,8.24,8.24,0,0,0-4.52.36,8.33,8.33,0,0,0,4.52,16A8.33,8.33,0,0,1,481,915.67Z"/><path class="cls-30" d="M757,915.67a8.33,8.33,0,0,1,6.71-8.17,8.24,8.24,0,0,0-4.52.36,8.33,8.33,0,0,0,4.52,16A8.33,8.33,0,0,1,757,915.67Z"/><path class="cls-31" d="M482.64,640H775.21a5.77,5.77,0,0,1,5.68,4.71c2.77,15.05,12,82.72,63.35,95.47,11.6,2.88,22.15-7.89,18.66-19.32a25.15,25.15,0,0,0-3.79-7.44,5.67,5.67,0,0,1-.2-6.47c1.75-2.6,5-4.41,10.25,2,9,11,11,44-13,48s-430,0-430,0h-19s-37,2-32-29c2.5-15.5,8.28-20,13.43-20.62,7.15-.87,8.8,9.89,1.76,11.4l-1.19.23c-12.5,2.15-2.31,27.34,9.11,24,15.86-4.65,56.9-16.37,78.79-98.71A5.78,5.78,0,0,1,482.64,640Z"/><rect class="cls-31" x="439.16" y="822" width="374" height="82"/><rect class="cls-31" x="439.16" y="749" width="11" height="84"/><rect class="cls-31" x="802.16" y="738.35" width="11" height="94.65"/><g class="cls-32"><path class="cls-33" d="M483.59,689.31a146.1,146.1,0,0,1-5,14,1.54,1.54,0,0,0,1.4,2.17h16.35a1.54,1.54,0,0,0,1.54-1.54v-.25a1.54,1.54,0,0,0-1.54-1.54H485.71a1.54,1.54,0,0,1-1.53-1.71,39.35,39.35,0,0,1,2.33-10,1.54,1.54,0,0,0-1.4-2.17h0A1.53,1.53,0,0,0,483.59,689.31Z"/><path class="cls-33" d="M511.89,689.31a146.1,146.1,0,0,1-5,14,1.54,1.54,0,0,0,1.4,2.17h16.35a1.54,1.54,0,0,0,1.54-1.54v-.25a1.54,1.54,0,0,0-1.54-1.54H514a1.54,1.54,0,0,1-1.53-1.71,39.35,39.35,0,0,1,2.33-10,1.54,1.54,0,0,0-1.4-2.17h0A1.53,1.53,0,0,0,511.89,689.31Z"/><path class="cls-33" d="M540.19,689.31a146.1,146.1,0,0,1-5,14,1.54,1.54,0,0,0,1.4,2.17h16.35a1.54,1.54,0,0,0,1.54-1.54v-.25a1.54,1.54,0,0,0-1.54-1.54H542.31a1.54,1.54,0,0,1-1.53-1.71,39.35,39.35,0,0,1,2.33-10,1.54,1.54,0,0,0-1.4-2.17h0A1.53,1.53,0,0,0,540.19,689.31Z"/><path class="cls-33" d="M568.49,689.31a146.1,146.1,0,0,1-5,14,1.54,1.54,0,0,0,1.4,2.17h16.35a1.54,1.54,0,0,0,1.54-1.54v-.25a1.54,1.54,0,0,0-1.54-1.54H570.61a1.54,1.54,0,0,1-1.53-1.71,39.35,39.35,0,0,1,2.33-10,1.54,1.54,0,0,0-1.4-2.17h0A1.53,1.53,0,0,0,568.49,689.31Z"/><path class="cls-33" d="M596.79,689.31a146.1,146.1,0,0,1-5,14,1.54,1.54,0,0,0,1.4,2.17h16.35a1.54,1.54,0,0,0,1.54-1.54v-.25a1.54,1.54,0,0,0-1.54-1.54H598.91a1.54,1.54,0,0,1-1.53-1.71,39.35,39.35,0,0,1,2.33-10,1.54,1.54,0,0,0-1.4-2.17h0A1.53,1.53,0,0,0,596.79,689.31Z"/><path class="cls-33" d="M462.28,714.28a146.1,146.1,0,0,1-5,14,1.54,1.54,0,0,0,1.4,2.17H475a1.54,1.54,0,0,0,1.54-1.54v-.25a1.54,1.54,0,0,0-1.54-1.54H464.4a1.54,1.54,0,0,1-1.53-1.71,39.35,39.35,0,0,1,2.33-10,1.54,1.54,0,0,0-1.4-2.17h0A1.53,1.53,0,0,0,462.28,714.28Z"/><path class="cls-33" d="M490.58,714.28a146.1,146.1,0,0,1-5,14,1.54,1.54,0,0,0,1.4,2.17h16.35a1.54,1.54,0,0,0,1.54-1.54v-.25a1.54,1.54,0,0,0-1.54-1.54H492.7a1.54,1.54,0,0,1-1.53-1.71,39.35,39.35,0,0,1,2.33-10,1.54,1.54,0,0,0-1.4-2.17h0A1.53,1.53,0,0,0,490.58,714.28Z"/><path class="cls-33" d="M518.88,714.28a146.1,146.1,0,0,1-5,14,1.54,1.54,0,0,0,1.4,2.17h16.35a1.54,1.54,0,0,0,1.54-1.54v-.25a1.54,1.54,0,0,0-1.54-1.54H521a1.54,1.54,0,0,1-1.53-1.71,39.35,39.35,0,0,1,2.33-10,1.54,1.54,0,0,0-1.4-2.17h0A1.53,1.53,0,0,0,518.88,714.28Z"/><path class="cls-33" d="M547.18,714.28a146.1,146.1,0,0,1-5,14,1.54,1.54,0,0,0,1.4,2.17h16.35a1.54,1.54,0,0,0,1.54-1.54v-.25a1.54,1.54,0,0,0-1.54-1.54H549.3a1.54,1.54,0,0,1-1.53-1.71,39.35,39.35,0,0,1,2.33-10,1.54,1.54,0,0,0-1.4-2.17h0A1.53,1.53,0,0,0,547.18,714.28Z"/><path class="cls-33" d="M575.48,714.28a146.1,146.1,0,0,1-5,14,1.54,1.54,0,0,0,1.4,2.17h16.35a1.54,1.54,0,0,0,1.54-1.54v-.25a1.54,1.54,0,0,0-1.54-1.54H577.6a1.54,1.54,0,0,1-1.53-1.71,39.35,39.35,0,0,1,2.33-10,1.54,1.54,0,0,0-1.4-2.17h0A1.53,1.53,0,0,0,575.48,714.28Z"/><path class="cls-33" d="M603.78,714.28a146.1,146.1,0,0,1-5,14,1.54,1.54,0,0,0,1.4,2.17h16.35a1.54,1.54,0,0,0,1.54-1.54v-.25a1.54,1.54,0,0,0-1.54-1.54H605.9a1.54,1.54,0,0,1-1.53-1.71,39.35,39.35,0,0,1,2.33-10,1.54,1.54,0,0,0-1.4-2.17h0A1.53,1.53,0,0,0,603.78,714.28Z"/><path class="cls-33" d="M632.08,714.28a146.1,146.1,0,0,1-5,14,1.54,1.54,0,0,0,1.4,2.17h16.35a1.54,1.54,0,0,0,1.54-1.54v-.25a1.54,1.54,0,0,0-1.54-1.54H634.2a1.54,1.54,0,0,1-1.53-1.71,39.35,39.35,0,0,1,2.33-10,1.54,1.54,0,0,0-1.4-2.17h0A1.53,1.53,0,0,0,632.08,714.28Z"/><path class="cls-33" d="M626.53,689.31a146.1,146.1,0,0,1-5,14,1.54,1.54,0,0,0,1.4,2.17h16.35a1.54,1.54,0,0,0,1.54-1.54v-.25a1.54,1.54,0,0,0-1.54-1.54H628.64a1.54,1.54,0,0,1-1.53-1.71,39.35,39.35,0,0,1,2.33-10,1.54,1.54,0,0,0-1.4-2.17h0A1.53,1.53,0,0,0,626.53,689.31Z"/><path class="cls-33" d="M654.83,689.31a146.1,146.1,0,0,1-5,14,1.54,1.54,0,0,0,1.4,2.17h16.35a1.54,1.54,0,0,0,1.54-1.54v-.25a1.54,1.54,0,0,0-1.54-1.54H656.94a1.54,1.54,0,0,1-1.53-1.71,39.35,39.35,0,0,1,2.33-10,1.54,1.54,0,0,0-1.4-2.17h0A1.53,1.53,0,0,0,654.83,689.31Z"/><path class="cls-33" d="M683.13,689.31a146.1,146.1,0,0,1-5,14,1.54,1.54,0,0,0,1.4,2.17h16.35a1.54,1.54,0,0,0,1.54-1.54v-.25a1.54,1.54,0,0,0-1.54-1.54H685.25a1.54,1.54,0,0,1-1.53-1.71,39.35,39.35,0,0,1,2.33-10,1.54,1.54,0,0,0-1.4-2.17h0A1.53,1.53,0,0,0,683.13,689.31Z"/><path class="cls-33" d="M711.43,689.31a146.1,146.1,0,0,1-5,14,1.54,1.54,0,0,0,1.4,2.17h16.35a1.54,1.54,0,0,0,1.54-1.54v-.25a1.54,1.54,0,0,0-1.54-1.54H713.55A1.54,1.54,0,0,1,712,700.4a39.35,39.35,0,0,1,2.33-10,1.54,1.54,0,0,0-1.4-2.17h0A1.53,1.53,0,0,0,711.43,689.31Z"/><path class="cls-33" d="M740,689.31a146.1,146.1,0,0,1-5,14,1.54,1.54,0,0,0,1.4,2.17h16.35a1.54,1.54,0,0,0,1.54-1.54v-.25a1.54,1.54,0,0,0-1.54-1.54H742.12a1.54,1.54,0,0,1-1.53-1.71,39.35,39.35,0,0,1,2.33-10,1.54,1.54,0,0,0-1.4-2.17h0A1.53,1.53,0,0,0,740,689.31Z"/><path class="cls-33" d="M768.3,689.31a146.1,146.1,0,0,1-5,14,1.54,1.54,0,0,0,1.4,2.17h16.35a1.54,1.54,0,0,0,1.54-1.54v-.25a1.54,1.54,0,0,0-1.54-1.54H770.42a1.54,1.54,0,0,1-1.53-1.71,39.35,39.35,0,0,1,2.33-10,1.54,1.54,0,0,0-1.4-2.17h0A1.53,1.53,0,0,0,768.3,689.31Z"/><path class="cls-33" d="M494.06,664.32a146.1,146.1,0,0,1-5,14,1.54,1.54,0,0,0,1.4,2.17h16.35a1.54,1.54,0,0,0,1.54-1.54v-.25a1.54,1.54,0,0,0-1.54-1.54H496.18a1.54,1.54,0,0,1-1.53-1.71,39.35,39.35,0,0,1,2.33-10,1.54,1.54,0,0,0-1.4-2.17h0A1.53,1.53,0,0,0,494.06,664.32Z"/><path class="cls-33" d="M522.36,664.32a146.1,146.1,0,0,1-5,14,1.54,1.54,0,0,0,1.4,2.17h16.35a1.54,1.54,0,0,0,1.54-1.54v-.25a1.54,1.54,0,0,0-1.54-1.54H524.48a1.54,1.54,0,0,1-1.53-1.71,39.35,39.35,0,0,1,2.33-10,1.54,1.54,0,0,0-1.4-2.17h0A1.53,1.53,0,0,0,522.36,664.32Z"/><path class="cls-33" d="M550.66,664.32a146.1,146.1,0,0,1-5,14,1.54,1.54,0,0,0,1.4,2.17h16.35a1.54,1.54,0,0,0,1.54-1.54v-.25a1.54,1.54,0,0,0-1.54-1.54H552.78a1.54,1.54,0,0,1-1.53-1.71,39.35,39.35,0,0,1,2.33-10,1.54,1.54,0,0,0-1.4-2.17h0A1.53,1.53,0,0,0,550.66,664.32Z"/><path class="cls-33" d="M579,664.32a146.1,146.1,0,0,1-5,14,1.54,1.54,0,0,0,1.4,2.17h16.35a1.54,1.54,0,0,0,1.54-1.54v-.25a1.54,1.54,0,0,0-1.54-1.54H581.08a1.54,1.54,0,0,1-1.53-1.71,39.35,39.35,0,0,1,2.33-10,1.54,1.54,0,0,0-1.4-2.17h0A1.53,1.53,0,0,0,579,664.32Z"/><path class="cls-33" d="M607.26,664.32a146.1,146.1,0,0,1-5,14,1.54,1.54,0,0,0,1.4,2.17H620a1.54,1.54,0,0,0,1.54-1.54v-.25a1.54,1.54,0,0,0-1.54-1.54H609.38a1.54,1.54,0,0,1-1.53-1.71,39.35,39.35,0,0,1,2.33-10,1.54,1.54,0,0,0-1.4-2.17h0A1.53,1.53,0,0,0,607.26,664.32Z"/><path class="cls-33" d="M640,664.32a146.1,146.1,0,0,1-5,14,1.54,1.54,0,0,0,1.4,2.17h16.35a1.54,1.54,0,0,0,1.54-1.54v-.25a1.54,1.54,0,0,0-1.54-1.54H642.11a1.54,1.54,0,0,1-1.53-1.71,39.35,39.35,0,0,1,2.33-10,1.54,1.54,0,0,0-1.4-2.17h0A1.53,1.53,0,0,0,640,664.32Z"/><path class="cls-33" d="M668.3,664.32a146.1,146.1,0,0,1-5,14,1.54,1.54,0,0,0,1.4,2.17h16.35a1.54,1.54,0,0,0,1.54-1.54v-.25a1.54,1.54,0,0,0-1.54-1.54H670.41a1.54,1.54,0,0,1-1.53-1.71,39.35,39.35,0,0,1,2.33-10,1.54,1.54,0,0,0-1.4-2.17h0A1.53,1.53,0,0,0,668.3,664.32Z"/><path class="cls-33" d="M696.6,664.32a146.1,146.1,0,0,1-5,14,1.54,1.54,0,0,0,1.4,2.17h16.35a1.54,1.54,0,0,0,1.54-1.54v-.25a1.54,1.54,0,0,0-1.54-1.54H698.71a1.54,1.54,0,0,1-1.53-1.71,39.35,39.35,0,0,1,2.33-10,1.54,1.54,0,0,0-1.4-2.17h0A1.53,1.53,0,0,0,696.6,664.32Z"/><path class="cls-33" d="M724.9,664.32a146.1,146.1,0,0,1-5,14,1.54,1.54,0,0,0,1.4,2.17h16.35a1.54,1.54,0,0,0,1.54-1.54v-.25a1.54,1.54,0,0,0-1.54-1.54H727a1.54,1.54,0,0,1-1.53-1.71,39.35,39.35,0,0,1,2.33-10,1.54,1.54,0,0,0-1.4-2.17h0A1.53,1.53,0,0,0,724.9,664.32Z"/><path class="cls-33" d="M753.47,664.32a146.1,146.1,0,0,1-5,14,1.54,1.54,0,0,0,1.4,2.17h16.35a1.54,1.54,0,0,0,1.54-1.54v-.25a1.54,1.54,0,0,0-1.54-1.54H755.59a1.54,1.54,0,0,1-1.53-1.71,39.35,39.35,0,0,1,2.33-10,1.54,1.54,0,0,0-1.4-2.17h0A1.53,1.53,0,0,0,753.47,664.32Z"/><path class="cls-33" d="M663.25,714.28a146.1,146.1,0,0,1-5,14,1.54,1.54,0,0,0,1.4,2.17H676a1.54,1.54,0,0,0,1.54-1.54v-.25a1.54,1.54,0,0,0-1.54-1.54H665.37a1.54,1.54,0,0,1-1.53-1.71,39.35,39.35,0,0,1,2.33-10,1.54,1.54,0,0,0-1.4-2.17h0A1.53,1.53,0,0,0,663.25,714.28Z"/><path class="cls-33" d="M691.55,714.28a146.1,146.1,0,0,1-5,14,1.54,1.54,0,0,0,1.4,2.17h16.35a1.54,1.54,0,0,0,1.54-1.54v-.25a1.54,1.54,0,0,0-1.54-1.54H693.67a1.54,1.54,0,0,1-1.53-1.71,39.35,39.35,0,0,1,2.33-10,1.54,1.54,0,0,0-1.4-2.17h0A1.53,1.53,0,0,0,691.55,714.28Z"/><path class="cls-33" d="M719.85,714.28a146.1,146.1,0,0,1-5,14,1.54,1.54,0,0,0,1.4,2.17h16.35a1.54,1.54,0,0,0,1.54-1.54v-.25a1.54,1.54,0,0,0-1.54-1.54H722a1.54,1.54,0,0,1-1.53-1.71,39.35,39.35,0,0,1,2.33-10,1.54,1.54,0,0,0-1.4-2.17h0A1.53,1.53,0,0,0,719.85,714.28Z"/><path class="cls-33" d="M748.15,714.28a146.1,146.1,0,0,1-5,14,1.54,1.54,0,0,0,1.4,2.17h16.35a1.54,1.54,0,0,0,1.54-1.54v-.25a1.54,1.54,0,0,0-1.54-1.54H750.27a1.54,1.54,0,0,1-1.53-1.71,39.35,39.35,0,0,1,2.33-10,1.54,1.54,0,0,0-1.4-2.17h0A1.53,1.53,0,0,0,748.15,714.28Z"/><path class="cls-33" d="M776.45,714.28a146.1,146.1,0,0,1-5,14,1.54,1.54,0,0,0,1.4,2.17h16.35a1.54,1.54,0,0,0,1.54-1.54v-.25a1.54,1.54,0,0,0-1.54-1.54H778.57a1.54,1.54,0,0,1-1.53-1.71,39.35,39.35,0,0,1,2.33-10,1.54,1.54,0,0,0-1.4-2.17h0A1.53,1.53,0,0,0,776.45,714.28Z"/></g><path class="cls-34" d="M532.85,857.54S537,867,551.76,867h145.4s14-4.67,14-13.5V822h-34Z"/><rect class="cls-35" x="539.13" y="806" width="164.52" height="54.67" rx="12" ry="12"/><rect class="cls-36" x="529.58" y="806" width="164.52" height="54.67" rx="12" ry="12"/><rect class="cls-37" x="536.66" y="812.5" width="152" height="41" rx="6.67" ry="6.67"/><polygon class="cls-38" points="813.16 822 840.16 803 840.16 877 813.16 904 813.16 822"/><polygon class="cls-39" points="1610.16 467 1661.16 467 1661.16 495 1610.16 495.09 1610.16 467"/><polygon class="cls-40" points="1624.16 495 1624.16 1017 1631.16 1017 1631.16 492 1624.16 495"/></g></g></svg>