<svg id="Layer_1" data-name="Layer 1" xmlns="http://www.w3.org/2000/svg" viewBox="0 0 1552.67 808.76"><defs><style>.cls-1{fill:#fff;}</style></defs><title>whitecloudssite artboards</title><path class="cls-1" d="M344.91,873a19.29,19.29,0,0,0,1.15-6.58A19.05,19.05,0,0,0,322.15,848a23.68,23.68,0,0,0-45.71,4.26,23.76,23.76,0,0,0-26.55,13.28,27.28,27.28,0,0,0-38,23.14,20.36,20.36,0,0,0-17.52-9.76A20.67,20.67,0,0,0,174,897H368.19A24.77,24.77,0,0,0,344.91,873Z" transform="translate(-174.03 -133.24)"/><path class="cls-1" d="M693.91,174a19.29,19.29,0,0,0,1.15-6.58A19.05,19.05,0,0,0,671.15,149a23.68,23.68,0,0,0-45.71,4.26,23.76,23.76,0,0,0-26.55,13.28,27.28,27.28,0,0,0-38,23.14,20.36,20.36,0,0,0-17.52-9.76A20.67,20.67,0,0,0,523,198H717.19A24.77,24.77,0,0,0,693.91,174Z" transform="translate(-174.03 -133.24)"/><path class="cls-1" d="M1560.21,918a19.75,19.75,0,0,1-1.12-6.58,18.79,18.79,0,0,1,18.51-19,18.08,18.08,0,0,1,4.78.63,22.93,22.93,0,0,1,44.53,4.26,22.67,22.67,0,0,1,4.84-.53,23.13,23.13,0,0,1,21,13.8,25.9,25.9,0,0,1,10.55-2.24c14.06,0,25.56,11.2,26.51,25.38a19.73,19.73,0,0,1,17.07-9.76c10.19,0,18.59,8.08,19.79,18.08H1537.53C1538,929,1547.82,918.75,1560.21,918Z" transform="translate(-174.03 -133.24)"/><path class="cls-1" d="M1535.22,316.84a34.71,34.71,0,1,0-65.89-21.74,53.65,53.65,0,0,0-101.78,20.76,26.12,26.12,0,0,0-15.89,24.05c0,.3,0,.1,0,1.1h202.16a27,27,0,0,0,.16-2.8A21.51,21.51,0,0,0,1535.22,316.84Z" transform="translate(-174.03 -133.24)"/></svg>