<svg xmlns="http://www.w3.org/2000/svg" viewBox="0 0 1497.28 547.53"><defs><style>.cls-1{fill:#254208;}.cls-2{fill:#74931d;}</style></defs><title>grass above groundAsset 13</title><g id="Layer_2" data-name="Layer 2"><g id="page_1" data-name="page 1"><path class="cls-1" d="M1264.19,295.24c22.24-33.89-20-33.89-20-33.89,50.58-33.89,1-50.84,1-50.84,68.46-57.19,0-51.9,0-51.9,32.45-56.13-5.42-51.9-5.42-51.9,1.59-59.31-36.75-19.06-36.75-19.06s20.35-27.54-22.24-33.89-19.87,53-19.87,53c-102.7-44.48-59.66,51.9-59.66,51.9-24.68,26.48,30.28,41.31,30.28,41.31-57.95-8.47-24.66,25.42-24.66,25.42-57.19-19.06-43.49,27.08-43.49,27.08-20-20.8-32-16.58-38.74-8.27-1-4.59-4-10.14-10.44-16.69-22.77-23.3-32.3,12.71-32.3,12.71-31.77-59.31-59.31-10.59-59.31-10.59-46.6-36-60.9,10.59-60.9,10.59-33.37-55.07-70.43,0-70.43,0-25.42-55.07-63.55-25.42-63.55-25.42-4.24-44.48-44.48-16.95-44.48-16.95,12.71-63.55-48.72-63.55-48.72-63.55s19.06-10.59,16.95-27.54-36,0-36,0,12.71-25.42-12.71-40.25-36,40.25-36,40.25c-42.36-42.36-59.31,18-59.31,18,0-24-39.91-17.56-47.48-16.13-.76.18-1.23.25-1.23.25l1.23-.25c3.86-.93,15.36-5.09,13.59-21.34-2.12-19.47-36,0-36,0S448.18,47.4,416.4,33.35s-38.13,22.52-38.13,22.52-10.59-33.89-53-53-33.89,61.43-33.89,61.43c-8.47-27.54-61.43-53-89-31s33.89,50.06,33.89,50.06c-46.6-4.24-31.77,41.11-31.77,41.11-39.12-11.72-30.48,20.25-26.69,30.82.84,2,1.27,3.26,1.27,3.26s-.55-1.24-1.27-3.26c-3.75-9-15.71-33.22-34.74-30.63-23.3,3.18,0,37.06,0,37.06l-33.9-9.1c-24.76-6.64-39.35,8-45.42,16.43a29.69,29.69,0,0,1-3.33,5.34,39.81,39.81,0,0,1,3.33-5.34c4.07-8.27,7.58-24.33-18.2-34.94C9.62,119.34,0,158.56,0,158.56l.17,389h1310V293.48C1293.16,285.31,1264.19,295.24,1264.19,295.24Z"/><path class="cls-2" d="M267.07,250.75s-13.77-45.54,29.66-42.36c0,0-32.83-43.42,13.77-51.9,0,0-29.66-45.54,5.3-53,0,0-28.48-97.61,0-93.2l28.48,4.41s-38.86-29.17-45.83-4.55S283.94,77.06,304.63,94c0,0-38.62,13.64-11.08,57.13,0,0-33.89,13.83-19.06,44.55C274.48,195.68,231.06,239.1,267.07,250.75Z"/><path class="cls-1" d="M1300.51,290.7s23-3.94,31.22,23.6-7.2,27.54-7.2,27.54,36.61-12.71,49.31,10.59l12.7,23.3s-3.28-36,31.19-29.66,23.45,43.43,15.19,52.43c0,0,53.17-31.25,63.76,17.47s-127.09,59-127.09,59l-195.17-23-33.07-36S1210.24,273.46,1300.51,290.7Z"/></g></g></svg>