<svg xmlns="http://www.w3.org/2000/svg" viewBox="0 0 153.11 95.47"><defs><style>.cls-1{opacity:0.11;}.cls-2{fill:#919191;}.cls-3{fill:#6d6d6d;}.cls-4{fill:#c6c6c6;opacity:0.63;}</style></defs><title>ashAsset 9</title><g id="Layer_2" data-name="Layer 2"><g id="page_1" data-name="page 1"><ellipse class="cls-1" cx="76.55" cy="79.85" rx="76.55" ry="15.62"/><path class="cls-2" d="M18.55,83.89H133.7a10.28,10.28,0,0,0,8.4-16.21l-40.31-57S75.6-28.52,10,67.81A10.29,10.29,0,0,0,18.55,83.89Z"/><path class="cls-3" d="M70.62,6.08s18.93-2.3,32.93,29.25,18.3,47.55,18.3,47.55l13.39.42a10.81,10.81,0,0,0,9.86-15.94C129.12,37.86,94-18.59,70.62,6.08Z"/><path class="cls-3" d="M36.12,53.69s-6.43,9.28,0,10.24S36.12,53.69,36.12,53.69Z"/><path class="cls-3" d="M57.45,41.94s-6.1,14.62,0,15.28S57.45,41.94,57.45,41.94Z"/><path class="cls-3" d="M76.55,58.28S63,61.43,70.62,64,76.22,61.35,76.55,58.28Z"/><path class="cls-3" d="M94.55,64.89s-4,9,0,9C99.55,73.89,94.55,64.89,94.55,64.89Z"/><path class="cls-4" d="M124.56,69.94s8.33,6.15,8.33,1.38S124.9,64,124.56,69.94Z"/><path class="cls-4" d="M103.54,25.58s8.17,3.49,8.17.78S103.87,22.21,103.54,25.58Z"/><path class="cls-4" d="M48.22,77.35s3.05,5.27,6.53,4.24S51.55,72.81,48.22,77.35Z"/><path class="cls-3" d="M64.89,17.89s-4.11-1.33-4.72,4S65.55,21.89,64.89,17.89Z"/><path class="cls-4" d="M76.56,41.94s8.33,6.15,8.33,1.38S76.9,36,76.56,41.94Z"/></g></g></svg>