<svg xmlns="http://www.w3.org/2000/svg" viewBox="0 0 470 869.49"><defs><style>.cls-1{opacity:0.53;}.cls-2{fill:#353535;opacity:0.58;}.cls-3{fill:#ff6482;}.cls-4{fill:#bc4864;}.cls-5{fill:#913c54;}.cls-6{fill:#c94b6f;}.cls-7{fill:#ffcad9;}.cls-8{fill:#5d94c1;}.cls-9{fill:#fff;}</style></defs><title>buildi pinkyAsset 5</title><g id="Layer_2" data-name="Layer 2"><g id="page_1" data-name="page 1"><g class="cls-1"><rect class="cls-2" x="399.19" y="84.95" width="4.45" height="90.4" transform="translate(14.82 -39.03) rotate(5.67)"/><rect class="cls-2" x="63.43" y="92.36" width="4.45" height="90.4" transform="translate(-10.55 5.55) rotate(-4.48)"/></g><polygon class="cls-3" points="143.27 189.49 188 189.49 188 170.49 130 170.49 130 189.49 143.27 189.49"/><polygon class="cls-3" points="245.14 189.49 293 189.49 293 170.49 234 170.49 234 189.49 245.14 189.49"/><polygon class="cls-3" points="37.11 189.49 85 189.49 85 170.49 26 170.49 26 189.49 37.11 189.49"/><rect class="cls-4" x="26" y="176.49" width="59" height="13"/><rect class="cls-5" x="26" y="176.49" width="12" height="13"/><rect class="cls-4" x="130" y="176.49" width="58" height="13"/><rect class="cls-4" x="234" y="176.49" width="58" height="13"/><rect class="cls-5" x="130" y="176.49" width="12" height="13"/><rect class="cls-5" x="234" y="176.49" width="12" height="13"/><polygon class="cls-3" points="389.56 189.49 412 189.49 412 170.49 383 170.49 383 189.49 389.56 189.49"/><polygon class="cls-3" points="440.39 189.49 464 189.49 464 170.49 435 170.49 435 189.49 440.39 189.49"/><polygon class="cls-3" points="292 164.49 292 189.49 234 189.49 234 164.49 188 164.49 188 189.49 130 189.49 130 164.49 85 164.49 85 189.49 26 189.49 26 164.49 0 164.49 0 869.49 322 869.49 322 164.49 292 164.49"/><polygon class="cls-3" points="337.66 189.49 361 189.49 361 170.49 332 170.49 332 189.49 337.66 189.49"/><polygon class="cls-6" points="464 164.49 464 189.49 440.39 189.49 435 189.49 435 164.49 412 164.49 412 189.49 389.56 189.49 383 189.49 383 164.49 361 164.49 361 189.49 337.66 189.49 332 189.49 332 164.49 322 164.49 322 869.49 470 869.49 470 164.49 464 164.49"/><path class="cls-4" d="M63,243.91c-13.6,0-25,11-25,24.63v49H88v-49C88,254.94,76.6,243.91,63,243.91Z"/><path class="cls-5" d="M67.09,244.37a23.35,23.35,0,0,0-4.6-.46A24.51,24.51,0,0,0,38,268.54v49h9v-49A24.81,24.81,0,0,1,67.09,244.37Z"/><path class="cls-4" d="M160,243.91c-13.6,0-25,11-25,24.63v49h50v-49C185,254.94,173.6,243.91,160,243.91Z"/><path class="cls-5" d="M164.81,244.37a27.13,27.13,0,0,0-5-.46A24.82,24.82,0,0,0,135,268.54v49h10v-49A24.56,24.56,0,0,1,164.81,244.37Z"/><path class="cls-4" d="M258,243.91c-13.6,0-25,11-25,24.63v49h50v-49C283,254.94,271.6,243.91,258,243.91Z"/><path class="cls-5" d="M262,244.37a23,23,0,0,0-4.57-.46A24.49,24.49,0,0,0,233,268.54v49h9v-49A24.76,24.76,0,0,1,262,244.37Z"/><rect class="cls-7" x="28.4" y="309.32" width="69.9" height="15.89"/><rect class="cls-7" x="124.78" y="309.32" width="69.9" height="15.89"/><rect class="cls-7" x="221.16" y="309.32" width="69.9" height="15.89"/><rect class="cls-4" x="338" y="176.49" width="23" height="13"/><rect class="cls-5" x="332" y="176.49" width="6" height="13"/><rect class="cls-4" x="390" y="176.49" width="22" height="13"/><rect class="cls-4" x="440" y="176.49" width="24" height="13"/><rect class="cls-5" x="383" y="176.49" width="7" height="13"/><rect class="cls-5" x="435" y="176.49" width="5" height="13"/><path class="cls-4" d="M63,366.77c-13.6,0-25,11-25,24.63v49.1H88v-49.1C88,377.79,76.6,366.77,63,366.77Z"/><path class="cls-5" d="M67.09,367.23a23.35,23.35,0,0,0-4.6-.46A24.51,24.51,0,0,0,38,391.39v49.1h9v-49.1A24.81,24.81,0,0,1,67.09,367.23Z"/><path class="cls-4" d="M160,366.77c-13.6,0-25,11-25,24.63v49.1h50v-49.1C185,377.79,173.6,366.77,160,366.77Z"/><path class="cls-5" d="M164.81,367.23a27.13,27.13,0,0,0-5-.46A24.82,24.82,0,0,0,135,391.39v49.1h10v-49.1A24.56,24.56,0,0,1,164.81,367.23Z"/><path class="cls-4" d="M258,366.77c-13.6,0-25,11-25,24.63v49.1h50v-49.1C283,377.79,271.6,366.77,258,366.77Z"/><path class="cls-5" d="M262,367.23a23,23,0,0,0-4.57-.46A24.49,24.49,0,0,0,233,391.39v49.1h9v-49.1A24.76,24.76,0,0,1,262,367.23Z"/><rect class="cls-7" x="28.4" y="432.17" width="69.9" height="15.89"/><rect class="cls-7" x="124.78" y="432.17" width="69.9" height="15.89"/><rect class="cls-7" x="221.16" y="432.17" width="69.9" height="15.89"/><path class="cls-4" d="M63,489.62c-13.6,0-25,11-25,24.63v49.24H88V514.25C88,500.65,76.6,489.62,63,489.62Z"/><path class="cls-5" d="M67.09,490.08a23.35,23.35,0,0,0-4.6-.46A24.51,24.51,0,0,0,38,514.25v49.24h9V514.25A24.81,24.81,0,0,1,67.09,490.08Z"/><path class="cls-4" d="M160,489.62c-13.6,0-25,11-25,24.63v49.24h50V514.25C185,500.65,173.6,489.62,160,489.62Z"/><path class="cls-5" d="M164.81,490.08a27.13,27.13,0,0,0-5-.46A24.82,24.82,0,0,0,135,514.25v49.24h10V514.25A24.56,24.56,0,0,1,164.81,490.08Z"/><path class="cls-4" d="M258,489.62c-13.6,0-25,11-25,24.63v49.24h50V514.25C283,500.65,271.6,489.62,258,489.62Z"/><path class="cls-5" d="M262,490.08a23,23,0,0,0-4.57-.46A24.49,24.49,0,0,0,233,514.25v49.24h9V514.25A24.76,24.76,0,0,1,262,490.08Z"/><path class="cls-4" d="M443.5,245c6.18,0,10.5,11,10.5,24.63v48.89H433V269.6C433,256,437.32,245,443.5,245Z"/><path class="cls-5" d="M442,245.43c.7-.3.72-.46,1.45-.46,6.18,0,10.5,11,10.5,24.63v48.89h-3V269.6C451,257.62,447.2,247.64,442,245.43Z"/><path class="cls-4" d="M401,245c6.18,0,11,11,11,24.63v48.89H390V269.6C390,256,394.82,245,401,245Z"/><path class="cls-5" d="M398.4,245.43a6,6,0,0,1,2.28-.46c6.18,0,11.32,11,11.32,24.63v48.89h-4V269.6C408,257.62,403.55,247.64,398.4,245.43Z"/><rect class="cls-7" x="428.53" y="310.38" width="31.78" height="15.89" transform="translate(888.84 636.64) rotate(180)"/><rect class="cls-7" x="384.7" y="310.38" width="31.78" height="15.89" transform="translate(801.19 636.64) rotate(180)"/><path class="cls-4" d="M443.5,367.83c6.18,0,10.5,11,10.5,24.63v49H433v-49C433,378.85,437.32,367.83,443.5,367.83Z"/><path class="cls-5" d="M442,368.29c.7-.3.72-.46,1.45-.46,6.18,0,10.5,11,10.5,24.63v49h-3v-49C451,380.47,447.2,370.49,442,368.29Z"/><path class="cls-4" d="M401,367.83c6.18,0,11,11,11,24.63v49H390v-49C390,378.85,394.82,367.83,401,367.83Z"/><path class="cls-5" d="M398.4,368.29a6,6,0,0,1,2.28-.46c6.18,0,11.32,11,11.32,24.63v49h-4v-49C408,380.47,403.55,370.49,398.4,368.29Z"/><rect class="cls-7" x="428.53" y="433.23" width="31.78" height="15.89" transform="translate(888.84 882.35) rotate(180)"/><rect class="cls-7" x="384.7" y="433.23" width="31.78" height="15.89" transform="translate(801.19 882.35) rotate(180)"/><path class="cls-4" d="M443.5,490.68c6.18,0,10.5,11,10.5,24.63v49.18H433V515.31C433,501.71,437.32,490.68,443.5,490.68Z"/><path class="cls-5" d="M442,491.14c.7-.3.72-.46,1.45-.46,6.18,0,10.5,11,10.5,24.63v49.18h-3V515.31C451,503.33,447.2,493.35,442,491.14Z"/><path class="cls-4" d="M401,490.68c6.18,0,11,11,11,24.63v49.18H390V515.31C390,501.71,394.82,490.68,401,490.68Z"/><path class="cls-5" d="M398.4,491.14a6,6,0,0,1,2.28-.46c6.18,0,11.32,11,11.32,24.63v49.18h-4V515.31C408,503.33,403.55,493.35,398.4,491.14Z"/><rect class="cls-7" x="428.53" y="556.09" width="31.78" height="15.89" transform="translate(888.84 1128.07) rotate(180)"/><rect class="cls-7" x="384.7" y="556.09" width="31.78" height="15.89" transform="translate(801.19 1128.07) rotate(180)"/><path class="cls-4" d="M355.5,245c6.18,0,10.5,11,10.5,24.63v48.89H345V269.6C345,256,349.32,245,355.5,245Z"/><path class="cls-5" d="M354.1,245.43c.7-.3.69-.46,1.43-.46,6.18,0,10.47,11,10.47,24.63v48.89h-3V269.6C363,257.62,359.25,247.64,354.1,245.43Z"/><rect class="cls-7" x="340.62" y="310.38" width="31.78" height="15.89" transform="translate(713.02 636.64) rotate(180)"/><path class="cls-4" d="M355.5,367.83c6.18,0,10.5,11,10.5,24.63v49H345v-49C345,378.85,349.32,367.83,355.5,367.83Z"/><path class="cls-5" d="M354.1,368.29c.7-.3.69-.46,1.43-.46,6.18,0,10.47,11,10.47,24.63v49h-3v-49C363,380.47,359.25,370.49,354.1,368.29Z"/><rect class="cls-7" x="340.62" y="433.23" width="31.78" height="15.89" transform="translate(713.02 882.35) rotate(180)"/><path class="cls-4" d="M355.5,490.68c6.18,0,10.5,11,10.5,24.63v49.18H345V515.31C345,501.71,349.32,490.68,355.5,490.68Z"/><path class="cls-5" d="M354.1,491.14c.7-.3.69-.46,1.43-.46,6.18,0,10.47,11,10.47,24.63v49.18h-3V515.31C363,503.33,359.25,493.35,354.1,491.14Z"/><rect class="cls-7" x="340.62" y="556.09" width="31.78" height="15.89" transform="translate(713.02 1128.07) rotate(180)"/><rect class="cls-7" x="28.4" y="555.03" width="69.9" height="15.89"/><rect class="cls-7" x="124.78" y="555.03" width="69.9" height="15.89"/><rect class="cls-7" x="221.16" y="555.03" width="69.9" height="15.89"/><path class="cls-8" d="M141.75,59.41s-8.13,6.83-4.55,13.33,12.68,16.91,12.68,16.91,11.38,15.28-4.88,18.53-27.7,1.05-27.64-11.37,9.43-12.34,9.43-12.34,1.63,3.23,0,5.5S124.52,98.1,133,99.4s13.66-2.93,7.15-11.06-18.86-14-14.63-26.66S153.46,54.85,141.75,59.41Z"/><path class="cls-8" d="M160,53.88V37s-.34-8.13,6.48-4.23,4.71,11.06,4.71,12.68.17,7.15.17,7.15,11.4-1.3,11.73,1.3-6.52,5.85-11.89,6.83c0,0,2.43,22.44,1.45,30.56S170,104.6,166.15,104s-7.16-.33-6.83-41.62c0,0-9.74.65-9.74-3.9S160,53.88,160,53.88Z"/><path class="cls-8" d="M224.67,59.73s-5.53,26.34,0,38,13.51,3.25,13.75,0S238,75,241.9,71.76s11.38-10.73,12.36-2,2,25.36,6.5,29.26,9.43,6.5,14.31-2.6,5.85-14.52,8.45-15.39,2.28,14.74,10.41,20.59,12,5.83,17.23,2.1-5.85-.48-7.48-3.4-3.58-22.11-7.8-27-9.75-17.88-26,11.71c0,0,.65-18.53-4.88-21.79S247.43,52.9,233.77,73.71C233.77,73.71,236.37,60.39,224.67,59.73Z"/><path class="cls-8" d="M389.52,64s9.1-1,9.43,8.78-1.63,29.59,5.85,31.22,8.45-10.41,8.45-16.58,2-15.61,9.75-17.23,7.8-7.53,1.3-6.21-13,4.9-13.66,8.48C410.66,72.41,403.18,49.33,389.52,64Z"/><path class="cls-8" d="M415.54,43.47s0-4,2.06-4,2.49,4.23-2.06,12.36c0,0-.65,2,4.88,2.6s4.88-2.6,0-2.6-3.14-.22-3.14-.22,4.44-5.42,4.55-9-1.89-6.94-6.31-3.14-2.14,5.09-1.39,5.2A1.13,1.13,0,0,0,415.54,43.47Z"/><path class="cls-8" d="M432.45,41.31s-2.17.33-2.71,5.31.54,5.85,1.35,5.85,3.41,0,3.63-6.32c0,0-.11-5.28-3.9-6.14,0,0,3.25.33,3.9,0a6.43,6.43,0,0,0,2.06,2.28c1.19.65,1,7.26-.76,9.1s-4.2,4-7,1.63-3-6.39-2.12-9.21S430.5,38.57,432.45,41.31Z"/><path class="cls-8" d="M440.14,48.79s2.71-4.77,4.34-5.53c0,0-.87,10.56,1.84,10.81s1.52-5.85,1.52-7-.89-5.19.26-7c0,0-.91-1.84-2-1.52s-3.25,4.23-3.25,4.23S438.62,48.35,440.14,48.79Z"/><path class="cls-8" d="M455,37.79A8.86,8.86,0,0,0,454,47s4-4.54,7.37-1.61,2.38,6.72-.76,8.13-6.18-1-6.18-1l1.3-2.82s2.28,2.93,4.12,1.84,1.63-4-1.08-4-4.55,4.72-4.55,6.48-1.26,1.11-1.12-2.79c0,0-3.54-5.2-1.92-10.08S456,36,455,37.79Z"/><path class="cls-8" d="M383,93.22c-1.3,2.93-16.58,6.5-15.61-7.8A25.35,25.35,0,0,0,384.32,76c6.83-8.78,3.58-19.18-8.45-19.18s-25,13-21.46,30.56,16.42,17.88,16.42,17.88,13.82,2.28,19.35-13.66S384.32,90.3,383,93.22Zm-9.35-27.15c5.28-3.9,6.42,0,6.42,0-1.63,11.06-12.84,11.71-12.84,11.71S368.39,70,373.67,66.07Z"/><path class="cls-8" d="M212.28,93.22c-1.3,2.93-16.58,6.5-15.61-7.8A25.35,25.35,0,0,0,213.58,76c6.83-8.78,3.58-19.18-8.45-19.18s-25,13-21.46,30.56,16.42,17.88,16.42,17.88,13.82,2.28,19.35-13.66S213.58,90.3,212.28,93.22Zm-9.35-27.15c5.28-3.9,6.42,0,6.42,0-1.63,11.06-12.84,11.71-12.84,11.71S197.64,70,202.93,66.07Z"/><path class="cls-8" d="M110.5,93.22c-1.3,2.93-16.58,6.5-15.61-7.8A25.35,25.35,0,0,0,111.8,76c6.83-8.78,3.58-19.18-8.45-19.18s-25,13-21.46,30.56,16.42,17.88,16.42,17.88,13.82,2.28,19.35-13.66S111.8,90.3,110.5,93.22Zm-9.35-27.15c5.28-3.9,6.42,0,6.42,0C106,77.13,94.73,77.78,94.73,77.78S95.87,70,101.15,66.07Z"/><path class="cls-8" d="M346.6,79.24a9,9,0,0,0,.84.89C347.07,79.24,346.6,79.24,346.6,79.24Z"/><path class="cls-8" d="M356.36,77,343,68.49s-5.23-4.61-10.14,0-2.22,5.55,1.68,6.85,4.55,15.61.33,21.46-14.63.82-15-13.9c0,0,10.08-8.22,15.28-26.1s1.63-28.61-10.41-26.34-22.11,35.44-15,60.48,33.82,16.26,36.74,2.28c1.76-8.41,1.4-11.76.84-13.09a9,9,0,0,1-.84-.89s.46,0,.84.89a8.28,8.28,0,0,0,6.36,2.5c4.18-.46,4.5-1.55,4.5-1.55Zm-29-40.21c1.3-.22,4.55-.87,2.6,13.87a45.21,45.21,0,0,1-11.27,24.06C316.6,44.12,326,37,327.31,36.75Z"/><path class="cls-8" d="M82.9,70.14C78,67.21,67,70.14,67,70.14s-.33-11.06,0-23.41S77,37.62,77,37.62c4.23,2.93,2.28-9.1-12.36-6.83s-11.38,42.6-11.38,42.6C-6.52,124.11,25,180.69,48.76,157.93S66.82,79.24,66.82,79.24C69,77,82.9,73.71,82.9,73.71S87.78,73.06,82.9,70.14ZM52,123.25c-3.24,13.66-13,24.5-18.2,19.94s-6.72-37.94,19.94-57.66C53.74,85.53,55.24,109.59,52,123.25Z"/><path class="cls-9" d="M137.52,58.35s-8.13,6.83-4.55,13.33,12.68,16.91,12.68,16.91,11.38,15.28-4.88,18.53-27.7,1.05-27.64-11.37,9.43-12.34,9.43-12.34,1.63,3.23,0,5.5-2.28,8.13,6.18,9.43,13.66-2.93,7.15-11.06-18.86-14-14.63-26.66S149.22,53.8,137.52,58.35Z"/><path class="cls-9" d="M155,52.82V35.91s0-8.13,6.87-4.23,4.9,11.06,4.9,12.68.27,7.15.27,7.15,11.45-1.3,11.78,1.3-6.5,5.85-11.87,6.83c0,0,2.44,22.44,1.46,30.56s-2.6,13.33-6.5,12.68-7.15-.33-6.83-41.62c0,0-10.12.65-10.12-3.9S155,52.82,155,52.82Z"/><path class="cls-9" d="M220.43,58.67s-5.53,26.34,0,38,13.51,3.25,13.75,0-.42-22.76,3.49-26S249,60,250,68.75s2,25.36,6.5,29.26,9.43,6.5,14.31-2.6S276.69,80.9,279.29,80s2.28,14.74,10.41,20.59,12,5.83,17.23,2.1-5.85-.48-7.48-3.4-3.58-22.11-7.8-27-9.75-17.88-26,11.71c0,0,.65-18.53-4.88-21.79s-17.56-10.41-31.22,10.41C229.54,72.65,232.14,59.33,220.43,58.67Z"/><path class="cls-9" d="M385.29,62.9s9.1-1,9.43,8.78-1.63,29.59,5.85,31.22S409,92.49,409,86.31s2-15.61,9.75-17.23,7.8-7.53,1.3-6.21-13,4.9-13.66,8.48C406.42,71.35,398.94,48.27,385.29,62.9Z"/><path class="cls-9" d="M411.3,42.42s0-4,2.06-4,2.49,4.23-2.06,12.36c0,0-.65,2,4.88,2.6s4.88-2.6,0-2.6-3.14-.22-3.14-.22,4.44-5.42,4.55-9-1.89-6.94-6.31-3.14-2.14,5.09-1.39,5.2A1.13,1.13,0,0,0,411.3,42.42Z"/><path class="cls-9" d="M428.21,40.25s-2.17.33-2.71,5.31.54,5.85,1.35,5.85,3.41,0,3.63-6.32c0,0-.11-5.28-3.9-6.14,0,0,3.25.33,3.9,0a6.43,6.43,0,0,0,2.06,2.28c1.19.65,1,7.26-.76,9.1s-4.2,4-7,1.63-3-6.39-2.12-9.21S426.27,37.51,428.21,40.25Z"/><path class="cls-9" d="M435.9,47.73s2.71-4.77,4.34-5.53c0,0-.87,10.56,1.84,10.81s1.52-5.85,1.52-7-.89-5.19.26-7c0,0-.91-1.84-2-1.52s-3.25,4.23-3.25,4.23S434.39,47.29,435.9,47.73Z"/><path class="cls-9" d="M450.75,36.73a8.86,8.86,0,0,0-1,9.24s4-4.54,7.37-1.61,2.38,6.72-.76,8.13-6.18-1-6.18-1l1.3-2.82s2.28,2.93,4.12,1.84,1.63-4-1.08-4S450,51.25,450,53s-1.26,1.11-1.12-2.79c0,0-3.54-5.2-1.92-10.08S451.8,35,450.75,36.73Z"/><path class="cls-9" d="M378.78,92.16c-1.3,2.93-16.58,6.5-15.61-7.8a25.35,25.35,0,0,0,16.91-9.43c6.83-8.78,3.58-19.18-8.45-19.18s-25,13-21.46,30.56,16.42,17.88,16.42,17.88,13.82,2.28,19.35-13.66S380.09,89.24,378.78,92.16ZM369.44,65c5.28-3.9,6.42,0,6.42,0C374.23,76.07,363,76.72,363,76.72S364.15,68.92,369.44,65Z"/><path class="cls-9" d="M208,92.16c-1.3,2.93-16.58,6.5-15.61-7.8a25.35,25.35,0,0,0,16.91-9.43c6.83-8.78,3.58-19.18-8.45-19.18s-25,13-21.46,30.56,16.42,17.88,16.42,17.88,13.82,2.28,19.35-13.66S209.34,89.24,208,92.16ZM198.69,65c5.28-3.9,6.42,0,6.42,0-1.63,11.06-12.84,11.71-12.84,11.71S193.41,68.92,198.69,65Z"/><path class="cls-9" d="M106.27,92.16c-1.3,2.93-16.58,6.5-15.61-7.8a25.35,25.35,0,0,0,16.91-9.43c6.83-8.78,3.58-19.18-8.45-19.18s-25,13-21.46,30.56S94.07,104.2,94.07,104.2s13.82,2.28,19.35-13.66S107.57,89.24,106.27,92.16ZM96.92,65c5.28-3.9,6.42,0,6.42,0C101.71,76.07,90.5,76.72,90.5,76.72S91.63,68.92,96.92,65Z"/><path class="cls-9" d="M342.37,78.18a9,9,0,0,0,.84.89C342.83,78.19,342.37,78.18,342.37,78.18Z"/><path class="cls-9" d="M352.12,75.91l-13.33-8.47s-5.23-4.61-10.14,0-2.22,5.55,1.68,6.85,4.55,15.61.33,21.46-14.63.82-15-13.9c0,0,10.08-8.22,15.28-26.1s1.63-28.61-10.41-26.34-22.11,35.44-15,60.48,33.82,16.26,36.74,2.28c1.76-8.41,1.4-11.76.84-13.09a9,9,0,0,1-.84-.89s.46,0,.84.89a8.28,8.28,0,0,0,6.36,2.5c4.18-.46,4.5-1.55,4.5-1.55Zm-29-40.21c1.3-.22,4.55-.87,2.6,13.87A45.21,45.21,0,0,1,314.4,73.63C312.36,43.06,321.77,35.91,323.07,35.7Z"/><path class="cls-9" d="M78.66,69.08c-4.88-2.93-15.93,0-15.93,0s-.33-11.06,0-23.41,10.08-9.1,10.08-9.1c4.23,2.93,2.28-9.1-12.36-6.83s-11.38,42.6-11.38,42.6c-59.83,50.72-28.29,107.3-4.55,84.54S62.59,78.18,62.59,78.18c2.13-2.28,16.08-5.53,16.08-5.53S83.54,72,78.66,69.08Zm-30.9,53.11c-3.24,13.66-13,24.5-18.2,19.94S22.84,104.2,49.51,84.47C49.51,84.47,51,108.53,47.76,122.19Z"/><path d="M13.14,6.57l.11-3.4a1.59,1.59,0,0,1,.67-1.34v.12a.26.26,0,0,1,.13,0q.43,0,1.07,1.47a27.44,27.44,0,0,1,1.16,3.23q.52,1.76,1,3.55t.64,2.1Q18.3,8.45,18.3,3l0-.49q0-.54.45-.54a.42.42,0,0,1,.39.21,1,1,0,0,1,.13.5V4.08q0,2.14-.19,5.72a14.94,14.94,0,0,1-.47,4,2.89,2.89,0,0,1-.69.15.35.35,0,0,1-.29-.13,1,1,0,0,1-.16-.4,1.94,1.94,0,0,0-.11-.36V13A22.41,22.41,0,0,0,16,8.74q-1.31-3.62-1.89-5v9.17l.07.12a.72.72,0,0,1,.12.36.49.49,0,0,1-.16.34.52.52,0,0,1-.39.17q-.6,0-.6-1.11Z"/><path d="M26.11,7.89l.09,3.87v1h.24l.52,0q.75,0,.75.45a.51.51,0,0,1-.18.4.61.61,0,0,1-.42.16h-.8a9.36,9.36,0,0,1-1.06,0l-.22,0q-.65,0-.65-.41a.55.55,0,0,1,.11-.32.32.32,0,0,1,.21-.16h.52l0-.24-.12-3.87.1-4.05q0-1-.09-2h-.35l-.42,0a.74.74,0,0,1-.42-.1.43.43,0,0,1-.15-.39q0-.42.9-.42h2.17q.74,0,.74.38a.41.41,0,0,1-.16.31.53.53,0,0,1-.36.14h-.93q.07.75.07,1.69Z"/><path d="M33.93,13.65l0-1.4,0-.62q-.07-.23-.29-4.11T33.4,2.78h-.07q-1.48,0-1.48-.54A.32.32,0,0,1,32,2a.77.77,0,0,1,.38-.11L34.9,2h.29q.57,0,.57.44a.43.43,0,0,1-.19.36.68.68,0,0,1-.42.14l-.84-.12,0,.19q0,1.72.3,5.17t.3,5.17a.49.49,0,0,1-.2.38.65.65,0,0,1-.43.16Z"/><path d="M47.67,13.65l0-1.4,0-.62q-.07-.23-.29-4.11t-.24-4.74h-.07q-1.48,0-1.48-.54a.32.32,0,0,1,.2-.28.77.77,0,0,1,.38-.11L48.64,2h.29q.57,0,.57.44a.43.43,0,0,1-.19.36.68.68,0,0,1-.42.14l-.84-.12L48,3q0,1.72.3,5.17t.3,5.17a.49.49,0,0,1-.2.38.65.65,0,0,1-.43.16Z"/><path d="M54.88,7.84l0,2a16.37,16.37,0,0,0,.35,3.8l-.2.49H54.5l-.24-.27q0-.82,0-1.84t-.16-4.35Q54,4.31,54,2.67q0-.86.6-.86a2.55,2.55,0,0,1,1.6.5,1.69,1.69,0,0,1,.65,1.42V5a2.3,2.3,0,0,1-.2,1q-.2.43-.45.91l-.28.53q.1.44.35,1.74a15.87,15.87,0,0,0,1.18,4.08,1.33,1.33,0,0,1,.19.56.52.52,0,0,1-.11.34.36.36,0,0,1-.3.14q-.38,0-.73-.88a11,11,0,0,1-.56-1.94q-.65-3.26-.79-3.59ZM55,2.48l-.06.26q0,.75,0,2.16t0,2a1.8,1.8,0,0,0,.69-1.16,5.81,5.81,0,0,0,.26-1.44,7.13,7.13,0,0,0,0-.73,2.83,2.83,0,0,0-.12-.52A.81.81,0,0,0,55,2.48Z"/><path d="M64.07,7.89l.09,3.87v1h.24l.52,0q.75,0,.75.45a.51.51,0,0,1-.18.4.61.61,0,0,1-.42.16h-.8a9.36,9.36,0,0,1-1.06,0l-.22,0q-.65,0-.65-.41a.55.55,0,0,1,.11-.32.32.32,0,0,1,.21-.16h.52l0-.24-.12-3.87.1-4.05q0-1-.09-2h-.35l-.42,0a.74.74,0,0,1-.42-.1.43.43,0,0,1-.15-.39q0-.42.9-.42h2.17q.74,0,.74.38a.41.41,0,0,1-.16.31.53.53,0,0,1-.36.14H64.1q.07.75.07,1.69Z"/><path d="M70,9.54V8a17.52,17.52,0,0,1,.27-3.73,3.47,3.47,0,0,1,.89-1.8,2.82,2.82,0,0,1,2-.69.59.59,0,0,1,.42.13.43.43,0,0,1,.14.32.54.54,0,0,1-.11.33.36.36,0,0,1-.28.16h-.85a.78.78,0,0,0-.65.48,3.79,3.79,0,0,0-.39,1.17,12.3,12.3,0,0,0-.22,2.18v.09l-.08,3.51a6.58,6.58,0,0,0,.12,1.54,4.14,4.14,0,0,0,.25.69,1.49,1.49,0,0,0,.31.43,1.45,1.45,0,0,0,1,.39.57.57,0,0,0,.39-.16.75.75,0,0,1,.38.1.33.33,0,0,1,.17.3q0,.72-1,.72a3.32,3.32,0,0,1-.86-.12,2.49,2.49,0,0,1-.67-.26Q70,13,70,9.54Z"/><path d="M79.44,3l-.07,4.54a4.1,4.1,0,0,0,1,.09H81a2,2,0,0,0,0-.59q0-.51-.12-2.23t-.12-2.59A.44.44,0,0,1,81,1.86a.48.48,0,0,1,.3-.14.82.82,0,0,1,.23,0l.2.07.17.06q0,2.36.17,6.91t.17,4.7a.4.4,0,0,1-.19.3.69.69,0,0,1-.43.15q-.24,0-.38-.35a3.51,3.51,0,0,1-.19-1q0-.68-.07-1.18,0-.21,0-.49T81,10q0-.85,0-1V9l0-.52-.11-.17v0a1.43,1.43,0,0,1-.33,0l-1.17-.17v2.09l.11,3a.81.81,0,0,1-.13.46.43.43,0,0,1-.38.2q-.36,0-.5-.66a9.32,9.32,0,0,1-.14-1.81l.05-2.77a7.75,7.75,0,0,0,0-1V7.61q.07-1,.07-1.07l-.12-4.11a.54.54,0,0,1,.15-.38.48.48,0,0,1,.36-.16Q79.44,1.89,79.44,3Z"/><path d="M89.62,13q0,1.22-.6,1.22a.56.56,0,0,1-.51-.4,11.71,11.71,0,0,0,.2-3.08,13.84,13.84,0,0,0-.1-1.39q-.1-.9-.12-1.28V7.57l-.57-1.44a17.4,17.4,0,0,1-1.21-3.64v-.1l.41-.3q.56,0,1.33,2.82l.34,1.24q.07-.2.28-1.36.54-3,1.14-3a.49.49,0,0,1,.31.11.33.33,0,0,1,.14.28,10,10,0,0,1-.52,2.64,10.78,10.78,0,0,0-.54,2.64Z"/><path d="M95.46,4.33q-.16,0-.16-.34a7.8,7.8,0,0,1,.19-1.22A11,11,0,0,1,96,.93Q96.41,0,96.8,0t.33.4a6.21,6.21,0,0,1-.27,1.7,6.33,6.33,0,0,1-.67,1.58Q95.8,4.33,95.46,4.33Z"/><path d="M102,13.18l.76.13a.77.77,0,0,0,.6-.3,1.93,1.93,0,0,0,.38-.76,5.89,5.89,0,0,0,.24-1.54,4.12,4.12,0,0,0-.22-1.33,6.83,6.83,0,0,0-.55-1.22q-.33-.56-.65-1.15a5.61,5.61,0,0,1-.76-2.72,3.59,3.59,0,0,1,.28-1.45q.52-1.17,1.37-1.17a1,1,0,0,1,.61.2.56.56,0,0,1,.29.44q0,.42-.44.42a.76.76,0,0,1-.38-.11q-.58,0-.78,1.29a4.09,4.09,0,0,0,0,.65,3.34,3.34,0,0,0,.16.91,4.42,4.42,0,0,0,.4,1l.52.93.53,1a5.43,5.43,0,0,1,.56,2.54,4.49,4.49,0,0,1-.51,2.11,2.13,2.13,0,0,1-.71.81,1.85,1.85,0,0,1-1,.32v0q-.75-.11-.82-.7Z"/></g></g></svg>