<svg xmlns="http://www.w3.org/2000/svg" viewBox="0 0 1431.26 726"><defs><style>.cls-1{fill:#7f765d;}.cls-2{fill:#4c4636;}.cls-3{fill:#b5a886;}.cls-4{fill:#bcae91;}.cls-5{fill:#c1b393;}.cls-6{fill:#897e64;}</style></defs><title>china wallAsset 12</title><g id="Layer_2" data-name="Layer 2"><g id="page_1" data-name="page 1"><path class="cls-1" d="M19,383.54V100H0V0H229V100H216v28.29s43.48-18.81,73.75,8.6c0,0,79.1-36.14,136.3,16.82S526,302,748.27,287.16c0,0,145-27.54,193.14,12.71s71.07,57.19,134.83,73.08,214.15,52.08,286.17,43.61S1277.69,726,1277.69,726H36.41Z"/><path class="cls-2" d="M299.07,155.83s63.55-30.2,134.51,58.51S617.72,330.09,698.29,321.86s132-37.88,231.26,10.84,184.34,106.34,400,113.61-81.71,142.37-81.71,142.37L833.7,533.93,269.42,373.07Z"/><path class="cls-3" d="M1319,506.34s-179-54.48-237.24-60.06-114.38-14-150.39-35.22-112.27-68.3-189.58-59.3-234.29-11.65-301-73.08S294,90.16,216,128.29V100h13V0H201V27H164V0H135V27H98V0H72V27H35V0H0V100H19V322.11L16.29,486H216V716H1431.26Z"/><rect class="cls-4" x="35" y="19" width="37" height="8"/><rect class="cls-4" x="98" y="19" width="37" height="8"/><rect class="cls-4" x="164" y="19" width="37" height="8"/><path class="cls-5" d="M215.4,173.08s56.31-23.28,101.5,29.68,102.29,151.12,229.39,167,164.09,15.89,206.84,11.65S843.48,416,843.48,416l26.82,2.47s45.89,51.9,126.38,54,248.93,31.73,281.92,73S1265,716,1265,716H216.46Z"/><path class="cls-6" d="M63.5,162.56c-8.9,0-16.5,7.21-16.5,16.11V211H80V178.67C80,169.77,72.4,162.56,63.5,162.56Z"/><path class="cls-2" d="M66.12,162.86a15.68,15.68,0,0,0-3.05-.3A16.07,16.07,0,0,0,47,178.67V211h6V178.67A16.21,16.21,0,0,1,66.12,162.86Z"/></g></g></svg>