<svg xmlns="http://www.w3.org/2000/svg" viewBox="0 0 820.41 401.17"><defs><style>.cls-1{fill:#254208;}</style></defs><title>grass 2Asset 15</title><g id="Layer_2" data-name="Layer 2"><g id="transformation"><path class="cls-1" d="M589.41,176.17s8-19,23-8,30,33,11,53l-19,20s47-38,73,3l26,41s-10-56,15-50,0,37,0,37,19-18,27-4l8,14s58-25,67,32h-229Z"/></g><g id="page_1" data-name="page 1"><path class="cls-1" d="M185.11,43.48s-44.58,1.84-39.91,42.08,19.63,57.19,19.63,57.19-78.21-33.89-52.48,14.83S146,189.35,146,189.35s-64.06-28.37-57,11.23,6.8,39.6,6.8,39.6S46.41,229.6,46.41,252.9v23.3s-51.24,12.71-18.5,38.13,32.85,25.42,32.85,25.42S-14,344,2.34,365.16s16.4,21.18,16.4,21.18l21.07,14.83h145.6"/><path class="cls-1" d="M591.41,163c-2-25.42-20-15.89-20-15.89,12.28-38.13-36.71-27.5-36.71-27.5,5.26-51.32-36.77-13.81-36.77-13.81,52.62-95.32-12.25-33.36-12.25-33.36-19.29-62-42.08,4.77-42.08,4.77-1.75-6.35-15.78-7.94-15.78-7.94C444.11,40.8,428,39.6,415.33,42a92.93,92.93,0,0,1-12,3.39,77.68,77.68,0,0,1,12-3.39c12.84-4.58,29.41-14,14.27-29.53C406.8-10.91,357.69,32.7,357.69,32.7c-7-76.25-36.83,4.77-36.83,4.77,0-47.66-29.82-15.89-29.82-15.89C257.72-5.43,230,45.41,230,45.41c-7.31-15.45-31.54-7.95-45.54-1.93V401.17h407Z"/></g></g></svg>