<svg xmlns="http://www.w3.org/2000/svg" viewBox="0 0 1033.99 144.13"><defs><style>.cls-1{fill:#254208;}.cls-2{fill:#7b912a;}</style></defs><title>ground grassAsset 4</title><g id="Layer_2" data-name="Layer 2"><g id="page_1" data-name="page 1"><path class="cls-1" d="M0,144.13s19.37-80,62.2-23.89c0,0-32.63-82.42,0-65.11S90.75,91.2,90.75,91.2,94.83,33,117.27,52.72,139.7,80.24,139.7,80.24s12.24-9.68,24.47,16.1c0,0-24.47-85.27,0-65.83S209,91.19,209,91.19s16.32-87.86,28.55-60.68,0,54.16,0,54.16,36.71-62.34,46.91-37.3,0,43.82,0,43.82,32.63-58.55,48.95-38.67,0,48,0,48,57.1-75.12,51,19.62c0,0,22.43-51.49,55.06-19.62,0,0-6.12-94.45,30.59-48,0,0-26.51-90.23,71.38-10.31,0,0,12.24-96.67,51,2.58,0,0,42.83-87.65,51-2.58,0,0,63.22-75,53-11.7,0,0,38.75-52.42,28.55,41.51,0,0,30.59-111,57.1,48.17,0,0-3.07-108.2,47.41-19.62,0,0,9.69-73.83,35.19-20.34,0,0,12.24-99.89,44.87-69s10.2,69,10.2,69,24.93-49.35,25.49-7.83,0,28.17,0,28.17,5.43-37.43,24.47-20.34,9.18,30.29,9.18,30.29,24.47-18.93,24.47,14.4c0,0,30.59-17.8,30.59,19.2Z"/><path class="cls-2" d="M137,101.13s-2-29-26-41S121,70.13,137,101.13Z"/><path class="cls-2" d="M191,91.13S181,77,173,72.06s-21.62-25.94-5-22.94S189,79.13,191,91.13Z"/><path class="cls-2" d="M79.66,94.46S64.68,70.74,56.32,70,57,53.79,68,63.79,80.32,86.46,79.66,94.46Z"/><path class="cls-2" d="M53.05,129.79S43,114.46,31,119.13s-10.67-9.33-2.67-10.67S51.78,115.46,53.05,129.79Z"/><path class="cls-2" d="M224,52.13s10,27.67-4,42.33c0,0,32-6.33,40,18.67s0,20,0,20,16-8.18,24,.41l8,8.59,11,2s-5.63-25-31.32-21c0,0-6.68-40-37.68-32C234,91.13,246,48.13,224,52.13Z"/><path class="cls-2" d="M271.67,56.8S282,69.61,279,80.87l-3,11.26S300.37,59.39,271.67,56.8Z"/><path class="cls-2" d="M363,79s14.33,8.16,17.83,42.83C380.82,121.79,386,76,363,79Z"/><path class="cls-2" d="M319,56.8s15.33,8.33,8,27.66l-7.33,19.33,9.32-3.49S349.43,51.07,319,56.8Z"/><path class="cls-2" d="M549.12,144.13s-7.76-36.29,22.72-36.29S597,111.15,597,111.15s-17.1-38.8,15.12-39.07,30,25.93,30,25.93l7.58-5.87S644.92,61.79,610,64.46s-21.63,39.38-21.63,39.38-55-19.71-49.49,40.29Z"/></g></g></svg>