<svg xmlns="http://www.w3.org/2000/svg" viewBox="0 0 530.29 311.38"><defs><style>.cls-1{fill:#af863e;opacity:0.54;}.cls-2{fill:#896b29;}.cls-3{fill:#66605f;}.cls-4{fill:#ada6a5;}.cls-5{fill:#443d3d;}.cls-6{fill:#ffbf1f;}.cls-7{opacity:0.81;}.cls-8{fill:#b7903b;}.cls-9{fill:#775e25;opacity:0.33;}.cls-10,.cls-12{fill:#bf305c;}.cls-11{fill:#ff396d;}.cls-12{opacity:0.77;}.cls-13{fill:#684e29;opacity:0.8;}</style></defs><title>potti kadaiAsset 10</title><g id="Layer_2" data-name="Layer 2"><g id="page_1" data-name="page 1"><rect class="cls-1" x="51.33" y="291.96" width="437.41" height="18.36" rx="8.67" ry="8.67"/><path class="cls-2" d="M418.09,0h18.47a14.59,14.59,0,0,1,14.37,12.08c4.27,24.44,17.28,78,50,85.35,42.56,9.53,11.5-22.24,11.5-22.24s23,19.06,10.94,33.89S433,104.17,433,104.17L400.84,35Z"/><polygon class="cls-2" points="74.28 192.76 131.12 172.63 492.98 172.63 492.98 240.42 492.98 251.01 464.38 279.61 99.34 242.18 74.28 192.76"/><polygon class="cls-2" points="492.98 172.63 492.98 119.68 484.5 119.68 484.5 178.99 492.98 172.63"/><rect class="cls-2" x="132.53" y="114.61" width="10.59" height="58.03"/><circle class="cls-3" cx="124.56" cy="290.9" r="19.42"/><circle class="cls-3" cx="416.16" cy="290.9" r="19.42"/><circle class="cls-4" cx="118.85" cy="291.96" r="19.42"/><circle class="cls-4" cx="410.46" cy="291.96" r="19.42"/><circle class="cls-3" cx="118.42" cy="291.96" r="8.83"/><circle class="cls-3" cx="410.46" cy="291.96" r="8.83"/><path class="cls-5" d="M112.59,292a8.83,8.83,0,0,1,7.11-8.66,8.73,8.73,0,0,0-4.78.39,8.82,8.82,0,0,0,4.78,16.93A8.83,8.83,0,0,1,112.59,292Z"/><path class="cls-5" d="M404.9,292a8.83,8.83,0,0,1,7.11-8.66,8.73,8.73,0,0,0-4.78.39A8.82,8.82,0,0,0,412,300.62,8.83,8.83,0,0,1,404.9,292Z"/><path class="cls-6" d="M114.32,0H424.18a6.11,6.11,0,0,1,6,5c2.94,15.94,12.67,87.61,67.09,101.11,12.28,3,23.46-8.36,19.76-20.47a26.63,26.63,0,0,0-4-7.88,6,6,0,0,1-.21-6.85c1.86-2.75,5.26-4.67,10.86,2.17,9.53,11.65,11.65,46.6-13.77,50.84s-455.42,0-455.42,0H34.38S-4.8,126,.49,93.2C3.14,76.79,9.26,72,14.71,71.36c7.57-.92,9.32,10.48,1.87,12.07l-1.26.24c-13.23,2.28-2.44,29,9.65,25.42,16.79-4.92,60.27-17.34,83.45-104.54A6.12,6.12,0,0,1,114.32,0Z"/><rect class="cls-6" x="68.28" y="192.76" width="396.11" height="86.85"/><rect class="cls-6" x="68.28" y="115.44" width="11.65" height="88.97"/><rect class="cls-6" x="452.73" y="104.17" width="11.65" height="100.24"/><g class="cls-7"><path class="cls-8" d="M115.33,52.23A154.73,154.73,0,0,1,110,67a1.63,1.63,0,0,0,1.49,2.3h17.32a1.63,1.63,0,0,0,1.63-1.63v-.27a1.63,1.63,0,0,0-1.63-1.63H117.57A1.63,1.63,0,0,1,116,64a41.68,41.68,0,0,1,2.47-10.59,1.63,1.63,0,0,0-1.49-2.29h-.05A1.62,1.62,0,0,0,115.33,52.23Z"/><path class="cls-8" d="M145.3,52.23A154.73,154.73,0,0,1,140,67a1.63,1.63,0,0,0,1.49,2.3h17.32a1.63,1.63,0,0,0,1.63-1.63v-.27a1.63,1.63,0,0,0-1.63-1.63H147.54A1.63,1.63,0,0,1,145.93,64a41.68,41.68,0,0,1,2.47-10.59,1.63,1.63,0,0,0-1.49-2.29h-.05A1.62,1.62,0,0,0,145.3,52.23Z"/><path class="cls-8" d="M175.27,52.23A154.73,154.73,0,0,1,170,67a1.63,1.63,0,0,0,1.49,2.3h17.32a1.63,1.63,0,0,0,1.63-1.63v-.27a1.63,1.63,0,0,0-1.63-1.63H177.52A1.63,1.63,0,0,1,175.9,64a41.68,41.68,0,0,1,2.47-10.59,1.63,1.63,0,0,0-1.49-2.29h-.05A1.62,1.62,0,0,0,175.27,52.23Z"/><path class="cls-8" d="M205.25,52.23A154.73,154.73,0,0,1,200,67a1.63,1.63,0,0,0,1.49,2.3h17.32a1.63,1.63,0,0,0,1.63-1.63v-.27a1.63,1.63,0,0,0-1.63-1.63H207.49A1.63,1.63,0,0,1,205.87,64a41.68,41.68,0,0,1,2.47-10.59,1.63,1.63,0,0,0-1.49-2.29h-.05A1.62,1.62,0,0,0,205.25,52.23Z"/><path class="cls-8" d="M235.22,52.23A154.73,154.73,0,0,1,229.93,67a1.63,1.63,0,0,0,1.49,2.3h17.32a1.63,1.63,0,0,0,1.63-1.63v-.27a1.63,1.63,0,0,0-1.63-1.63H237.46A1.63,1.63,0,0,1,235.84,64a41.68,41.68,0,0,1,2.47-10.59,1.63,1.63,0,0,0-1.49-2.29h-.05A1.62,1.62,0,0,0,235.22,52.23Z"/><path class="cls-8" d="M92.76,78.68a154.73,154.73,0,0,1-5.29,14.78,1.63,1.63,0,0,0,1.49,2.3h17.32a1.63,1.63,0,0,0,1.63-1.63v-.27a1.63,1.63,0,0,0-1.63-1.63H95a1.63,1.63,0,0,1-1.62-1.81,41.68,41.68,0,0,1,2.47-10.59,1.63,1.63,0,0,0-1.49-2.29h-.05A1.62,1.62,0,0,0,92.76,78.68Z"/><path class="cls-8" d="M122.73,78.68a154.73,154.73,0,0,1-5.29,14.78,1.63,1.63,0,0,0,1.49,2.3h17.32a1.63,1.63,0,0,0,1.63-1.63v-.27a1.63,1.63,0,0,0-1.63-1.63H125a1.63,1.63,0,0,1-1.62-1.81,41.68,41.68,0,0,1,2.47-10.59,1.63,1.63,0,0,0-1.49-2.29h-.05A1.62,1.62,0,0,0,122.73,78.68Z"/><path class="cls-8" d="M152.7,78.68a154.73,154.73,0,0,1-5.29,14.78,1.63,1.63,0,0,0,1.49,2.3h17.32a1.63,1.63,0,0,0,1.63-1.63v-.27a1.63,1.63,0,0,0-1.63-1.63H154.95a1.63,1.63,0,0,1-1.62-1.81,41.68,41.68,0,0,1,2.47-10.59,1.63,1.63,0,0,0-1.49-2.29h-.05A1.62,1.62,0,0,0,152.7,78.68Z"/><path class="cls-8" d="M182.68,78.68a154.73,154.73,0,0,1-5.29,14.78,1.63,1.63,0,0,0,1.49,2.3h17.32a1.63,1.63,0,0,0,1.63-1.63v-.27a1.63,1.63,0,0,0-1.63-1.63H184.92a1.63,1.63,0,0,1-1.62-1.81,41.68,41.68,0,0,1,2.47-10.59,1.63,1.63,0,0,0-1.49-2.29h-.05A1.62,1.62,0,0,0,182.68,78.68Z"/><path class="cls-8" d="M212.65,78.68a154.73,154.73,0,0,1-5.29,14.78,1.63,1.63,0,0,0,1.49,2.3h17.32a1.63,1.63,0,0,0,1.63-1.63v-.27a1.63,1.63,0,0,0-1.63-1.63H214.89a1.63,1.63,0,0,1-1.62-1.81,41.68,41.68,0,0,1,2.47-10.59,1.63,1.63,0,0,0-1.49-2.29h-.05A1.62,1.62,0,0,0,212.65,78.68Z"/><path class="cls-8" d="M242.62,78.68a154.73,154.73,0,0,1-5.29,14.78,1.63,1.63,0,0,0,1.49,2.3h17.32a1.63,1.63,0,0,0,1.63-1.63v-.27a1.63,1.63,0,0,0-1.63-1.63H244.86a1.63,1.63,0,0,1-1.62-1.81,41.68,41.68,0,0,1,2.47-10.59,1.63,1.63,0,0,0-1.49-2.29h-.05A1.62,1.62,0,0,0,242.62,78.68Z"/><path class="cls-8" d="M272.6,78.68a154.73,154.73,0,0,1-5.29,14.78,1.63,1.63,0,0,0,1.49,2.3h17.32a1.63,1.63,0,0,0,1.63-1.63v-.27a1.63,1.63,0,0,0-1.63-1.63H274.84a1.63,1.63,0,0,1-1.62-1.81,41.68,41.68,0,0,1,2.47-10.59,1.63,1.63,0,0,0-1.49-2.29h-.05A1.62,1.62,0,0,0,272.6,78.68Z"/><path class="cls-8" d="M266.71,52.23A154.73,154.73,0,0,1,261.42,67a1.63,1.63,0,0,0,1.49,2.3h17.32a1.63,1.63,0,0,0,1.63-1.63v-.27a1.63,1.63,0,0,0-1.63-1.63H269A1.63,1.63,0,0,1,267.34,64a41.68,41.68,0,0,1,2.47-10.59,1.63,1.63,0,0,0-1.49-2.29h-.05A1.62,1.62,0,0,0,266.71,52.23Z"/><path class="cls-8" d="M296.69,52.23A154.73,154.73,0,0,1,291.4,67a1.63,1.63,0,0,0,1.49,2.3H310.2a1.63,1.63,0,0,0,1.63-1.63v-.27a1.63,1.63,0,0,0-1.63-1.63H298.93A1.63,1.63,0,0,1,297.31,64a41.68,41.68,0,0,1,2.47-10.59,1.63,1.63,0,0,0-1.49-2.29h-.05A1.62,1.62,0,0,0,296.69,52.23Z"/><path class="cls-8" d="M326.66,52.23A154.73,154.73,0,0,1,321.37,67a1.63,1.63,0,0,0,1.49,2.3h17.32a1.63,1.63,0,0,0,1.63-1.63v-.27a1.63,1.63,0,0,0-1.63-1.63H328.9A1.63,1.63,0,0,1,327.28,64a41.68,41.68,0,0,1,2.47-10.59,1.63,1.63,0,0,0-1.49-2.29h-.05A1.62,1.62,0,0,0,326.66,52.23Z"/><path class="cls-8" d="M356.63,52.23A154.73,154.73,0,0,1,351.34,67a1.63,1.63,0,0,0,1.49,2.3h17.32a1.63,1.63,0,0,0,1.63-1.63v-.27a1.63,1.63,0,0,0-1.63-1.63H358.88A1.63,1.63,0,0,1,357.26,64a41.68,41.68,0,0,1,2.47-10.59,1.63,1.63,0,0,0-1.49-2.29h-.05A1.62,1.62,0,0,0,356.63,52.23Z"/><path class="cls-8" d="M386.9,52.23A154.73,154.73,0,0,1,381.6,67a1.63,1.63,0,0,0,1.49,2.3h17.32A1.63,1.63,0,0,0,402,67.68v-.27a1.63,1.63,0,0,0-1.63-1.63H389.14A1.63,1.63,0,0,1,387.52,64,41.68,41.68,0,0,1,390,53.38a1.63,1.63,0,0,0-1.49-2.29h-.05A1.62,1.62,0,0,0,386.9,52.23Z"/><path class="cls-8" d="M416.87,52.23A154.73,154.73,0,0,1,411.58,67a1.63,1.63,0,0,0,1.49,2.3h17.32A1.63,1.63,0,0,0,432,67.68v-.27a1.63,1.63,0,0,0-1.63-1.63H419.11A1.63,1.63,0,0,1,417.49,64,41.68,41.68,0,0,1,420,53.38a1.63,1.63,0,0,0-1.49-2.29h-.05A1.62,1.62,0,0,0,416.87,52.23Z"/><path class="cls-8" d="M126.42,25.76a154.73,154.73,0,0,1-5.29,14.78,1.63,1.63,0,0,0,1.49,2.3h17.32a1.63,1.63,0,0,0,1.63-1.63v-.27a1.63,1.63,0,0,0-1.63-1.63H128.66A1.63,1.63,0,0,1,127,37.5a41.68,41.68,0,0,1,2.47-10.59A1.63,1.63,0,0,0,128,24.62H128A1.62,1.62,0,0,0,126.42,25.76Z"/><path class="cls-8" d="M156.39,25.76a154.73,154.73,0,0,1-5.29,14.78,1.63,1.63,0,0,0,1.49,2.3H169.9a1.63,1.63,0,0,0,1.63-1.63v-.27a1.63,1.63,0,0,0-1.63-1.63H158.63A1.63,1.63,0,0,1,157,37.5a41.68,41.68,0,0,1,2.47-10.59A1.63,1.63,0,0,0,158,24.62h-.05A1.62,1.62,0,0,0,156.39,25.76Z"/><path class="cls-8" d="M186.36,25.76a154.73,154.73,0,0,1-5.29,14.78,1.63,1.63,0,0,0,1.49,2.3h17.32a1.63,1.63,0,0,0,1.63-1.63v-.27a1.63,1.63,0,0,0-1.63-1.63H188.61A1.63,1.63,0,0,1,187,37.5a41.68,41.68,0,0,1,2.47-10.59A1.63,1.63,0,0,0,188,24.62h-.05A1.62,1.62,0,0,0,186.36,25.76Z"/><path class="cls-8" d="M216.34,25.76A154.73,154.73,0,0,1,211,40.54a1.63,1.63,0,0,0,1.49,2.3h17.32a1.63,1.63,0,0,0,1.63-1.63v-.27a1.63,1.63,0,0,0-1.63-1.63H218.58A1.63,1.63,0,0,1,217,37.5a41.68,41.68,0,0,1,2.47-10.59,1.63,1.63,0,0,0-1.49-2.29h-.05A1.62,1.62,0,0,0,216.34,25.76Z"/><path class="cls-8" d="M246.31,25.76A154.73,154.73,0,0,1,241,40.54a1.63,1.63,0,0,0,1.49,2.3h17.32a1.63,1.63,0,0,0,1.63-1.63v-.27a1.63,1.63,0,0,0-1.63-1.63H248.55a1.63,1.63,0,0,1-1.62-1.81,41.68,41.68,0,0,1,2.47-10.59,1.63,1.63,0,0,0-1.49-2.29h-.05A1.62,1.62,0,0,0,246.31,25.76Z"/><path class="cls-8" d="M281,25.76a154.73,154.73,0,0,1-5.29,14.78,1.63,1.63,0,0,0,1.49,2.3h17.32a1.63,1.63,0,0,0,1.63-1.63v-.27a1.63,1.63,0,0,0-1.63-1.63H283.22a1.63,1.63,0,0,1-1.62-1.81,41.68,41.68,0,0,1,2.47-10.59,1.63,1.63,0,0,0-1.49-2.29h-.05A1.62,1.62,0,0,0,281,25.76Z"/><path class="cls-8" d="M311,25.76a154.73,154.73,0,0,1-5.29,14.78,1.63,1.63,0,0,0,1.49,2.3h17.32a1.63,1.63,0,0,0,1.63-1.63v-.27a1.63,1.63,0,0,0-1.63-1.63H313.2a1.63,1.63,0,0,1-1.62-1.81A41.68,41.68,0,0,1,314,26.91a1.63,1.63,0,0,0-1.49-2.29h-.05A1.62,1.62,0,0,0,311,25.76Z"/><path class="cls-8" d="M340.93,25.76a154.73,154.73,0,0,1-5.29,14.78,1.63,1.63,0,0,0,1.49,2.3h17.32a1.63,1.63,0,0,0,1.63-1.63v-.27a1.63,1.63,0,0,0-1.63-1.63H343.17a1.63,1.63,0,0,1-1.62-1.81A41.68,41.68,0,0,1,344,26.91a1.63,1.63,0,0,0-1.49-2.29h-.05A1.62,1.62,0,0,0,340.93,25.76Z"/><path class="cls-8" d="M370.9,25.76a154.73,154.73,0,0,1-5.29,14.78,1.63,1.63,0,0,0,1.49,2.3h17.32A1.63,1.63,0,0,0,386,41.21v-.27a1.63,1.63,0,0,0-1.63-1.63H373.14a1.63,1.63,0,0,1-1.62-1.81A41.68,41.68,0,0,1,374,26.91a1.63,1.63,0,0,0-1.49-2.29h-.05A1.62,1.62,0,0,0,370.9,25.76Z"/><path class="cls-8" d="M401.16,25.76a154.73,154.73,0,0,1-5.29,14.78,1.63,1.63,0,0,0,1.49,2.3h17.32a1.63,1.63,0,0,0,1.63-1.63v-.27a1.63,1.63,0,0,0-1.63-1.63H403.41a1.63,1.63,0,0,1-1.62-1.81,41.68,41.68,0,0,1,2.47-10.59,1.63,1.63,0,0,0-1.49-2.29h-.05A1.62,1.62,0,0,0,401.16,25.76Z"/><path class="cls-8" d="M305.61,78.68a154.73,154.73,0,0,1-5.29,14.78,1.63,1.63,0,0,0,1.49,2.3h17.32a1.63,1.63,0,0,0,1.63-1.63v-.27a1.63,1.63,0,0,0-1.63-1.63H307.85a1.63,1.63,0,0,1-1.62-1.81,41.68,41.68,0,0,1,2.47-10.59,1.63,1.63,0,0,0-1.49-2.29h-.05A1.62,1.62,0,0,0,305.61,78.68Z"/><path class="cls-8" d="M335.58,78.68a154.73,154.73,0,0,1-5.29,14.78,1.63,1.63,0,0,0,1.49,2.3H349.1a1.63,1.63,0,0,0,1.63-1.63v-.27a1.63,1.63,0,0,0-1.63-1.63H337.83a1.63,1.63,0,0,1-1.62-1.81,41.68,41.68,0,0,1,2.47-10.59,1.63,1.63,0,0,0-1.49-2.29h-.05A1.62,1.62,0,0,0,335.58,78.68Z"/><path class="cls-8" d="M365.56,78.68a154.73,154.73,0,0,1-5.29,14.78,1.63,1.63,0,0,0,1.49,2.3h17.32a1.63,1.63,0,0,0,1.63-1.63v-.27a1.63,1.63,0,0,0-1.63-1.63H367.8a1.63,1.63,0,0,1-1.62-1.81,41.68,41.68,0,0,1,2.47-10.59,1.63,1.63,0,0,0-1.49-2.29h-.05A1.62,1.62,0,0,0,365.56,78.68Z"/><path class="cls-8" d="M395.53,78.68a154.73,154.73,0,0,1-5.29,14.78,1.63,1.63,0,0,0,1.49,2.3H409a1.63,1.63,0,0,0,1.63-1.63v-.27A1.63,1.63,0,0,0,409,92.23H397.77a1.63,1.63,0,0,1-1.62-1.81,41.68,41.68,0,0,1,2.47-10.59,1.63,1.63,0,0,0-1.49-2.29h-.05A1.62,1.62,0,0,0,395.53,78.68Z"/><path class="cls-8" d="M425.5,78.68a154.73,154.73,0,0,1-5.29,14.78,1.63,1.63,0,0,0,1.49,2.3H439a1.63,1.63,0,0,0,1.63-1.63v-.27A1.63,1.63,0,0,0,439,92.23H427.75a1.63,1.63,0,0,1-1.62-1.81,41.68,41.68,0,0,1,2.47-10.59,1.63,1.63,0,0,0-1.49-2.29h-.05A1.62,1.62,0,0,0,425.5,78.68Z"/></g><path class="cls-9" d="M167.5,230.41s4.42,9.69,20,9.69h154s14.79-4.62,14.79-14v-33h-36Z"/><rect class="cls-10" x="174.15" y="175.81" width="174.25" height="57.9" rx="12" ry="12"/><rect class="cls-11" x="164.04" y="175.81" width="174.25" height="57.9" rx="12" ry="12"/><rect class="cls-12" x="171.53" y="182.7" width="160.99" height="43.42" rx="6.67" ry="6.67"/><polygon class="cls-13" points="464.38 192.76 492.98 172.63 492.98 251.01 464.38 279.61 464.38 192.76"/></g></g></svg>