<svg xmlns="http://www.w3.org/2000/svg" viewBox="0 0 1176.07 48.3"><defs><style>.cls-1{fill:#a0bcec;}.cls-2{fill:#b3d6ff;}</style></defs><title>water lightblueAsset 5</title><g id="Layer_2" data-name="Layer 2"><g id="page_1" data-name="page 1"><path class="cls-1" d="M1175.69,48.3v-27c-36-2.16-42.37-21.3-42.37-21.3-63.29,38.54-109,0-109,0C958.82,48.6,913,0,913,0,860.65,45.25,795.2,0,795.2,0,716.63,50.27,681.72,0,681.72,0,620.61,50.27,577,0,577,0,500.58,55.3,450.37,0,450.37,0,367.44,55.3,321.58,0,321.58,0,243,57,184,0,184,0,64,51.95,29,0,29,0L23,7.58,0,48.3Z"/><path class="cls-2" d="M184.74,11.24s22.24,26.24,54,22C238.76,33.2,181.57,45,184.74,11.24Z"/><path class="cls-2" d="M321.37,11.24s22.24,26.24,54,22C375.38,33.2,318.19,45,321.37,11.24Z"/><path class="cls-2" d="M448.46,11.24s22.24,26.24,54,22C502.48,33.2,445.28,45,448.46,11.24Z"/><path class="cls-2" d="M578.73,11.24s22.24,26.24,54,22C632.75,33.2,575.56,45,578.73,11.24Z"/><path class="cls-2" d="M681.47,11.24s22.24,26.24,54,22C735.48,33.2,678.29,45,681.47,11.24Z"/><path class="cls-2" d="M795.85,11.24s22.24,26.24,54,22C849.86,33.2,792.67,45,795.85,11.24Z"/><path class="cls-2" d="M914.47,11.24s22.24,26.24,54,22C968.48,33.2,911.29,45,914.47,11.24Z"/><path class="cls-2" d="M1027.79,11.24s22.24,26.24,54,22C1081.81,33.2,1024.62,45,1027.79,11.24Z"/><path class="cls-2" d="M1122.06,11.24s22.24,26.24,54,22C1176.07,33.2,1118.88,45,1122.06,11.24Z"/></g></g></svg>