<svg xmlns="http://www.w3.org/2000/svg" viewBox="0 0 1155.22 95.81"><defs><style>.cls-1{fill:#567499;}.cls-2{fill:#6586a8;}</style></defs><title>dark waterAsset 6</title><g id="Layer_2" data-name="Layer 2"><g id="page_1" data-name="page 1"><path class="cls-1" d="M1153.1,95.78a8.19,8.19,0,0,1,2.12,0V30.05c-35-3-41.31-30.05-41.31-30.05C1052.48,54.37,1008,0,1008,0,944.45,68.55,900,0,900,0,849.13,63.82,785.58,0,785.58,0,709.33,70.92,675.43,0,675.43,0,616.12,70.92,573.75,0,573.75,0,499.61,78,450.88,0,450.88,0c-80.49,78-125,0-125,0-76.26,80.37-133.5,0-133.5,0C75.88,73.28,41.88,0,41.88,0L0,73.66,6,66.4s35,51.95,155.06,0c0,0,59,57,137.55,0,0,0,45.86,55.3,128.79,0,0,0,50.21,55.3,126.6,0,0,0,43.66,50.27,104.76,0,0,0,34.92,50.27,113.49,0,0,0,65.48,45.25,117.85,0,0,0,45.83,48.6,111.31,0,0,0,45.83,38.54,109.12,0,0,0,6.55,19.15,42.56,21.3Z"/><path class="cls-2" d="M672.26,16.06s-24.36,25.7-43.42,23.56C628.84,39.63,642.61,61,672.26,16.06Z"/><path class="cls-2" d="M567.41,16.06S543.05,41.77,524,39.63C524,39.63,537.76,61,567.41,16.06Z"/><path class="cls-2" d="M446.67,16.06s-24.36,25.7-43.42,23.56C403.25,39.63,417,61,446.67,16.06Z"/><path class="cls-2" d="M324.87,16.06s-24.36,25.7-43.42,23.56C281.45,39.63,295.22,61,324.87,16.06Z"/><path class="cls-2" d="M188.25,9.64s-24.36,25.7-43.42,23.56C144.83,33.2,158.59,54.62,188.25,9.64Z"/><path class="cls-2" d="M783.47,16.06S759.11,41.77,740,39.63C740,39.63,753.81,61,783.47,16.06Z"/><path class="cls-2" d="M894.68,16.06s-24.36,25.7-43.42,23.56C851.25,39.63,865,61,894.68,16.06Z"/><path class="cls-2" d="M1005.88,16.06s-24.36,25.7-43.42,23.56C962.46,39.63,976.23,61,1005.88,16.06Z"/><path class="cls-2" d="M1117.09,16.06s-24.36,25.7-43.42,23.56C1073.66,39.63,1087.43,61,1117.09,16.06Z"/></g></g></svg>