<svg xmlns="http://www.w3.org/2000/svg" viewBox="0 0 689 744"><defs><style>.cls-1{isolation:isolate;}.cls-2,.cls-5{fill:#2c103a;}.cls-3{fill:#5f2c84;}.cls-4{fill:#4f206b;}.cls-5{opacity:0.23;}.cls-6{fill:#290f36;}.cls-7{fill:#7641a3;}.cls-8{fill:#1a0923;}.cls-9{fill:#d13434;}.cls-10{fill:#772020;}.cls-11{fill:#fff;}.cls-12{fill:#421111;opacity:0.21;mix-blend-mode:darken;}.cls-13{fill:#ff8039;opacity:0.68;}</style></defs><title>dragon towerAsset 7</title><g class="cls-1"><g id="Layer_2" data-name="Layer 2"><g id="page_1" data-name="page 1"><path class="cls-2" d="M319.28.26s-49,83.92-140,114.48v25.42s22.17-5.92,31.91-9.53S221.26,127,221.26,127V744h209V113.68s.72,7.32,16.36,9.53l15.64,2.22V95.68S357.3,83.19,319.28.26Z"/><polygon class="cls-2" points="319.47 0 265.46 0 245.34 172.01 239.91 719.93 333.24 719.11 351.25 86.07 319.47 0"/><polygon class="cls-3" points="408.26 96 462.26 96 462.26 125.33 408.26 125.43 408.26 96"/><path class="cls-4" d="M408.44,125.43s-24.36,2-39.19-7.51,5.83-10.59,5.83-10.59Z"/><path class="cls-4" d="M265.17.26S223.26,73,143.26,107.7V135a122.34,122.34,0,0,0,13.8-4.33c9.74-3.61,10.2-3.61,10.2-3.61V744h209V113.68s.72,7.32,16.36,9.53l15.64,2.22V95.68S303.19,83.19,265.17.26Z"/><path class="cls-5" d="M167.14,139.63l-.88-12.18V110.51L266.41,31.07l114.85,79.48V137s-80.58-26.43-115.67-73.09C265.59,63.89,231.75,113.15,167.14,139.63Z"/><rect class="cls-6" x="251.96" y="99.92" width="14.3" height="30.71"/><rect class="cls-6" x="276.05" y="99.92" width="14.3" height="30.71"/><rect class="cls-5" x="166.96" y="159.23" width="209.7" height="2.12"/><rect class="cls-5" x="166.96" y="138.57" width="209.7" height="2.12"/><rect class="cls-5" x="166.96" y="117.92" width="209.7" height="2.12"/><path class="cls-5" d="M360.5,97.27H167v2.12H362.73Q361.61,98.34,360.5,97.27Z"/><path class="cls-5" d="M326.47,76.62H213.9a8.05,8.05,0,0,1-1.2,2.12h114A9.33,9.33,0,0,1,326.47,76.62Z"/><rect class="cls-5" x="166.96" y="183.59" width="209.7" height="2.12"/><rect class="cls-5" x="166.96" y="207.94" width="209.7" height="2.12"/><rect class="cls-5" x="166.96" y="232.3" width="209.7" height="2.12"/><rect class="cls-5" x="166.96" y="256.66" width="209.7" height="2.12"/><rect class="cls-5" x="166.96" y="281.02" width="209.7" height="2.12"/><rect class="cls-5" x="166.96" y="305.38" width="209.7" height="2.12"/><rect class="cls-5" x="166.96" y="329.74" width="209.7" height="2.12"/><rect class="cls-5" x="166.96" y="354.1" width="209.7" height="2.12"/><rect class="cls-5" x="166.96" y="378.46" width="209.7" height="2.12"/><rect class="cls-5" x="166.96" y="402.82" width="209.7" height="2.12"/><rect class="cls-5" x="166.96" y="427.18" width="209.7" height="2.12"/><rect class="cls-5" x="166.96" y="451.54" width="209.7" height="2.12"/><rect class="cls-5" x="166.96" y="475.9" width="209.7" height="2.12"/><rect class="cls-5" x="166.96" y="500.26" width="209.7" height="2.12"/><rect class="cls-5" x="166.96" y="524.62" width="209.7" height="2.12"/><rect class="cls-5" x="166.96" y="548.98" width="209.7" height="2.12"/><rect class="cls-5" x="166.96" y="573.34" width="209.7" height="2.12"/><rect class="cls-5" x="166.96" y="597.7" width="209.7" height="2.12"/><rect class="cls-5" x="166.96" y="622.06" width="209.7" height="2.12"/><rect class="cls-5" x="166.96" y="646.42" width="209.7" height="2.12"/><rect class="cls-5" x="166.96" y="670.78" width="209.7" height="2.12"/><path class="cls-7" d="M408.44,95.68S309.75,85.95,265.26.26c0,0-44,75-122,107.44V135s66.39-13.86,119.35-90.64c0,0,72.12,83.34,145.73,81.12"/><rect class="cls-7" x="157.46" y="349.87" width="228.71" height="33.19"/><polygon class="cls-3" points="385.72 350.04 444.26 335.04 444.26 366.81 386.03 383.05 385.72 350.04"/><polygon class="cls-8" points="376.67 349.85 430.68 335 444.45 335 385.81 350.01 376.67 349.85"/><polygon class="cls-8" points="157.46 350 167.26 343.25 167.26 350 157.46 350"/><path class="cls-2" d="M259.67,231.1h3.72a31.5,31.5,0,0,1,31.5,31.5v68.9a0,0,0,0,1,0,0H228.17a0,0,0,0,1,0,0V262.6A31.5,31.5,0,0,1,259.67,231.1Z"/><path class="cls-3" d="M270.58,231.1h3.72a31.5,31.5,0,0,1,31.5,31.5v68.9a0,0,0,0,1,0,0H239.08a0,0,0,0,1,0,0V262.6a31.5,31.5,0,0,1,31.5-31.5Z"/><path class="cls-9" d="M191.75,261.13s17.58,9.16,5.93,44.71c0,0,3.37-17.38-8.11-13.69s-4.6,2.11-4.6,2.11,13.59,8.47,7.33,20.65-12.62,14.83-12.62,14.83S178.61,301.1,167,314.36s-9.5,10.09-9.5,10.09,11.09-7.94,13.21,2.12l2.12,10.06s-10.58-21-22.77,5.91-36.54-2.21-36.54-2.21L167,273.26Z"/><path class="cls-10" d="M37.73,349.95l7.6-6.66L77.4,305.4l91-46.61,16.86,10.05v18.53s-9.21,17.07-18.15,19.06-29.2,44.91-31.32,65.62S104,409.18,72.21,408.65s-57.39-4.9-55.62-18.53S37.73,349.95,37.73,349.95Z"/><path class="cls-11" d="M13.85,307.8s-.76,24.47,6.86,35.13c0,0,2.8-25.35,7.68-25.77,0,0,4.55,15.46,6,20.58s1.4,5.12,1.4,5.12,2.05-.41,4-8.78,2.78-14.12,5.75-13.85,3.38,11.47,4,16,1.72,11,5.3,1.38,4.2-16.25,5.49-16.16,2.89,9.23,4.73,14.65,2.32,8.1,7.18-4.88,4.4-9,5.44-4.72,3,15,3,15,3.84,2.8,6-8.39l2.2-11.2s2.66,9.1,3.68,13.67l1,4.57s1.19,2.95,4.15-8.24l3-11.19a45,45,0,0,1,3.1,14.21l.39,8s5.95-4.42,9.56-18.79,3.71-12,3.71-12a101,101,0,0,1,1.59,16.27l0,7.69s10.08-17.49,10.65-23.38l.57-5.89s3.8,1.25,4.22,5l.42,3.74,3-17.64,3.3,9.43,2.08-17.3,3.81,12.53,1.31-22L154,293.81l1.14-19.19L150,268.74,56.28,299.58S15.11,296.39,13.85,307.8Z"/><path class="cls-9" d="M15.92,176.77a31.63,31.63,0,0,1,3.82,18.83,37.81,37.81,0,0,0,3.88,20.12S5.11,222,17.72,255c0,0-17.39,8.34-8.57,34.11,0,0-13.42-1.06-7.77,16.24s36.72,16.95,54.37,17.3,66,1.41,86.14-13.06,28.6-36.36,28.6-36.36,12.71-9.69,11.65,3.8S165.93,301.5,162.21,304,143,326.92,137,356.22s-12.36,29.3-43.42,34.6S26.81,396.47,24,388.35s1.77-17.65,6.35-23.65,15.12-21.45,15.12-21.45-17.87,13.62-27.13,33.23c0,0-11.65,23.52.71,35.17s11.65,9.89,12.36,13.77,43.51,1.46,59.71-1.74,42-7.47,44.09-15.56,2.82-42.63,12.71-61.56,21.54-38.25,30-44.48,20.3-13.38,16.59-33.23-20.39-12.18-20.39-12.18,25.42-4.52,30.45-25.56c0,0-14.56,15-28.86,12.59,0,0,17.74-1.85,19.59-29.92,0,0-1.06-6.62-4.5,1.85s-13,13.5-21.71,13.5c0,0,20.39-18.27,6.88-54,0,0-3.18-1.59-1.85,8.21s-9.53,26.21-21.45,24.62-15.77-8.47-25.36-6.09c0,0-7-10.34-30.38-8.87s-28.19,8.61-35.08,13.11-4.5,3.46-9.27,3.07S41,208,39.4,208H37.75S37.52,173.63,15.92,176.77Z"/><path class="cls-11" d="M31.4,360.23l-1.77-14.87s-3.56,10.91-2.47,14.87l1.09,4S24,359,23.48,354.78l-.56-4.2s-4.26,17.12-1.25,23.6l3,6.48s2.9-12.26,8.13-17.65,3.06-6.79,3.06-6.79l-2-7.5Z"/><path class="cls-11" d="M19.54,392.94s1.8-13.07,6.47-19.7,4.67-6.54,4.67-6.54a90.29,90.29,0,0,0,1.44,18.46c1.79,8.84,4.67,12.54,4.67,12.54l9.69-21.4,8.25,21.42s6.46-12.15,6.82-14.73,2.15-9.41,5.38.09a139.83,139.83,0,0,1,4.31,14.65l6.46-16.8s3.23-11.66,6.82-4.61a73.3,73.3,0,0,1,5.38,15.15l5.74-18s2.87-2.21,6.1,5.89,4.66,11.78,4.66,11.78l9-26.43s3.59-1.19,6.46,7.65l2.87,8.84,1.89-28,7.67,11.5V342.12l4.37,7.64,2.72-16.48,4.42,3.05s2.29-17.41,2.64-20.73a18.17,18.17,0,0,0,.27-3.31s4.58,6.26,4.58,7.73v1.1l3.48-18.71,3.37,5.45,1.07-16.28,6.08,8.37v-16.4l8.5,6.79,2.1-17.1,1.76,8.1s1.43,7-12.56,22.83-22.81,28.36-28.09,49-8.72,34.25-38.22,40.88S25.26,405,19.54,392.94Z"/><path class="cls-10" d="M16.48,293s2,8.47,10.91,8.47,18.71-6.71,18.06-11.3-.65-15.53-15.12-16.59S15.61,290.77,16.48,293Z"/><path class="cls-10" d="M97.06,285.53s-.35,13.85,9.89,15.26S124.6,296.56,124.6,287,104.83,263.21,97.06,285.53Z"/><path class="cls-11" d="M101.3,249.78s1.32-9.8,4.77-12.44c0,0-3.08,12.44,7.73,12.44s17-3.71,15.89-16.42a20.14,20.14,0,0,1,2.07,10.86c-.53,6.35-12.44,10.33-17.21,9S103.95,247.66,101.3,249.78Z"/><path class="cls-11" d="M36.31,234.42a33.76,33.76,0,0,1,9.18,9L49,248.9s.59,5.3-3.59,3.53-6.35,0-9.15,1.06S24.13,257,21.76,256.66,44.41,257.37,36.31,234.42Z"/><path class="cls-11" d="M16.48,232.3s-1.81,14.07-.29,18.4C16.2,250.7,10.75,229.48,16.48,232.3Z"/><path class="cls-9" d="M165.2,316s13.42-1.06,7.59,20.65c0,0-5.45-12.72-13.58-10.33S165.2,316,165.2,316Z"/><path class="cls-9" d="M185,294.26s11.3-4.91,12.71,11.58c0,0,5.8-20.58-2.92-24.82S185,294.26,185,294.26Z"/><path class="cls-9" d="M165.2,316s14.47-8.12,14.47,13.77c0,0,1.41-25-1.77-27.66S165.2,316,165.2,316Z"/><path class="cls-9" d="M167,329.74s-8.91,0-10.28,10.59-14.88,66-23.32,70.63-3.68-18.73-3.68-18.73l6.93-25.77s14.53-38.13,20.85-42S167,329.74,167,329.74Z"/><path class="cls-9" d="M28.46,420.34s5.41,13.19,11.41,16l6,2.82s-10.94-9.89,4.59-12S48,411.57,48,411.57Z"/><path class="cls-9" d="M126.66,408.46s0,13.68-3.08,17.47l-3.11,3.8s4.41-11.48-6.17-10.74-2.58-15.48-2.58-15.48Z"/><path class="cls-9" d="M200.53,508.27C267,487.79,428.8,439,480.26,353h0c17.33-31,28.09-70.62,19.11-103.86-15.89-58.78-69.07-68.73-69.07-68.73v77.31a3.88,3.88,0,0,0,.92-.08c2.38,12.55,6.68,60.67-58.5,95.4-75.55,40.25-117.16,66.37-178.58,79.43S84.83,482.56,85.54,552.16s81.73,81.55,81.73,81.55V559.57S134,528.75,200.53,508.27Z"/><path class="cls-9" d="M138.66,456.84s61.21-27.85,97.77-40.22S366.78,380.23,436,285.26c0,0,38.24-32.13,41-22.24s-43.06,107.68-43.06,107.68L176.85,479.08l-32.13,12.74Z"/><path class="cls-12" d="M487.54,221.51s-20.84-31.06-33-23.1,13.81,33.66,16.42,43c6.06,21.64,5.3,74.39-21.32,112.73C420.53,396,341.35,434,283.2,460.15c0,0-190.24,45.37-116.24,99.41,0,0-17.2-22.38,2.14-36.27,23.3-16.73,119-38.57,159.9-60.52,40.77-21.85,126.39-49.36,158.54-126.15C487.54,336.63,522.17,279.56,487.54,221.51Z"/><path class="cls-13" d="M129.16,501.12c-6.17-4.53-11.51-9.77-8.09-16.63C125.59,475.42,134,466.62,149,471c27.89,8.1,30.59,36.7,30.59,36.7S167.16,472.85,167,463.19c-.26-13.24,16.95-26.48,29.66-19.06s19.06,43.46,19.06,43.46.53-17.51,0-36c-.49-17.07,10.47-37.73,24.3-27.87s26.27,48.78,26.27,48.78,1-19.86-1.85-34c-2.62-13.13-8.44-29.74,10.61-26.84s30.71,35.73,32.88,40c3.12,6.09,6-5.3,0-27.87-4.72-17.66-3.24-30.69,13.71-28.95s28.6,41.72,28.6,41.72-.79-29.39-3.66-41.72S346,370.95,364,372.06s27.15,42.41,27.15,42.41-.66-19-4.45-36C383,362,381.92,343,398.36,345.36S428,383.05,428,383.05s.14-22.24-7.61-33S417.67,327,436,326.3,459.81,359,459.81,359s3.71-22.74-10.06-35.56S441.12,303,460.26,301s27.61,29.79,27.61,29.79,1.59-36.1-28.07-41.88S456.56,257.72,477,263s23.46,14,23.46,14,1.07-21.47-19.52-23.58-46-4.83-31.18-15.65S491,231.1,491,231.1s-20.12-17.86-31.24-13.63-12.18,0-10.06-12.7,1.4-15.62,1.4-15.62l-20.46,18.79v49.78l-.75,31.48S392.3,340.77,359.59,358s-53.26,37.38-174.31,71.27C68.63,462,66.85,570.78,102.28,597.7c.6.46,5.86,8,5.43,7.36-6-9-7.48-38.43,5.23-50.08,14.72-13.49,18.61-13.42,39-6,0,0-31-11.65-44.78-19.59-11-6.35-.17-30.2,21.22-19.61s28,12.72,28,12.72S143.85,511.91,129.16,501.12Z"/><path class="cls-9" d="M430.26,551.1s24.22-31.07,62.34-26.48S609.21,594.87,689,549c0,0-15.69,63.55-137.13,37.42s-121.6,36.72-121.6,36.72Z"/><path class="cls-13" d="M430.26,551.1s17.26-24.93,54.63-26.94,66.51,26.4,94.57,32.91,44,8,44,8-31.09-2-36,3.66-4.93,5.65-4.93,5.65-7.76-25.42-22.59-16.95l-14.82,8.47s6.36-21.89-21.18-29.66-23.43,24.36-23.43,24.36-12.58-39.89-38-27.18-13.06,35.3-13.06,35.3-19.13-3.53-19.13,16.95Z"/><path class="cls-12" d="M664.53,578.69c6.48-3.8,11.78-9.72,17-15.2a89.15,89.15,0,0,0,3-8.72c-37.89,43.5-124.7,25.67-124.7,25.67-89-38.13-129.21,5.25-129.21,5.25v37.42c15.89-60.37,84-42.67,177.1-30.43l3.1.38a6.29,6.29,0,0,1,3.38-.65c9.88.94,19.27-2.67,28.45-5.86,6.49-2.26,13.12-4.11,19.69-6.12A8.52,8.52,0,0,1,664.53,578.69Z"/></g></g></g></svg>