<svg id="Layer_1" data-name="Layer 1" xmlns="http://www.w3.org/2000/svg" viewBox="0 0 1168.54 905.75"><defs><style>.cls-1{fill:#a4d6ff;}</style></defs><title>bluecloudssite artboards</title><path class="cls-1" d="M1146.91,738a19.29,19.29,0,0,0,1.15-6.58,19.05,19.05,0,0,0-23.91-18.4,23.68,23.68,0,0,0-45.71,4.26,23.76,23.76,0,0,0-26.55,13.28,27.28,27.28,0,0,0-38,23.14,20.36,20.36,0,0,0-17.52-9.76A20.67,20.67,0,0,0,976,762h194.16A24.77,24.77,0,0,0,1146.91,738Z" transform="translate(-603.46 -174.25)"/><path class="cls-1" d="M622.89,1061.83a13.38,13.38,0,0,1-1-5c0-7.94,7.1-14.4,15.86-14.4a17.42,17.42,0,0,1,4.1.48c2.72-6.95,10-11.93,18.62-11.93,9.88,0,18.06,6.57,19.53,15.15a21.89,21.89,0,0,1,4.14-.4c8,0,14.87,4.28,18,10.44a24.71,24.71,0,0,1,9-1.69c12,0,21.89,8.48,22.71,19.2a17.43,17.43,0,0,1,14.62-7.39c8.73,0,15.92,6.12,17,13.68H603.46C603.83,1070.16,612.28,1062.41,622.89,1061.83Z" transform="translate(-603.46 -174.25)"/><path class="cls-1" d="M1755,204.23a14.7,14.7,0,0,0,.84-4.91,14,14,0,0,0-17.48-13.53,17.31,17.31,0,0,0-33.42,3.1,17.36,17.36,0,0,0-19.41,9.7,19.94,19.94,0,0,0-27.81,16.92A15.07,15.07,0,0,0,1630,222h142A18,18,0,0,0,1755,204.23Z" transform="translate(-603.46 -174.25)"/></svg>