<svg id="Layer_1" data-name="Layer 1" xmlns="http://www.w3.org/2000/svg" xmlns:xlink="http://www.w3.org/1999/xlink" viewBox="0 0 678.2 855.02"><defs><style>.cls-1{fill:none;}.cls-2{fill:#5d5f60;}.cls-3{fill:#a9e0ff;}.cls-4{fill:#fff7c6;}.cls-5{opacity:0.63;}.cls-6{clip-path:url(#clip-path);}.cls-7{fill:#333;}.cls-8{fill:#fff;}.cls-9{opacity:0.73;}.cls-10{clip-path:url(#clip-path-2);}.cls-11,.cls-19{fill:#3d3d3d;}.cls-12{fill:#69d1ff;}.cls-13{fill:#6394c6;}.cls-14{fill:#565656;}.cls-15{clip-path:url(#clip-path-3);}.cls-16{clip-path:url(#clip-path-4);}.cls-17{clip-path:url(#clip-path-5);}.cls-18{clip-path:url(#clip-path-6);}.cls-19{opacity:0.39;}</style><clipPath id="clip-path" transform="translate(-59.99 -3.16)"><polygon class="cls-1" points="751.24 118.47 630.78 121.49 628.05 -12.03 748.52 -15.05 751.24 118.47"/></clipPath><clipPath id="clip-path-2" transform="translate(-59.99 -3.16)"><path class="cls-1" d="M54.69,185S75.57,196,116,196H486.63s247.25-26.61,236.67-6.32S548,284.07,541.44,284.07s-522-38.14-522-38.14Z"/></clipPath><clipPath id="clip-path-3" transform="translate(-59.99 -3.16)"><polygon class="cls-1" points="751.24 720.47 630.78 723.49 628.05 589.97 748.52 586.95 751.24 720.47"/></clipPath><clipPath id="clip-path-4" transform="translate(-59.99 -3.16)"><path class="cls-1" d="M54.69,787S75.57,798,116,798H486.63s247.25-26.61,236.67-6.32S548,886.07,541.44,886.07s-522-38.14-522-38.14Z"/></clipPath><clipPath id="clip-path-5" transform="translate(-59.99 -3.16)"><rect class="cls-1" x="629.33" y="287.31" width="120.49" height="120.99" transform="translate(-7.72 15.74) rotate(-1.3)"/></clipPath><clipPath id="clip-path-6" transform="translate(-59.99 -3.16)"><path class="cls-1" d="M54.62,467.58S75.5,478,116,478H486.56s247.25-24.53,236.67-6.14-175.33,85.3-181.86,85.3-522-34.45-522-34.45Z"/></clipPath></defs><title>planesite artboards</title><path class="cls-2" d="M621.76,233.09l-10.53-45.9-5.64,1.29,10.54,45.94a11.55,11.55,0,1,0,5.63-1.34Z" transform="translate(-59.99 -3.16)"/><path class="cls-2" d="M607.27,232.67l13.37-45.15-5.55-1.64-13.38,45.19a11.55,11.55,0,1,0,5.56,1.6Z" transform="translate(-59.99 -3.16)"/><path class="cls-3" d="M102.75,133.91,100.63,29.8l39.14-1,15.35,71.09s10.68,43.42,32,31.89,281.48-120,281.48-120S571.68-21.22,645.42,42s88,88.95,90.15,99.75,7.55,56.5-49.34,64.31-619.16-6.32-619.16-6.32S36.58,139.6,102.75,133.91Z" transform="translate(-59.99 -3.16)"/><path class="cls-4" d="M102.5,132.93c-27.7,3.76-37.89,14.79-40.41,26.29,7.45-6.38,20.09-11.24,40.72-12.67Z" transform="translate(-59.99 -3.16)"/><path class="cls-4" d="M147.61,116s10.68,43.42,32,31.89,281.48-120,281.48-120,103.11-33,176.85,30.29,88,88.95,90.15,99.75a63.75,63.75,0,0,1-.52,27.09c12-16.21,9.38-36.47,8-43.2C733.4,131,719.16,105.31,645.42,42S468.57,11.75,468.57,11.75,208.4,120.28,187.09,131.8s-32-31.89-32-31.89L139.77,28.82l-39.14,1L101,45.71l31.31-.78Z" transform="translate(-59.99 -3.16)"/><g class="cls-5"><g class="cls-6"><path class="cls-7" d="M204.93,119.88l-1.76-86.13,32.25-.81L248.1,91.72s8.82,35.9,26.42,26.38S507,18.95,507,18.95s84.23-25.6,145.14,26.66,73.61,71.85,75.41,80.77,6.24,46.67-40.76,53.12-511.41-5.22-511.41-5.22S150.2,124.57,204.93,119.88Z" transform="translate(-59.99 -3.16)"/></g></g><ellipse class="cls-8" cx="338.08" cy="136.18" rx="50.91" ry="43.48" transform="translate(-74.14 39.34) rotate(-7.05)"/><g class="cls-9"><g class="cls-10"><path class="cls-11" d="M104.62,137.37,102.9,63.5a9.09,9.09,0,0,1,8.89-9.3l22.75-.5a9.09,9.09,0,0,1,9,6.92l13.6,55.25s10.68,38.07,32,28C210,133.95,459.44,42.67,470.27,38.7c.26-.09.51-.17.77-.24,7.09-1.89,105.4-26.77,176.44,26.67,73.74,55.47,88,78,90.15,87.46s.65,46.68-56.24,53.52c-53.52,6.44-548.32-1.61-606.65-2.58a9.11,9.11,0,0,1-8.25-5.63c-5.39-13-13.67-44.65,30.48-51.34A9.06,9.06,0,0,0,104.62,137.37Z" transform="translate(-59.99 -3.16)"/></g></g><polygon class="cls-4" points="71.21 166.84 132.08 166.84 78.43 226.84 41.3 226.84 71.21 166.84"/><polygon class="cls-12" points="61.93 170.84 122.79 170.84 69.15 231.84 32.01 231.84 61.93 170.84"/><path class="cls-13" d="M556.44,181.49S548.53,170,518.16,170H455.94S435,173.09,430,181.32v6.86s-16.77,2.13-16.78,11-2.94,24,18.85,22.64,99.94,0,99.94,0,56.25-6.86,70.5-20.24S556.33,189,556.33,189Z" transform="translate(-59.99 -3.16)"/><path class="cls-3" d="M435.87,187.19s4.13-8.93,25.45-9.62,77,0,77,0a20.47,20.47,0,0,1,11.74,12.73s1.65-10.81-10-15.48-79.09,0-79.09,0S437.59,171,435.87,187.19Z" transform="translate(-59.99 -3.16)"/><path class="cls-2" d="M498,89.19a8,8,0,0,0-8,8.27V114h16V97.46A8,8,0,0,0,498,89.19Z" transform="translate(-59.99 -3.16)"/><path class="cls-2" d="M524,89.19a8,8,0,0,0-8,8.27V114h16V97.46A8,8,0,0,0,524,89.19Z" transform="translate(-59.99 -3.16)"/><path class="cls-2" d="M549,89.19a8,8,0,0,0-8,8.27V114h16V97.46A8,8,0,0,0,549,89.19Z" transform="translate(-59.99 -3.16)"/><path class="cls-2" d="M575,89.19a8,8,0,0,0-8,8.27V114h16V97.46A8,8,0,0,0,575,89.19Z" transform="translate(-59.99 -3.16)"/><path class="cls-3" d="M345,132.18c-.19-2.28-3.13-3.37-3.13-3.37h-.08a3.26,3.26,0,0,0-2.71.21h0c-6.27,4.64-9.36,6-10.45,6.41a5.21,5.21,0,0,0-1.35.69c-2,1.43-.58,2.58,1.2,3.35a10.45,10.45,0,0,0,6.4.62,20.79,20.79,0,0,0,2.13-.62,6.38,6.38,0,0,0,1.2-.32h0l0,0c7.57-2.89,6.77-7,6.76-7Z" transform="translate(-59.99 -3.16)"/><path class="cls-3" d="M353.84,110a4.82,4.82,0,0,0-1.57-1.89,7,7,0,0,0-2.64-1.32,11.53,11.53,0,0,0-4.1-.39c-27.65,2.44-27.65,24.41-27.65,24.41.24,15.78,4.84,26.18,7.59,31A10.35,10.35,0,0,0,328.3,165a7.33,7.33,0,0,0,3.15,1.64c4.84,1.57,6.42-.86,6.42-.86,2.24-3.14-1-6.62-1-6.62a22.34,22.34,0,0,0-2.52-2.56,16.64,16.64,0,0,0-1.78-1.38,20.83,20.83,0,0,1-6.37-27.34l.3-.53c.15-.25.3-.49.44-.76,3.39-5.93,9.18-7.11,13.46-7a15.3,15.3,0,0,0,2.86-.21,14.61,14.61,0,0,0,3.07-.67c3-.88,6.94-3.25,7.6-6.55A7.63,7.63,0,0,0,353.84,110Z" transform="translate(-59.99 -3.16)"/><polygon class="cls-14" points="227.88 793.93 247.79 828.84 261.87 828.84 244.88 798.46 227.88 793.93"/><polygon class="cls-14" points="227.88 793.93 193.19 828.84 139.39 828.84 182.79 785.43 227.88 793.93"/><path class="cls-2" d="M621.76,835.09l-10.53-45.9-5.64,1.29,10.54,45.94a11.55,11.55,0,1,0,5.63-1.34Z" transform="translate(-59.99 -3.16)"/><path class="cls-2" d="M607.27,834.67l13.37-45.15-5.55-1.64-13.38,45.19a11.55,11.55,0,1,0,5.56,1.6Z" transform="translate(-59.99 -3.16)"/><path class="cls-3" d="M102.75,735.91,100.63,631.8l39.14-1,15.35,71.09s10.68,43.42,32,31.89,281.48-120,281.48-120,103.11-33,176.85,30.29,88,88.95,90.15,99.75,7.55,56.5-49.34,64.31-619.16-6.32-619.16-6.32S36.58,741.6,102.75,735.91Z" transform="translate(-59.99 -3.16)"/><path class="cls-4" d="M102.5,734.93c-27.7,3.76-37.89,14.79-40.41,26.29,7.45-6.38,20.09-11.24,40.72-12.67Z" transform="translate(-59.99 -3.16)"/><path class="cls-4" d="M147.61,718s10.68,43.42,32,31.89,281.48-120,281.48-120,103.11-33,176.85,30.29,88,88.95,90.15,99.75a63.75,63.75,0,0,1-.52,27.09c12-16.21,9.38-36.47,8-43.2C733.4,733,719.16,707.31,645.42,644s-176.85-30.29-176.85-30.29S208.4,722.28,187.09,733.8s-32-31.89-32-31.89l-15.35-71.09-39.14,1,.32,15.91,31.31-.78Z" transform="translate(-59.99 -3.16)"/><g class="cls-5"><g class="cls-15"><path class="cls-7" d="M204.93,721.88l-1.76-86.13,32.25-.81,12.68,58.79s8.82,35.9,26.42,26.38S507,620.95,507,620.95s84.23-25.6,145.14,26.66,73.61,71.85,75.41,80.77,6.24,46.67-40.76,53.12-511.41-5.22-511.41-5.22S150.2,726.57,204.93,721.88Z" transform="translate(-59.99 -3.16)"/></g></g><ellipse class="cls-8" cx="340.94" cy="737.83" rx="54.61" ry="43.48" transform="translate(-147.93 44.23) rotate(-7.05)"/><g class="cls-9"><g class="cls-16"><path class="cls-11" d="M104.62,739.37,102.9,665.5a9.09,9.09,0,0,1,8.89-9.3l22.75-.5a9.09,9.09,0,0,1,9,6.92l13.6,55.25s10.68,38.07,32,28C210,735.95,459.44,644.67,470.27,640.7c.26-.09.51-.17.77-.24,7.09-1.89,105.4-26.77,176.44,26.67,73.74,55.47,88,78,90.15,87.46s.65,46.68-56.24,53.52c-53.52,6.44-548.32-1.61-606.65-2.58a9.11,9.11,0,0,1-8.25-5.63c-5.39-13-13.67-44.65,30.48-51.34A9.06,9.06,0,0,0,104.62,739.37Z" transform="translate(-59.99 -3.16)"/></g></g><polygon class="cls-4" points="71.21 768.84 132.08 768.84 78.43 828.84 41.3 828.84 71.21 768.84"/><polygon class="cls-12" points="61.93 772.84 122.79 772.84 69.15 833.84 32.01 833.84 61.93 772.84"/><path class="cls-13" d="M556.44,783.49S548.53,772,518.16,772H455.94S435,775.09,430,783.32v6.86s-16.77,2.13-16.78,11-2.94,24,18.85,22.64,99.94,0,99.94,0,56.25-6.86,70.5-20.24S556.33,791,556.33,791Z" transform="translate(-59.99 -3.16)"/><path class="cls-3" d="M435.87,789.19s4.13-8.93,25.45-9.62,77,0,77,0a20.47,20.47,0,0,1,11.74,12.73s1.65-10.81-10-15.48-79.09,0-79.09,0S437.59,773,435.87,789.19Z" transform="translate(-59.99 -3.16)"/><path class="cls-2" d="M498,691.19a8,8,0,0,0-8,8.27V716h16V699.46A8,8,0,0,0,498,691.19Z" transform="translate(-59.99 -3.16)"/><path class="cls-2" d="M524,691.19a8,8,0,0,0-8,8.27V716h16V699.46A8,8,0,0,0,524,691.19Z" transform="translate(-59.99 -3.16)"/><path class="cls-2" d="M549,691.19a8,8,0,0,0-8,8.27V716h16V699.46A8,8,0,0,0,549,691.19Z" transform="translate(-59.99 -3.16)"/><path class="cls-2" d="M575,691.19a8,8,0,0,0-8,8.27V716h16V699.46A8,8,0,0,0,575,691.19Z" transform="translate(-59.99 -3.16)"/><path class="cls-3" d="M345,733.22c-.19-2.28-3.13-3.37-3.13-3.37h-.08a3.26,3.26,0,0,0-2.71.21h0c-6.27,4.64-9.36,6-10.45,6.41a5.21,5.21,0,0,0-1.35.69c-2,1.43-.58,2.58,1.2,3.35a10.45,10.45,0,0,0,6.4.62,20.79,20.79,0,0,0,2.13-.62,6.38,6.38,0,0,0,1.2-.32h0l0,0c7.57-2.89,6.77-7,6.76-7Z" transform="translate(-59.99 -3.16)"/><path class="cls-3" d="M353.84,711.09a4.82,4.82,0,0,0-1.57-1.89,7,7,0,0,0-2.64-1.32,11.53,11.53,0,0,0-4.1-.39c-27.65,2.44-27.65,24.41-27.65,24.41.24,15.78,4.84,26.18,7.59,31A10.35,10.35,0,0,0,328.3,766a7.33,7.33,0,0,0,3.15,1.64c4.84,1.57,6.42-.86,6.42-.86,2.24-3.14-1-6.62-1-6.62a22.34,22.34,0,0,0-2.52-2.56,16.64,16.64,0,0,0-1.78-1.38,20.83,20.83,0,0,1-6.37-27.34l.3-.53c.15-.25.3-.49.44-.76,3.39-5.93,9.18-7.11,13.46-7a15.3,15.3,0,0,0,2.86-.21,14.61,14.61,0,0,0,3.07-.67c3-.88,6.94-3.25,7.6-6.55A7.63,7.63,0,0,0,353.84,711.09Z" transform="translate(-59.99 -3.16)"/><path class="cls-2" d="M621.68,504.76,611.16,469l-5.64,1,10.54,35.78c-4.52,1.86-7.06,5.9-5.86,10,1.43,4.84,7.62,7.87,13.84,6.76s10.1-5.94,8.68-10.78C631.5,507.63,626.86,504.84,621.68,504.76Z" transform="translate(-59.99 -3.16)"/><path class="cls-2" d="M607.2,504.43l13.37-35.17L615,468l-13.38,35.2c-5.1-.11-9.87,2.44-11.39,6.43-1.81,4.77,1.68,9.77,7.8,11.18s12.55-1.31,14.36-6.07C613.95,510.68,611.66,506.48,607.2,504.43Z" transform="translate(-59.99 -3.16)"/><path class="cls-3" d="M102.68,420.91l-2.12-94.32,39.14-.89L155,390.1s10.68,39.34,32,28.89S468.5,310.23,468.5,310.23s103.11-29.87,176.85,27.44,88,80.58,90.15,90.37,7.55,51.19-49.34,58.26S67,480.58,67,480.58,36.51,426.06,102.68,420.91Z" transform="translate(-59.99 -3.16)"/><path class="cls-4" d="M102.42,420c-27.7,3.41-37.89,13.4-40.41,23.82,7.45-5.78,20.09-10.18,40.72-11.48Z" transform="translate(-59.99 -3.16)"/><path class="cls-4" d="M147.54,404.69s10.68,39.34,32,28.89S461,324.82,461,324.82,564.11,295,637.85,352.26s88,80.58,90.15,90.37a52.46,52.46,0,0,1-.52,24.55c12-14.69,9.38-33,8-39.13-2.18-9.78-16.41-33.05-90.15-90.37S468.5,310.23,468.5,310.23,208.33,408.55,187,419s-32-28.89-32-28.89l-15.35-64.4-39.14.89.32,14.41,31.31-.71Z" transform="translate(-59.99 -3.16)"/><g class="cls-5"><g class="cls-17"><path class="cls-7" d="M204.86,408.19l-1.76-78,32.25-.73L248,382.68s8.82,32.52,26.42,23.9S507,316.75,507,316.75s84.23-23.19,145.14,24.15,73.61,65.09,75.41,73.17,6.24,42.29-40.76,48.13-511.41-4.73-511.41-4.73S150.13,412.44,204.86,408.19Z" transform="translate(-59.99 -3.16)"/></g></g><path class="cls-8" d="M394,423.31c2.64,17.72-19.09,33.74-48.51,35.78S290,448.41,287.4,430.69s19.09-33.74,48.51-35.78S391.34,405.59,394,423.31Z" transform="translate(-59.99 -3.16)"/><g class="cls-9"><g class="cls-18"><path class="cls-11" d="M104.55,424l-1.72-66.92c-.12-4.55,3.87-8.33,8.89-8.43l22.75-.45a9,9,0,0,1,9,6.27l13.6,50.06s10.68,34.49,32,25.33c20.84-9,270.28-91.65,281.12-95.24.26-.09.51-.16.77-.22,7.09-1.71,105.4-24.25,176.44,24.16,73.74,50.25,88,70.66,90.15,79.23s.65,42.29-56.24,48.49C627.81,492.15,133,484.86,74.68,484a9.14,9.14,0,0,1-8.25-5.1C61,467.14,52.75,438.42,96.9,432.36A8.47,8.47,0,0,0,104.55,424Z" transform="translate(-59.99 -3.16)"/></g></g><polygon class="cls-4" points="71.14 450.84 132.01 450.84 78.36 493.84 41.22 493.84 71.14 450.84"/><polygon class="cls-12" points="61.86 453.84 122.72 453.84 69.08 497.84 31.94 497.84 61.86 453.84"/><path class="cls-13" d="M556.37,443.77S548.46,427,518.09,427H455.87S433,432.94,432,444.36v9.51s-17.81,2.95-17.82,15.22-3.46,33.3,18.33,31.4,99.68,0,99.68,0,56.12-9.51,70.37-28.07-46.24-17.9-46.24-17.9Z" transform="translate(-59.99 -3.16)"/><path class="cls-3" d="M439.31,457" transform="translate(-59.99 -3.16)"/><path class="cls-3" d="M439.31,457s-5.57-19.63,23.31-19,57.47,0,57.47,0,30,0,29.92,19c0,0,10.07-17.76-21.47-23.37s-70.05,0-70.05,0S430.45,434.29,439.31,457Z" transform="translate(-59.99 -3.16)"/><path class="cls-19" d="M431.33,453.87s-3.61,14.1,26.82,13.3,76.34,0,76.34,0,17.83-.61,21.81-12.39l7.59.09s-4.12,17.1-29.39,17.57-82,0-82,0-22.28,4-26.87-16.93Z" transform="translate(-59.99 -3.16)"/><path class="cls-2" d="M497,383.19a8,8,0,0,0-8,8.27V408h16V391.46A8,8,0,0,0,497,383.19Z" transform="translate(-59.99 -3.16)"/><path class="cls-2" d="M523,383.19a8,8,0,0,0-8,8.27V408h16V391.46A8,8,0,0,0,523,383.19Z" transform="translate(-59.99 -3.16)"/><path class="cls-2" d="M548,383.19a8,8,0,0,0-8,8.27V408h16V391.46A8,8,0,0,0,548,383.19Z" transform="translate(-59.99 -3.16)"/><path class="cls-2" d="M574,383.19a8,8,0,0,0-8,8.27V408h16V391.46A8,8,0,0,0,574,383.19Z" transform="translate(-59.99 -3.16)"/><path class="cls-3" d="M345,422.68c-.19-1.93-3.13-2.86-3.13-2.86h-.08a3.78,3.78,0,0,0-2.71.18h0c-6.27,3.94-9.36,5.11-10.45,5.44a5.61,5.61,0,0,0-1.35.58c-2,1.21-.58,2.19,1.2,2.85a12.18,12.18,0,0,0,6.4.52c.76-.15,1.47-.33,2.13-.52a7.3,7.3,0,0,0,1.2-.27h0c7.57-2.46,6.77-5.92,6.76-5.9Z" transform="translate(-59.99 -3.16)"/><path class="cls-3" d="M353.84,403.88a4.31,4.31,0,0,0-1.57-1.6,7.51,7.51,0,0,0-2.64-1.12,13.51,13.51,0,0,0-4.1-.33c-27.65,2.07-27.65,20.72-27.65,20.72.24,13.4,4.84,22.22,7.59,26.3a9.47,9.47,0,0,0,2.84,2.68,7.79,7.79,0,0,0,3.15,1.39c4.84,1.33,6.42-.73,6.42-.73,2.24-2.67-1-5.62-1-5.62a20.92,20.92,0,0,0-2.52-2.17,16.61,16.61,0,0,0-1.78-1.17c-8.77-5-11.68-15.27-6.37-23.21l.3-.45c.15-.21.3-.42.44-.64,3.39-5,9.18-6,13.46-6a18,18,0,0,0,2.86-.18,16.89,16.89,0,0,0,3.07-.57c3-.75,6.94-2.76,7.6-5.56A5.53,5.53,0,0,0,353.84,403.88Z" transform="translate(-59.99 -3.16)"/></svg>