<svg xmlns="http://www.w3.org/2000/svg" viewBox="0 0 2400 560"><defs><style>.cls-1{fill:#cc2551;}.cls-2{fill:#232426;}.cls-3{fill:#212121;}.cls-4{fill:#fff;}.cls-5{fill:#d1d1d1;}.cls-6{fill:#ff486f;}.cls-7{fill:#232323;}.cls-8{fill:#34353a;}.cls-9{fill:#333439;}</style></defs><title>panda spritepageArtboard 1</title><g id="Layer_3" data-name="Layer 3"><path class="cls-1" d="M56.2,366.17s-11,2.78-13.15,22.58-10.69,18.92-10.69,18.92,1,4.21,6.59,4.7S56.2,398.67,56.2,398.67,61.41,380,56.2,366.17Z"/><path class="cls-1" d="M267.57,362.7s-4.23-3.79-12.4,5.59S244.39,381.63,239,382.65l-5.36,1s-1.28,9.93,5.36,11,9.65-.62,16.15-5.88,14.5-13.46,19.55-10.23S267.57,362.7,267.57,362.7Z"/><path class="cls-1" d="M465,366.17s-12.67-2.83-17.33-7.33S432.88,356,428.6,362.5s-8.8,6.83-8.8,6.83,2.53,5.37,4.53,9.19l2,3.81s8.1-3.32,10.72-6.66,7.63-10.38,14.43-4.1S465,378.44,465,378.44Z"/><path class="cls-1" d="M678,368.67s-2.36-9.66-16.36-6.83-25,14-31.19,11.75l-6.14-2.25s8.07,9.71,12,10.19l4,.48s3,.31,10.85-5.18,22.58-5.4,27.25-3S678,368.67,678,368.67Z"/><path class="cls-1" d="M879,365s-4.34,3-12.19-6.16-22.51-5.17-22.51-.5-3.33,7.92-6,10l-2.67,2,6.67,9.69s6.11-2.22,8.39-7,2.48-10.23,11-4.78,10.95,8.72,13.75,10.23S879,365,879,365Z"/><path class="cls-1" d="M1060.95,362.7s-12.37-6.37-22.16,6.63-14.45,17.1-17.79,17.38l-3.33.29s7.49,2.74,15.33,4.68,18.64-14,18.32-16,9.94-7.1,15.8-4.85S1060.95,362.7,1060.95,362.7Z"/><path class="cls-1" d="M1262.79,362.7s-10.71-9-18.92,0-17.54,11.1-22.87,10.36l-5.33-.73s-4,14.17,0,16.42l4,2.25s11.82.1,18.58-4.29,21.79-12.06,28.6-10.22l6.82,1.84Z"/><path class="cls-1" d="M1460.35,364.81s-3.29,8.9-15-.08-24.36-3-24.36-3V376s6.74-7.35,13.37-2.18,20.93,11.07,26.68,4S1460.35,364.81,1460.35,364.81Z"/><path class="cls-1" d="M1672.46,362.7s-8.13-13-19.46-7.37-18,9-22.67,6.35l-4.67-2.68s-6.37,11.65-5.18,14.82l1.18,3.18a35.85,35.85,0,0,0,15.7.86c8.3-1.53,23.74-13.47,35.52-4.79s-3-11.38-3-11.38"/><path class="cls-1" d="M1866.31,362.7s-4.95,6.33-9.46-1-16-15.36-23.59-6.35-12.26,6.35-12.26,6.35-3.33,10.66,0,15l3.33,4.33s9.33-4.41,12-6.87,8.07-15.46,12-8,5,13.24,14.8,11.7S1866.31,362.7,1866.31,362.7Z"/><path class="cls-1" d="M2083.14,363.7s-6.14-11.37-17.47-5.37-7.33,7.67-17.33,7.83-12.75,0-12.75,0l.52,16.48s13,1.85,17.26-.9,17.58-16.24,29.78-7.62S2083.14,363.7,2083.14,363.7Z"/><path class="cls-1" d="M2276,363.7s-13-2.88-15.65,8.87-4.77,22.42-8.72,25.09l-3.95,2.67s4.13,5.22,9.33,5.47a30.42,30.42,0,0,0,9.33-1Z"/><path class="cls-1" d="M2353.16,91.17s11,2.78,13.2,22.58,10.73,18.92,10.73,18.92-1,4.21-6.62,4.7-17.32-13.69-17.32-13.69S2347.93,105,2353.16,91.17Z"/><path class="cls-1" d="M2140.88,87.7s4.25-3.79,12.45,5.59,10.83,13.34,16.22,14.36l5.38,1s1.28,9.93-5.38,11-9.69-.62-16.22-5.88-14.56-13.46-19.63-10.23S2140.88,87.7,2140.88,87.7Z"/><path class="cls-1" d="M1942,91.17s13-2.83,17.71-7.33,15-2.83,19.3,3.67,8.91,6.83,8.91,6.83-2.5,5.37-4.51,9.19-2,3.81-2,3.81-8.12-3.32-10.75-6.66-8-10.38-14.79-4.1-13.88,6.86-13.88,6.86Z"/><path class="cls-1" d="M1728.67,93.67S1731,84,1745.1,86.84s25.16,14,31.33,11.75l6.17-2.25s-8.11,9.71-12.09,10.19l-4,.48s-3,.31-10.89-5.18-22.68-5.4-27.36-3S1728.67,93.67,1728.67,93.67Z"/><path class="cls-1" d="M1526.8,90s4.36,3,12.24-6.16,22.61-5.17,22.61-.5,3.35,7.92,6,10l2.68,2-6.7,9.69s-6.14-2.22-8.43-7-2.49-10.23-11.09-4.78-11,8.72-13.81,10.23S1526.8,90,1526.8,90Z"/><path class="cls-1" d="M1344.1,87.7s12.42-6.37,22.25,6.63,14.52,17.1,17.86,17.38l3.35.29s-7.52,2.74-15.4,4.68-18.72-14-18.4-16-10-7.1-15.86-4.85S1344.1,87.7,1344.1,87.7Z"/><path class="cls-1" d="M1141.4,87.7s10.76-9,19,0,17.61,11.1,23,10.36l5.36-.73s4,14.17,0,16.42l-4,2.25s-11.87.1-18.66-4.29-21.88-12.06-28.73-10.22l-6.85,1.84Z"/><path class="cls-1" d="M943,89.81s3.06,8.9,14.8-.08,24.21-3,24.21-3V101s-6.52-7.35-13.17-2.18-20.9,11.07-26.67,4S943,89.81,943,89.81Z"/><path class="cls-1" d="M730,87.7s8.16-13,19.55-7.37,18.08,9,22.76,6.35L777,84s6.39,11.65,5.21,14.82L781,102a36.15,36.15,0,0,1-15.77.86c-8.33-1.53-23.84-13.47-35.67-4.79s3-11.38,3-11.38"/><path class="cls-1" d="M535.28,87.7s5,6.33,9.5-1,16.07-15.36,23.69-6.35,12.31,6.35,12.31,6.35,3.35,10.66,0,15L577.44,106s-9.37-4.41-12.05-6.87-8.11-15.46-12.09-8-5,13.24-14.87,11.7S535.28,87.7,535.28,87.7Z"/><path class="cls-1" d="M317.53,88.7s6.16-11.37,17.55-5.37,7.36,7.67,17.41,7.83,12.8,0,12.8,0l-.52,16.48s-13,1.85-17.33-.9-17.66-16.24-29.91-7.62S317.53,88.7,317.53,88.7Z"/><path class="cls-1" d="M123.85,88.7s13-2.88,15.72,8.87,4.79,22.42,8.76,25.09l4,2.67s-4.14,5.22-9.37,5.47a30.67,30.67,0,0,1-9.37-1Z"/></g><g id="Layer_2" data-name="Layer 2"><path class="cls-2" d="M556,138s15,8,15.5,19,1.83,27.17-11.83,34.33-15.89-45.83-15.89-45.83Z"/><path class="cls-2" d="M472.87,208.8s-14.62,11.2-8.95,26.87,2.38,10,2.38,10-4.95,8.67-5.46,12.33-5.49,16.33,22.51,21H500s22.33-.33,23.33-14S514,241.67,514,241.67s-2.85-6.05,3.24-8.86S524,213,524,213l-31.29-7.33Z"/><path class="cls-3" d="M486.36,39.52s-3.81-7.86,2.94-10.69,13.5,5.48,11.64,8.54C500.94,37.37,489.13,38.58,486.36,39.52Z"/><path class="cls-4" d="M443,75.33s-3.33-6,5.33-10,14-6.67,20-14.67,16-17.33,37.33-14c0,0,3.33-22.67,20.67-16.67s13.33,23.66,4,27.16c0,0,8.67,16.17,8,28.17s10,43.33,10,43.33,23.33,22.67,11.33,72.67-82.67,36-91.33,18-30-47.33-.67-82.67c0,0,4.67-4.67,4.67-20.67,0,0-10-10-16-10.67S442.33,93.33,443,75.33Z"/><path class="cls-4" d="M541.85,96.87s16.86,33.22,18.95,47-34.13,2.44-34.13,2.44Z"/><path class="cls-4" d="M453.36,172.28s-.11,32.32,25.26,46.19,8.71-44.13,8.71-44.13Z"/><path class="cls-5" d="M472.39,214.31a35.13,35.13,0,0,0,7.07,4.59l.42.21c22.86,11.26,70.16,12.3,79.78-27.77,4.84-20.15,3.93-35.85,1.13-47.43v0c-2.09-13.8-18.95-47-18.95-47h0c-2.08-8.09-3.79-16.51-3.51-21.53.67-12-8-28.17-8-28.17,9.33-3.51,13.33-21.16-4-27.16a19.71,19.71,0,0,0-2.12-.59l-4.53-.35c-11.57,1-14,17.61-14,17.61A52.72,52.72,0,0,0,495.33,36h0s25.45,6,26.72,25.32.61,26.35-7.72,33.34,2.33,7,2.33,7l-15.41,10.26s19.61-4.91,31.68,2.76,18.73,35,19.73,44S552,207.67,524,213s-50.65-.25-63.15-12.61A45.89,45.89,0,0,0,472.39,214.31Z"/><path class="cls-6" d="M471,104.7s13.7,7,30.36-2.37,26.08-25.93,37.37-20.63c0,0,3.29,1,3.63,5.63s3,7.4-.49,9.53-13.24,13.8-34.54,14.8a327.87,327.87,0,0,1-35.19,0S466.94,108.06,471,104.7Z"/><path class="cls-7" d="M442.64,70.82l4.53.68s1.83,1.67,0,2.83-4.27,1.33-4.2,3.5C443,77.84,439.77,72,442.64,70.82Z"/><path class="cls-8" d="M446.54,91.14s8.63,3.2,14.3-2.8c0,0-2.54,5.78-12.85,4.22Z"/><path class="cls-8" d="M473.44,58.5s-7.1-.13-8.6,5.84,3.33,13.49,10.33,13S488.37,58,473.44,58.5Z"/><circle class="cls-4" cx="470.5" cy="65.83" r="3.08"/><path class="cls-3" d="M507.5,48.33a46,46,0,0,1-1.64-12.72c.3-5.94,5.64-21.11,20.47-15.61S538,37.59,538,37.59s.33,6.08-12,15.08c0,0-5,3.5-9.83,2S508.15,51.07,507.5,48.33Z"/><path class="cls-4" d="M496.75,107.75s13.75-1.75,21-9.5,20.7-10.08,22.1-9.92l1.4.17s-4.25-2.6-11-.17S509.5,107.25,496.75,107.75Z"/><path class="cls-4" d="M526.67,92.07s-6.65,6.48-11.43,8.45-3,.76-3,.76S524.58,91.89,526.67,92.07Z"/><path class="cls-4" d="M523.79,94.67s6.89-4.32,8.74-4.85-3.28,0-3.28,0S523.83,92.22,523.79,94.67Z"/><path class="cls-4" d="M485.75,109.13s17.75,2.38,29.25-3l11.5-5.37S509,115.38,485.75,109.13Z"/><path class="cls-4" d="M519.68,19.05l4.53.35A14.6,14.6,0,0,0,519.68,19.05Z"/><path class="cls-9" d="M509.5,122.45S475.7,152,460.85,159,425.5,170,429,191.5,449,220,480,203s47-57.9,48.36-62.19S525.5,116.41,509.5,122.45Z"/><path class="cls-9" d="M549.33,240s-28.39,4.38-37.36-14.14-.79-43.52,16.62-50.19,25.74,1.67,30.08,10.33,7.67,16,14,15.67,14,1.67,15,15.67,1.67,50.33-19.33,50S549.33,240,549.33,240Z"/><path class="cls-2" d="M679.75,215.58S669.5,224.5,674,235s7.5,18,5.75,20.5-12.64,12.5-3.19,18a46.49,46.49,0,0,0,46.15,0c18.79-10.5,7.15-23.28,4.22-25.89s-9-11.61-4.22-19.61S685.62,212,679.75,215.58Z"/><path class="cls-3" d="M680.36,39.52s-3.81-7.86,2.94-10.69,13.5,5.48,11.64,8.54C694.94,37.37,683.13,38.58,680.36,39.52Z"/><path class="cls-4" d="M637,75.33s-3.33-6,5.33-10,14-6.67,20-14.67,16-17.33,37.33-14c0,0,3.33-22.67,20.67-16.67s13.33,23.66,4,27.16c0,0,8.67,16.17,8,28.17s10,43.33,10,43.33,23.33,22.67,11.33,72.67-82.67,36-91.33,18-30-47.33-.67-82.67c0,0,4.67-4.67,4.67-20.67,0,0-10-10-16-10.67S636.33,93.33,637,75.33Z"/><path class="cls-4" d="M735.85,96.87s16.86,33.22,18.95,47-34.13,2.44-34.13,2.44Z"/><path class="cls-4" d="M647.36,172.28s-.11,32.32,25.26,46.19,8.71-44.13,8.71-44.13Z"/><path class="cls-5" d="M666.39,214.31a35.13,35.13,0,0,0,7.07,4.59l.42.21c22.86,11.26,70.16,12.3,79.78-27.77,4.84-20.15,3.93-35.85,1.13-47.43v0c-2.09-13.8-18.95-47-18.95-47h0c-2.08-8.09-3.79-16.51-3.51-21.53.67-12-8-28.17-8-28.17,9.33-3.51,13.33-21.16-4-27.16a19.71,19.71,0,0,0-2.12-.59l-4.53-.35c-11.57,1-14,17.61-14,17.61A52.72,52.72,0,0,0,689.33,36h0s25.45,6,26.72,25.32.61,26.35-7.72,33.34,2.33,7,2.33,7l-15.41,10.26s19.61-4.91,31.68,2.76,18.73,35,19.73,44S746,207.67,718,213s-50.65-.25-63.15-12.61A45.89,45.89,0,0,0,666.39,214.31Z"/><path class="cls-6" d="M665,104.7s13.7,7,30.36-2.37,26.08-25.93,37.37-20.63c0,0,3.29,1,3.63,5.63s3,7.4-.49,9.53-13.24,13.8-34.54,14.8a327.87,327.87,0,0,1-35.19,0S660.94,108.06,665,104.7Z"/><path class="cls-7" d="M636.64,70.82l4.53.68s1.83,1.67,0,2.83-4.27,1.33-4.2,3.5C637,77.84,633.77,72,636.64,70.82Z"/><path class="cls-8" d="M640.54,91.14s8.63,3.2,14.3-2.8c0,0-2.54,5.78-12.85,4.22Z"/><path class="cls-8" d="M667.44,58.5s-7.1-.13-8.6,5.84,3.33,13.49,10.33,13S682.37,58,667.44,58.5Z"/><circle class="cls-4" cx="664.5" cy="65.83" r="3.08"/><path class="cls-3" d="M701.5,48.33a46,46,0,0,1-1.64-12.72c.3-5.94,5.64-21.11,20.47-15.61S732,37.59,732,37.59s.33,6.08-12,15.08c0,0-5,3.5-9.83,2S702.15,51.07,701.5,48.33Z"/><path class="cls-4" d="M690.75,107.75s13.75-1.75,21-9.5,20.7-10.08,22.1-9.92l1.4.17s-4.25-2.6-11-.17S703.5,107.25,690.75,107.75Z"/><path class="cls-4" d="M720.67,92.07s-6.65,6.48-11.43,8.45-3,.76-3,.76S718.58,91.89,720.67,92.07Z"/><path class="cls-4" d="M717.79,94.67s6.89-4.32,8.74-4.85-3.28,0-3.28,0S717.83,92.22,717.79,94.67Z"/><path class="cls-4" d="M679.75,109.13s17.75,2.38,29.25-3l11.5-5.37S703,115.38,679.75,109.13Z"/><path class="cls-4" d="M713.68,19.05l4.53.35A14.6,14.6,0,0,0,713.68,19.05Z"/><path class="cls-9" d="M702.5,122.45s-7.49,4-7.24,12-3.76,20-22.76,28-37.5,20-28,40,34,13,52.23-9.5,28-42.5,25.63-60S702.5,122.45,702.5,122.45Z"/><path class="cls-9" d="M754.88,189.33s-8.28-3.1-10.42-6.55-17.13-11.67-29.47,3.28-20.33,36.61,0,47.94,30.33-3,36.33,3,3.33,16,18,15.33,14.33-20.67,14.67-29.67S788,192,775,186,770.43,190.67,754.88,189.33Z"/><path class="cls-2" d="M1057.69,154.17S1041,166,1042,181s10.12,32.9,26.56,25.2,2.86-44,2.86-44Z"/><path class="cls-2" d="M1117.36,264s-1,15,13.31,15,35-2.5,36.43-33.5c0,0,1.68-5.29-5.46-16.15s3.25-29.35,3.25-29.35l-37.09,3.5Z"/><path class="cls-3" d="M1090.36,39.52s-3.81-7.86,2.94-10.69,13.5,5.48,11.64,8.54C1104.94,37.37,1093.13,38.58,1090.36,39.52Z"/><path class="cls-4" d="M1047,75.33s-3.33-6,5.33-10,14-6.67,20-14.67,16-17.33,37.33-14c0,0,3.33-22.67,20.67-16.67s13.33,23.66,4,27.16c0,0,8.67,16.17,8,28.17s10,43.33,10,43.33,23.33,22.67,11.33,72.67-82.67,36-91.33,18-30-47.33-.67-82.67c0,0,4.67-4.67,4.67-20.67,0,0-10-10-16-10.67S1046.33,93.33,1047,75.33Z"/><path class="cls-4" d="M1145.85,96.87s16.86,33.22,18.95,47-34.13,2.44-34.13,2.44Z"/><path class="cls-4" d="M1057.36,172.28s-.11,32.32,25.26,46.19,8.71-44.13,8.71-44.13Z"/><path class="cls-5" d="M1076.39,214.31a35.13,35.13,0,0,0,7.07,4.59l.42.21c22.86,11.26,70.16,12.3,79.78-27.77,4.84-20.15,3.93-35.85,1.13-47.43v0c-2.09-13.8-18.95-47-18.95-47h0c-2.08-8.09-3.79-16.51-3.51-21.53.67-12-8-28.17-8-28.17,9.33-3.51,13.33-21.16-4-27.16a19.71,19.71,0,0,0-2.12-.59l-4.53-.35c-11.57,1-14,17.61-14,17.61a52.72,52.72,0,0,0-10.33-.65h0s25.45,6,26.72,25.32.61,26.35-7.72,33.34,2.33,7,2.33,7l-15.41,10.26s19.61-4.91,31.68,2.76,18.73,35,19.73,44-.67,49-28.67,54.33-50.65-.25-63.15-12.61A45.89,45.89,0,0,0,1076.39,214.31Z"/><path class="cls-6" d="M1075,104.7s13.7,7,30.36-2.37,26.08-25.93,37.37-20.63c0,0,3.29,1,3.63,5.63s3,7.4-.49,9.53-13.24,13.8-34.54,14.8a327.87,327.87,0,0,1-35.19,0S1070.94,108.06,1075,104.7Z"/><path class="cls-7" d="M1046.64,70.82l4.53.68s1.83,1.67,0,2.83-4.27,1.33-4.2,3.5C1047,77.84,1043.77,72,1046.64,70.82Z"/><path class="cls-8" d="M1050.54,91.14s8.63,3.2,14.3-2.8c0,0-2.54,5.78-12.85,4.22Z"/><path class="cls-8" d="M1077.44,58.5s-7.1-.13-8.6,5.84,3.33,13.49,10.33,13S1092.37,58,1077.44,58.5Z"/><circle class="cls-4" cx="1074.5" cy="65.83" r="3.08"/><path class="cls-3" d="M1111.5,48.33a46,46,0,0,1-1.64-12.72c.3-5.94,5.64-21.11,20.47-15.61S1142,37.59,1142,37.59s.33,6.08-12,15.08c0,0-5,3.5-9.83,2S1112.15,51.07,1111.5,48.33Z"/><path class="cls-4" d="M1100.75,107.75s13.75-1.75,21-9.5,20.7-10.08,22.1-9.92l1.4.17s-4.25-2.6-11-.17S1113.5,107.25,1100.75,107.75Z"/><path class="cls-4" d="M1130.67,92.07s-6.65,6.48-11.43,8.45-3,.76-3,.76S1128.58,91.89,1130.67,92.07Z"/><path class="cls-4" d="M1127.79,94.67s6.89-4.32,8.74-4.85-3.28,0-3.28,0S1127.83,92.22,1127.79,94.67Z"/><path class="cls-4" d="M1089.75,109.13s17.75,2.38,29.25-3l11.5-5.37S1113,115.38,1089.75,109.13Z"/><path class="cls-4" d="M1123.68,19.05l4.53.35A14.6,14.6,0,0,0,1123.68,19.05Z"/><path class="cls-9" d="M1131.39,112.11S1120,114.6,1120.5,123.8s2.94,12.19,7.72,17.7.75,19-7.73,26.5-22,15.09-15.23,31,19.27,21.5,27.11,21.61,24.9-3.61,32.52-20.61,13.16-54.19-2.38-77.55S1131.39,112.11,1131.39,112.11Z"/><path class="cls-9" d="M1110.53,191s-18.53,3-28.2,15-2,33.67-2,33.67-9.13,8.67-6.9,16.33,9.7,20,33.3,13.33,28.6-13.67,27.27-21.33l-1.33-7.67s21.33-14.67,24-18.33,6-8,4.67-21S1110.53,191,1110.53,191Z"/><path class="cls-2" d="M1265,148.62a22.35,22.35,0,0,1-14.29,0c-7.71-2.62-23.21.69-24.21,18.53s12.12,32.34,44.06,27.34S1265,148.62,1265,148.62Z"/><path class="cls-2" d="M1312.53,229.35s13,10.65,17.47,13.15,9.5,6.5,9,14,1.68,20,15.34,21.25S1392,262,1389.51,233.5s-25-30-25-30S1310.57,205.21,1312.53,229.35Z"/><path class="cls-3" d="M1292.36,39.52s-3.81-7.86,2.94-10.69,13.5,5.48,11.64,8.54C1306.94,37.37,1295.13,38.58,1292.36,39.52Z"/><path class="cls-4" d="M1249,75.33s-3.33-6,5.33-10,14-6.67,20-14.67,16-17.33,37.33-14c0,0,3.33-22.67,20.67-16.67s13.33,23.66,4,27.16c0,0,8.67,16.17,8,28.17s10,43.33,10,43.33,23.33,22.67,11.33,72.67-82.67,36-91.33,18-30-47.33-.67-82.67c0,0,4.67-4.67,4.67-20.67,0,0-10-10-16-10.67S1248.33,93.33,1249,75.33Z"/><path class="cls-4" d="M1347.85,96.87s16.86,33.22,18.95,47-34.13,2.44-34.13,2.44Z"/><path class="cls-4" d="M1259.36,172.28s-.11,32.32,25.26,46.19,8.71-44.13,8.71-44.13Z"/><path class="cls-5" d="M1278.39,214.31a35.13,35.13,0,0,0,7.07,4.59l.42.21c22.86,11.26,70.16,12.3,79.78-27.77,4.84-20.15,3.93-35.85,1.13-47.43v0c-2.09-13.8-18.95-47-18.95-47h0c-2.08-8.09-3.79-16.51-3.51-21.53.67-12-8-28.17-8-28.17,9.33-3.51,13.33-21.16-4-27.16a19.71,19.71,0,0,0-2.12-.59l-4.53-.35c-11.57,1-14,17.61-14,17.61a52.72,52.72,0,0,0-10.33-.65h0s25.45,6,26.72,25.32.61,26.35-7.72,33.34,2.33,7,2.33,7l-15.41,10.26s19.61-4.91,31.68,2.76,18.73,35,19.73,44-.67,49-28.67,54.33-50.65-.25-63.15-12.61A45.89,45.89,0,0,0,1278.39,214.31Z"/><path class="cls-6" d="M1277,104.7s13.7,7,30.36-2.37,26.08-25.93,37.37-20.63c0,0,3.29,1,3.63,5.63s3,7.4-.49,9.53-13.24,13.8-34.54,14.8a327.87,327.87,0,0,1-35.19,0S1272.94,108.06,1277,104.7Z"/><path class="cls-7" d="M1248.64,70.82l4.53.68s1.83,1.67,0,2.83-4.27,1.33-4.2,3.5C1249,77.84,1245.77,72,1248.64,70.82Z"/><path class="cls-8" d="M1252.54,91.14s8.63,3.2,14.3-2.8c0,0-2.54,5.78-12.85,4.22Z"/><path class="cls-8" d="M1279.44,58.5s-7.1-.13-8.6,5.84,3.33,13.49,10.33,13S1294.37,58,1279.44,58.5Z"/><circle class="cls-4" cx="1276.5" cy="65.83" r="3.08"/><path class="cls-3" d="M1313.5,48.33a46,46,0,0,1-1.64-12.72c.3-5.94,5.64-21.11,20.47-15.61S1344,37.59,1344,37.59s.33,6.08-12,15.08c0,0-5,3.5-9.83,2S1314.15,51.07,1313.5,48.33Z"/><path class="cls-4" d="M1302.75,107.75s13.75-1.75,21-9.5,20.7-10.08,22.1-9.92l1.4.17s-4.25-2.6-11-.17S1315.5,107.25,1302.75,107.75Z"/><path class="cls-4" d="M1332.67,92.07s-6.65,6.48-11.43,8.45-3,.76-3,.76S1330.58,91.89,1332.67,92.07Z"/><path class="cls-4" d="M1329.79,94.67s6.89-4.32,8.74-4.85-3.28,0-3.28,0S1329.83,92.22,1329.79,94.67Z"/><path class="cls-4" d="M1291.75,109.13s17.75,2.38,29.25-3l11.5-5.37S1315,115.38,1291.75,109.13Z"/><path class="cls-4" d="M1325.68,19.05l4.53.35A14.6,14.6,0,0,0,1325.68,19.05Z"/><path class="cls-9" d="M1329.79,97.52s-20.29,7.89-4.79,24.93,22.29,17.94,24.77,45S1353,208,1364,209s26-8.4,25.5-44.45S1352.25,92.71,1329.79,97.52Z"/><path class="cls-9" d="M1319.17,185s-17.5-9-32.83,3.33-24.67,32.27-24.67,32.27-2.67,3.06-5.67,3.06-8.33-3-14.33,3.67-8.67,25,4.33,36.67,37.17,19.33,45.75,5.33,2.72-19,17-29.67S1350,205,1319.17,185Z"/><path class="cls-2" d="M1663.56,138.5S1653,124,1634,131.5s-15.5,32-9,36.5,10.08,15.41,38.56,17.5S1663.56,138.5,1663.56,138.5Z"/><path class="cls-2" d="M1714.5,224.5s3.79,15.31,16.9,16.16,18.6-4.16,18.6,3.84-3.91,20.5,12.79,21.5,23.71-12.56,23.71-28.28,5-38.34-6.5-41.28-13.17,8.31-21.33-5.11S1714.5,224.5,1714.5,224.5Z"/><path class="cls-3" d="M1685.36,39.52s-3.81-7.86,2.94-10.69,13.5,5.48,11.64,8.54C1699.94,37.37,1688.13,38.58,1685.36,39.52Z"/><path class="cls-4" d="M1642,75.33s-3.33-6,5.33-10,14-6.67,20-14.67,16-17.33,37.33-14c0,0,3.33-22.67,20.67-16.67s13.33,23.66,4,27.16c0,0,8.67,16.17,8,28.17s10,43.33,10,43.33,23.33,22.67,11.33,72.67-82.67,36-91.33,18-30-47.33-.67-82.67c0,0,4.67-4.67,4.67-20.67,0,0-10-10-16-10.67S1641.33,93.33,1642,75.33Z"/><path class="cls-4" d="M1740.85,96.87s16.86,33.22,18.95,47-34.13,2.44-34.13,2.44Z"/><path class="cls-4" d="M1652.36,172.28s-.11,32.32,25.26,46.19,8.71-44.13,8.71-44.13Z"/><path class="cls-5" d="M1671.39,214.31a35.13,35.13,0,0,0,7.07,4.59l.42.21c22.86,11.26,70.16,12.3,79.78-27.77,4.84-20.15,3.93-35.85,1.13-47.43v0c-2.09-13.8-18.95-47-18.95-47h0c-2.08-8.09-3.79-16.51-3.51-21.53.67-12-8-28.17-8-28.17,9.33-3.51,13.33-21.16-4-27.16a19.71,19.71,0,0,0-2.12-.59l-4.53-.35c-11.57,1-14,17.61-14,17.61a52.72,52.72,0,0,0-10.33-.65h0s25.45,6,26.72,25.32.61,26.35-7.72,33.34,2.33,7,2.33,7l-15.41,10.26s19.61-4.91,31.68,2.76,18.73,35,19.73,44-.67,49-28.67,54.33-50.65-.25-63.15-12.61A45.89,45.89,0,0,0,1671.39,214.31Z"/><path class="cls-6" d="M1670,104.7s13.7,7,30.36-2.37,26.08-25.93,37.37-20.63c0,0,3.29,1,3.63,5.63s3,7.4-.49,9.53-13.24,13.8-34.54,14.8a327.87,327.87,0,0,1-35.19,0S1665.94,108.06,1670,104.7Z"/><path class="cls-7" d="M1641.64,70.82l4.53.68s1.83,1.67,0,2.83-4.27,1.33-4.2,3.5C1642,77.84,1638.77,72,1641.64,70.82Z"/><path class="cls-8" d="M1645.54,91.14s8.63,3.2,14.3-2.8c0,0-2.54,5.78-12.85,4.22Z"/><path class="cls-8" d="M1672.44,58.5s-7.1-.13-8.6,5.84,3.33,13.49,10.33,13S1687.37,58,1672.44,58.5Z"/><circle class="cls-4" cx="1669.5" cy="65.83" r="3.08"/><path class="cls-3" d="M1706.5,48.33a46,46,0,0,1-1.64-12.72c.3-5.94,5.64-21.11,20.47-15.61S1737,37.59,1737,37.59s.33,6.08-12,15.08c0,0-5,3.5-9.83,2S1707.15,51.07,1706.5,48.33Z"/><path class="cls-4" d="M1695.75,107.75s13.75-1.75,21-9.5,20.7-10.08,22.1-9.92l1.4.17s-4.25-2.6-11-.17S1708.5,107.25,1695.75,107.75Z"/><path class="cls-4" d="M1725.67,92.07s-6.65,6.48-11.43,8.45-3,.76-3,.76S1723.58,91.89,1725.67,92.07Z"/><path class="cls-4" d="M1722.79,94.67s6.89-4.32,8.74-4.85-3.28,0-3.28,0S1722.83,92.22,1722.79,94.67Z"/><path class="cls-4" d="M1684.75,109.13s17.75,2.38,29.25-3l11.5-5.37S1708,115.38,1684.75,109.13Z"/><path class="cls-4" d="M1718.68,19.05l4.53.35A14.6,14.6,0,0,0,1718.68,19.05Z"/><path class="cls-9" d="M1726.25,98.79s-13.91,8.67-10.57,20.35,11.08,20.91,23.85,26.83,21.34,19.86,24.31,30.63,10,21.4,21.74,20.6,15.29-21.55,13.55-37.2S1752.84,91.43,1726.25,98.79Z"/><path class="cls-9" d="M1700,184.33s-27.33,9-34.67,26.33-1,25,0,29.67,2,10-3.49,16.33-3.44,18.09,10.19,20.21,34.3.79,41.63-8.88,0-17.33-1.33-21.33-2-17,8-23.33,15-13,7.33-30.33S1700,184.33,1700,184.33Z"/><path class="cls-2" d="M1454.85,138.5s-7.61,4-18.48,0S1407,135.65,1407,153.08s4,37.42,43.5,31.42,20.5-23.41,20.5-23.41Z"/><path class="cls-2" d="M1506,235.83s12,17.67,29.28,15.17c0,0-11.75,25.5,9.25,28s30.5-34.34,30-43.17-2.5-12.12-10.5-15.22-14.58-14.73-17.5-24.68S1506,235.83,1506,235.83Z"/><path class="cls-3" d="M1480.36,39.52s-3.81-7.86,2.94-10.69,13.5,5.48,11.64,8.54C1494.94,37.37,1483.13,38.58,1480.36,39.52Z"/><path class="cls-4" d="M1437,75.33s-3.33-6,5.33-10,14-6.67,20-14.67,16-17.33,37.33-14c0,0,3.33-22.67,20.67-16.67s13.33,23.66,4,27.16c0,0,8.67,16.17,8,28.17s10,43.33,10,43.33,23.33,22.67,11.33,72.67-82.67,36-91.33,18-30-47.33-.67-82.67c0,0,4.67-4.67,4.67-20.67,0,0-10-10-16-10.67S1436.33,93.33,1437,75.33Z"/><path class="cls-4" d="M1535.85,96.87s16.86,33.22,18.95,47-34.13,2.44-34.13,2.44Z"/><path class="cls-4" d="M1447.36,172.28s-.11,32.32,25.26,46.19,8.71-44.13,8.71-44.13Z"/><path class="cls-5" d="M1466.39,214.31a35.13,35.13,0,0,0,7.07,4.59l.42.21c22.86,11.26,70.16,12.3,79.78-27.77,4.84-20.15,3.93-35.85,1.13-47.43v0c-2.09-13.8-18.95-47-18.95-47h0c-2.08-8.09-3.79-16.51-3.51-21.53.67-12-8-28.17-8-28.17,9.33-3.51,13.33-21.16-4-27.16a19.71,19.71,0,0,0-2.12-.59l-4.53-.35c-11.57,1-14,17.61-14,17.61a52.72,52.72,0,0,0-10.33-.65h0s25.45,6,26.72,25.32.61,26.35-7.72,33.34,2.33,7,2.33,7l-15.41,10.26s19.61-4.91,31.68,2.76,18.73,35,19.73,44-.67,49-28.67,54.33-50.65-.25-63.15-12.61A45.89,45.89,0,0,0,1466.39,214.31Z"/><path class="cls-6" d="M1465,104.7s13.7,7,30.36-2.37,26.08-25.93,37.37-20.63c0,0,3.29,1,3.63,5.63s3,7.4-.49,9.53-13.24,13.8-34.54,14.8a327.87,327.87,0,0,1-35.19,0S1460.94,108.06,1465,104.7Z"/><path class="cls-7" d="M1436.64,70.82l4.53.68s1.83,1.67,0,2.83-4.27,1.33-4.2,3.5C1437,77.84,1433.77,72,1436.64,70.82Z"/><path class="cls-8" d="M1440.54,91.14s8.63,3.2,14.3-2.8c0,0-2.54,5.78-12.85,4.22Z"/><path class="cls-8" d="M1467.44,58.5s-7.1-.13-8.6,5.84,3.33,13.49,10.33,13S1482.37,58,1467.44,58.5Z"/><circle class="cls-4" cx="1464.5" cy="65.83" r="3.08"/><path class="cls-3" d="M1501.5,48.33a46,46,0,0,1-1.64-12.72c.3-5.94,5.64-21.11,20.47-15.61S1532,37.59,1532,37.59s.33,6.08-12,15.08c0,0-5,3.5-9.83,2S1502.15,51.07,1501.5,48.33Z"/><path class="cls-4" d="M1490.75,107.75s13.75-1.75,21-9.5,20.7-10.08,22.1-9.92l1.4.17s-4.25-2.6-11-.17S1503.5,107.25,1490.75,107.75Z"/><path class="cls-4" d="M1520.67,92.07s-6.65,6.48-11.43,8.45-3,.76-3,.76S1518.58,91.89,1520.67,92.07Z"/><path class="cls-4" d="M1517.79,94.67s6.89-4.32,8.74-4.85-3.28,0-3.28,0S1517.83,92.22,1517.79,94.67Z"/><path class="cls-4" d="M1479.75,109.13s17.75,2.38,29.25-3l11.5-5.37S1503,115.38,1479.75,109.13Z"/><path class="cls-4" d="M1513.68,19.05l4.53.35A14.6,14.6,0,0,0,1513.68,19.05Z"/><path class="cls-9" d="M1528.8,101.7s-15.67,2.64-16.82,12.66,2.52,19.48,12.83,25.37,21.78,8.59,26.21,38.28,14.49,26.54,22.13,26.9,24.72-12.28,18.43-40.7S1557.88,100.59,1528.8,101.7Z"/><path class="cls-9" d="M1459.33,230s4.67-19.62,18.33-28.62,28-5.67,33,2,13.2,22.67,2.93,36.33a226.34,226.34,0,0,0-16.87,26s-7.4,14.33-16.07,13.83-25.95-8.83-33.31-17.83-6-21.33-1.69-26S1459.33,230,1459.33,230Z"/><path class="cls-2" d="M1860.63,153.31S1826.5,159.5,1830,178s11.36,27.27,36.85,22.39S1860.63,153.31,1860.63,153.31Z"/><path class="cls-2" d="M1916,225.86s7.55,31.14,33.77,21.14c0,0,2.42,17.5,19.32,13.5s24.85-26.81,7.63-57.15S1918,201,1918,201Z"/><path class="cls-3" d="M1892.36,39.52s-3.81-7.86,2.94-10.69,13.5,5.48,11.64,8.54C1906.94,37.37,1895.13,38.58,1892.36,39.52Z"/><path class="cls-4" d="M1849,75.33s-3.33-6,5.33-10,14-6.67,20-14.67,16-17.33,37.33-14c0,0,3.33-22.67,20.67-16.67s13.33,23.66,4,27.16c0,0,8.67,16.17,8,28.17s10,43.33,10,43.33,23.33,22.67,11.33,72.67-82.67,36-91.33,18-30-47.33-.67-82.67c0,0,4.67-4.67,4.67-20.67,0,0-10-10-16-10.67S1848.33,93.33,1849,75.33Z"/><path class="cls-4" d="M1947.85,96.87s16.86,33.22,18.95,47-34.13,2.44-34.13,2.44Z"/><path class="cls-4" d="M1859.36,172.28s-.11,32.32,25.26,46.19,8.71-44.13,8.71-44.13Z"/><path class="cls-5" d="M1878.39,214.31a35.13,35.13,0,0,0,7.07,4.59l.42.21c22.86,11.26,70.16,12.3,79.78-27.77,4.84-20.15,3.93-35.85,1.13-47.43v0c-2.09-13.8-18.95-47-18.95-47h0c-2.08-8.09-3.79-16.51-3.51-21.53.67-12-8-28.17-8-28.17,9.33-3.51,13.33-21.16-4-27.16a19.71,19.71,0,0,0-2.12-.59l-4.53-.35c-11.57,1-14,17.61-14,17.61a52.72,52.72,0,0,0-10.33-.65h0s25.45,6,26.72,25.32.61,26.35-7.72,33.34,2.33,7,2.33,7l-15.41,10.26s19.61-4.91,31.68,2.76,18.73,35,19.73,44-.67,49-28.67,54.33-50.65-.25-63.15-12.61A45.89,45.89,0,0,0,1878.39,214.31Z"/><path class="cls-6" d="M1877,104.7s13.7,7,30.36-2.37,26.08-25.93,37.37-20.63c0,0,3.29,1,3.63,5.63s3,7.4-.49,9.53-13.24,13.8-34.54,14.8a327.87,327.87,0,0,1-35.19,0S1872.94,108.06,1877,104.7Z"/><path class="cls-7" d="M1848.64,70.82l4.53.68s1.83,1.67,0,2.83-4.27,1.33-4.2,3.5C1849,77.84,1845.77,72,1848.64,70.82Z"/><path class="cls-8" d="M1852.54,91.14s8.63,3.2,14.3-2.8c0,0-2.54,5.78-12.85,4.22Z"/><path class="cls-8" d="M1879.44,58.5s-7.1-.13-8.6,5.84,3.33,13.49,10.33,13S1894.37,58,1879.44,58.5Z"/><circle class="cls-4" cx="1876.5" cy="65.83" r="3.08"/><path class="cls-3" d="M1913.5,48.33a46,46,0,0,1-1.64-12.72c.3-5.94,5.64-21.11,20.47-15.61S1944,37.59,1944,37.59s.33,6.08-12,15.08c0,0-5,3.5-9.83,2S1914.15,51.07,1913.5,48.33Z"/><path class="cls-4" d="M1902.75,107.75s13.75-1.75,21-9.5,20.7-10.08,22.1-9.92l1.4.17s-4.25-2.6-11-.17S1915.5,107.25,1902.75,107.75Z"/><path class="cls-4" d="M1932.67,92.07s-6.65,6.48-11.43,8.45-3,.76-3,.76S1930.58,91.89,1932.67,92.07Z"/><path class="cls-4" d="M1929.79,94.67s6.89-4.32,8.74-4.85-3.28,0-3.28,0S1929.83,92.22,1929.79,94.67Z"/><path class="cls-4" d="M1891.75,109.13s17.75,2.38,29.25-3l11.5-5.37S1915,115.38,1891.75,109.13Z"/><path class="cls-4" d="M1925.68,19.05l4.53.35A14.6,14.6,0,0,0,1925.68,19.05Z"/><path class="cls-9" d="M1932.5,100.75S1920.5,106,1920,117s5.72,11.5,14.36,19.5,15.4,25.5,15.27,38.5,1.84,28.86,10.35,30.18,25.51,5.37,29-32.9S1968.5,98.5,1932.5,100.75Z"/><path class="cls-9" d="M1866.85,246.67s.15-14.79,3.82-26.06,20.13-31.94,38.07-27.27,22,25,19.15,31.67-12.22,15.67-12.55,24,4,30-20.67,30-30-2.33-32.67-8S1860.36,257.67,1866.85,246.67Z"/><path class="cls-2" d="M2053.69,158.5s-13.95,14.5-11.32,28,11.4,28.17,25,19.15S2053.69,158.5,2053.69,158.5Z"/><path class="cls-2" d="M2119,245.5s8,12,22.25,8c0,0,4.25,16,17.25,15s20.5-38,12.5-53.5-27.23-9-27.23-9L2109,228Z"/><path class="cls-3" d="M2086.36,39.52s-3.81-7.86,2.94-10.69,13.5,5.48,11.64,8.54C2100.94,37.37,2089.13,38.58,2086.36,39.52Z"/><path class="cls-4" d="M2043,75.33s-3.33-6,5.33-10,14-6.67,20-14.67,16-17.33,37.33-14c0,0,3.33-22.67,20.67-16.67s13.33,23.66,4,27.16c0,0,8.67,16.17,8,28.17s10,43.33,10,43.33,23.33,22.67,11.33,72.67-82.67,36-91.33,18-30-47.33-.67-82.67c0,0,4.67-4.67,4.67-20.67,0,0-10-10-16-10.67S2042.33,93.33,2043,75.33Z"/><path class="cls-4" d="M2141.85,96.87s16.86,33.22,18.95,47-34.13,2.44-34.13,2.44Z"/><path class="cls-4" d="M2053.36,172.28s-.11,32.32,25.26,46.19,8.71-44.13,8.71-44.13Z"/><path class="cls-5" d="M2072.39,214.31a35.13,35.13,0,0,0,7.07,4.59l.42.21c22.86,11.26,70.16,12.3,79.78-27.77,4.84-20.15,3.93-35.85,1.13-47.43v0c-2.09-13.8-18.95-47-18.95-47h0c-2.08-8.09-3.79-16.51-3.51-21.53.67-12-8-28.17-8-28.17,9.33-3.51,13.33-21.16-4-27.16a19.71,19.71,0,0,0-2.12-.59l-4.53-.35c-11.57,1-14,17.61-14,17.61a52.72,52.72,0,0,0-10.33-.65h0s25.45,6,26.72,25.32.61,26.35-7.72,33.34,2.33,7,2.33,7l-15.41,10.26s19.61-4.91,31.68,2.76,18.73,35,19.73,44-.67,49-28.67,54.33-50.65-.25-63.15-12.61A45.89,45.89,0,0,0,2072.39,214.31Z"/><path class="cls-6" d="M2071,104.7s13.7,7,30.36-2.37,26.08-25.93,37.37-20.63c0,0,3.29,1,3.63,5.63s3,7.4-.49,9.53-13.24,13.8-34.54,14.8a327.87,327.87,0,0,1-35.19,0S2066.94,108.06,2071,104.7Z"/><path class="cls-7" d="M2042.64,70.82l4.53.68s1.83,1.67,0,2.83-4.27,1.33-4.2,3.5C2043,77.84,2039.77,72,2042.64,70.82Z"/><path class="cls-8" d="M2046.54,91.14s8.63,3.2,14.3-2.8c0,0-2.54,5.78-12.85,4.22Z"/><path class="cls-8" d="M2073.44,58.5s-7.1-.13-8.6,5.84,3.33,13.49,10.33,13S2088.37,58,2073.44,58.5Z"/><circle class="cls-4" cx="2070.5" cy="65.83" r="3.08"/><path class="cls-3" d="M2107.5,48.33a46,46,0,0,1-1.64-12.72c.3-5.94,5.64-21.11,20.47-15.61S2138,37.59,2138,37.59s.33,6.08-12,15.08c0,0-5,3.5-9.83,2S2108.15,51.07,2107.5,48.33Z"/><path class="cls-4" d="M2096.75,107.75s13.75-1.75,21-9.5,20.7-10.08,22.1-9.92l1.4.17s-4.25-2.6-11-.17S2109.5,107.25,2096.75,107.75Z"/><path class="cls-4" d="M2126.67,92.07s-6.65,6.48-11.43,8.45-3,.76-3,.76S2124.58,91.89,2126.67,92.07Z"/><path class="cls-4" d="M2123.79,94.67s6.89-4.32,8.74-4.85-3.28,0-3.28,0S2123.83,92.22,2123.79,94.67Z"/><path class="cls-4" d="M2085.75,109.13s17.75,2.38,29.25-3l11.5-5.37S2109,115.38,2085.75,109.13Z"/><path class="cls-4" d="M2119.68,19.05l4.53.35A14.6,14.6,0,0,0,2119.68,19.05Z"/><path class="cls-9" d="M2128.36,110.68s-12.86,1.17-9.36,11.74,7.83,16.74,7.67,23.91S2116.94,162,2112,165s-20,18.38-15.22,31.44,20.64,20.63,41.28,9.54,33.47-26.48,28-63.48S2128.36,110.68,2128.36,110.68Z"/><path class="cls-9" d="M2101,190.67s-24.21-3.71-28.61,23.65,6.27,30,6.27,30-8.34-.67-7.33,11.33,7.33,23.33,24.5,23.33,30.83-3.33,27.83-24.67-.5-17,.42-22.67,3.58-24-2.75-30S2101,190.67,2101,190.67Z"/><path class="cls-2" d="M2286.12,209.74s-10.62,25.76,3.38,32.76,16.57,9,28,2.5,9.47-33.66,9.47-33.66Z"/><path class="cls-3" d="M2297.36,39.52s-3.81-7.86,2.94-10.69,13.5,5.48,11.64,8.54C2311.94,37.37,2300.13,38.58,2297.36,39.52Z"/><path class="cls-4" d="M2254,75.33s-3.33-6,5.33-10,14-6.67,20-14.67,16-17.33,37.33-14c0,0,3.33-22.67,20.67-16.67s13.33,23.66,4,27.16c0,0,8.67,16.17,8,28.17s10,43.33,10,43.33,23.33,22.67,11.33,72.67-82.67,36-91.33,18-30-47.33-.67-82.67c0,0,4.67-4.67,4.67-20.67,0,0-10-10-16-10.67S2253.33,93.33,2254,75.33Z"/><path class="cls-4" d="M2352.85,96.87s16.86,33.22,18.95,47-34.13,2.44-34.13,2.44Z"/><path class="cls-4" d="M2264.36,172.28s-.11,32.32,25.26,46.19,8.71-44.13,8.71-44.13Z"/><path class="cls-5" d="M2283.39,214.31a35.13,35.13,0,0,0,7.07,4.59l.42.21c22.86,11.26,70.16,12.3,79.78-27.77,4.84-20.15,3.93-35.85,1.13-47.43v0c-2.09-13.8-18.95-47-18.95-47h0c-2.08-8.09-3.79-16.51-3.51-21.53.67-12-8-28.17-8-28.17,9.33-3.51,13.33-21.16-4-27.16a19.71,19.71,0,0,0-2.12-.59l-4.53-.35c-11.57,1-14,17.61-14,17.61a52.72,52.72,0,0,0-10.33-.65h0s25.45,6,26.72,25.32.61,26.35-7.72,33.34,2.33,7,2.33,7l-15.41,10.26s19.61-4.91,31.68,2.76,18.73,35,19.73,44-.67,49-28.67,54.33-50.65-.25-63.15-12.61A45.89,45.89,0,0,0,2283.39,214.31Z"/><path class="cls-6" d="M2282,104.7s13.7,7,30.36-2.37,26.08-25.93,37.37-20.63c0,0,3.29,1,3.63,5.63s3,7.4-.49,9.53-13.24,13.8-34.54,14.8a327.87,327.87,0,0,1-35.19,0S2277.94,108.06,2282,104.7Z"/><path class="cls-7" d="M2253.64,70.82l4.53.68s1.83,1.67,0,2.83-4.27,1.33-4.2,3.5C2254,77.84,2250.77,72,2253.64,70.82Z"/><path class="cls-8" d="M2257.54,91.14s8.63,3.2,14.3-2.8c0,0-2.54,5.78-12.85,4.22Z"/><path class="cls-8" d="M2284.44,58.5s-7.1-.13-8.6,5.84,3.33,13.49,10.33,13S2299.37,58,2284.44,58.5Z"/><circle class="cls-4" cx="2281.5" cy="65.83" r="3.08"/><path class="cls-3" d="M2318.5,48.33a46,46,0,0,1-1.64-12.72c.3-5.94,5.64-21.11,20.47-15.61S2349,37.59,2349,37.59s.33,6.08-12,15.08c0,0-5,3.5-9.83,2S2319.15,51.07,2318.5,48.33Z"/><path class="cls-4" d="M2307.75,107.75s13.75-1.75,21-9.5,20.7-10.08,22.1-9.92l1.4.17s-4.25-2.6-11-.17S2320.5,107.25,2307.75,107.75Z"/><path class="cls-4" d="M2337.67,92.07s-6.65,6.48-11.43,8.45-3,.76-3,.76S2335.58,91.89,2337.67,92.07Z"/><path class="cls-4" d="M2334.79,94.67s6.89-4.32,8.74-4.85-3.28,0-3.28,0S2334.83,92.22,2334.79,94.67Z"/><path class="cls-4" d="M2296.75,109.13s17.75,2.38,29.25-3l11.5-5.37S2320,115.38,2296.75,109.13Z"/><path class="cls-4" d="M2330.68,19.05l4.53.35A14.6,14.6,0,0,0,2330.68,19.05Z"/><path class="cls-9" d="M2343.93,114.67s-15.43-5.57-18.43,9.13-6.45,24.16-21.22,26.93-27.78,14.77-22.78,29.77,15.57,22.38,36,15.94,38-17,44.71-45.71S2343.93,114.67,2343.93,114.67Z"/><path class="cls-9" d="M2303.71,194.67s-11,3-6.37,20.67,12,21,11.33,31.67-6.92,13.33,0,22.67S2331.33,279,2339,279s30.67-4.33,28.33-21-7.67-19.33-7.67-26.67S2355.75,182,2303.71,194.67Z"/><path class="cls-2" d="M59.44,205.64s-20.27,8.05-8.6,24.71,8.6,10.16,8.6,10.16-9.06,12.5,0,21,25.29,12,43.93-18.5S59.44,205.64,59.44,205.64Z"/><path class="cls-3" d="M76.36,40.52s-3.81-7.86,2.94-10.69,13.5,5.48,11.64,8.54C90.94,38.37,79.13,39.58,76.36,40.52Z"/><path class="cls-4" d="M33,76.33s-3.33-6,5.33-10,14-6.67,20-14.67,16-17.33,37.33-14c0,0,3.33-22.67,20.67-16.67s13.33,23.66,4,27.16c0,0,8.67,16.17,8,28.17s10,43.33,10,43.33,23.33,22.67,11.33,72.67-82.67,36-91.33,18-30-47.33-.67-82.67c0,0,4.67-4.67,4.67-20.67,0,0-10-10-16-10.67S32.33,94.33,33,76.33Z"/><path class="cls-4" d="M131.85,97.87s16.86,33.22,18.95,47-34.13,2.44-34.13,2.44Z"/><path class="cls-4" d="M43.36,173.28s-.11,32.32,25.26,46.19,8.71-44.13,8.71-44.13Z"/><path class="cls-5" d="M62.39,215.31a35.13,35.13,0,0,0,7.07,4.59l.42.21c22.86,11.26,70.16,12.3,79.78-27.77,4.84-20.15,3.93-35.85,1.13-47.43v0c-2.09-13.8-18.95-47-18.95-47h0c-2.08-8.09-3.79-16.51-3.51-21.53.67-12-8-28.17-8-28.17,9.33-3.51,13.33-21.16-4-27.16a19.71,19.71,0,0,0-2.12-.59l-4.53-.35c-11.57,1-14,17.61-14,17.61A52.72,52.72,0,0,0,85.33,37h0s25.45,6,26.72,25.32.61,26.35-7.72,33.34,2.33,7,2.33,7L91.26,112.91s19.61-4.91,31.68,2.76,18.73,35,19.73,44S142,208.67,114,214s-50.65-.25-63.15-12.61A45.89,45.89,0,0,0,62.39,215.31Z"/><path class="cls-6" d="M61,105.7s13.7,7,30.36-2.37,26.08-25.93,37.37-20.63c0,0,3.29,1,3.63,5.63s3,7.4-.49,9.53-13.24,13.8-34.54,14.8a327.87,327.87,0,0,1-35.19,0S56.94,109.06,61,105.7Z"/><path class="cls-7" d="M32.64,71.82l4.53.68s1.83,1.67,0,2.83-4.27,1.33-4.2,3.5C33,78.84,29.77,73,32.64,71.82Z"/><path class="cls-8" d="M36.54,92.14s8.63,3.2,14.3-2.8c0,0-2.54,5.78-12.85,4.22Z"/><path class="cls-8" d="M63.44,59.5s-7.1-.13-8.6,5.84,3.33,13.49,10.33,13S78.37,59,63.44,59.5Z"/><circle class="cls-4" cx="60.5" cy="66.83" r="3.08"/><path class="cls-3" d="M97.5,49.33a46,46,0,0,1-1.64-12.72c.3-5.94,5.64-21.11,20.47-15.61S128,38.59,128,38.59s.33,6.08-12,15.08c0,0-5,3.5-9.83,2S98.15,52.07,97.5,49.33Z"/><path class="cls-4" d="M86.75,108.75s13.75-1.75,21-9.5,20.7-10.08,22.1-9.92l1.4.17s-4.25-2.6-11-.17S99.5,108.25,86.75,108.75Z"/><path class="cls-4" d="M116.67,93.07s-6.65,6.48-11.43,8.45-3,.76-3,.76S114.58,92.89,116.67,93.07Z"/><path class="cls-4" d="M113.79,95.67s6.89-4.32,8.74-4.85-3.28,0-3.28,0S113.83,93.22,113.79,95.67Z"/><path class="cls-4" d="M75.75,110.13s17.75,2.38,29.25-3l11.5-5.37S99,116.38,75.75,110.13Z"/><path class="cls-4" d="M109.68,20.05l4.53.35A14.6,14.6,0,0,0,109.68,20.05Z"/><path class="cls-9" d="M118.36,111.68S108,98.76,100,114.63,92.91,151,82.71,154s-48.13,12-46.17,29,13.55,28,38.76,21.5,45.88-23.81,50.21-52.77S126.23,118.8,118.36,111.68Z"/><path class="cls-9" d="M108.33,193.3S78,199,87.33,219.67s17.33,19,16.67,27.67-5,10.33-5,16.33S105,280,116.67,280s29.86-8.33,36.43-23.33-.43-17-3.76-23-9.46-15-9.73-21.68S129,181.68,108.33,193.3Z"/><path class="cls-2" d="M343.61,188.09s20.94,7.46,25.17-14.81-18.2-43.59-34.13-49.5S343.61,188.09,343.61,188.09Z"/><path class="cls-2" d="M252.44,202l-8.6,17.5s-6.33,9.6-10.33,6.8-18.5-1.8-17,16.7,16.37,35.5,35.94,33.5,26.62-15.85,33.3-50.2S252.44,202,252.44,202Z"/><path class="cls-3" d="M269.36,40.52s-3.81-7.86,2.94-10.69,13.5,5.48,11.64,8.54C283.94,38.37,272.13,39.58,269.36,40.52Z"/><path class="cls-4" d="M226,76.33s-3.33-6,5.33-10,14-6.67,20-14.67,16-17.33,37.33-14c0,0,3.33-22.67,20.67-16.67s13.33,23.66,4,27.16c0,0,8.67,16.17,8,28.17s10,43.33,10,43.33,23.33,22.67,11.33,72.67-82.67,36-91.33,18-30-47.33-.67-82.67c0,0,4.67-4.67,4.67-20.67,0,0-10-10-16-10.67S225.33,94.33,226,76.33Z"/><path class="cls-4" d="M324.85,97.87s16.86,33.22,18.95,47-34.13,2.44-34.13,2.44Z"/><path class="cls-4" d="M236.36,173.28s-.11,32.32,25.26,46.19,8.71-44.13,8.71-44.13Z"/><path class="cls-5" d="M255.39,215.31a35.13,35.13,0,0,0,7.07,4.59l.42.21c22.86,11.26,70.16,12.3,79.78-27.77,4.84-20.15,3.93-35.85,1.13-47.43v0c-2.09-13.8-18.95-47-18.95-47h0c-2.08-8.09-3.79-16.51-3.51-21.53.67-12-8-28.17-8-28.17,9.33-3.51,13.33-21.16-4-27.16a19.71,19.71,0,0,0-2.12-.59l-4.53-.35c-11.57,1-14,17.61-14,17.61A52.72,52.72,0,0,0,278.33,37h0s25.45,6,26.72,25.32.61,26.35-7.72,33.34,2.33,7,2.33,7l-15.41,10.26s19.61-4.91,31.68,2.76,18.73,35,19.73,44S335,208.67,307,214s-50.65-.25-63.15-12.61A45.89,45.89,0,0,0,255.39,215.31Z"/><path class="cls-6" d="M254,105.7s13.7,7,30.36-2.37,26.08-25.93,37.37-20.63c0,0,3.29,1,3.63,5.63s3,7.4-.49,9.53-13.24,13.8-34.54,14.8a327.87,327.87,0,0,1-35.19,0S249.94,109.06,254,105.7Z"/><path class="cls-7" d="M225.64,71.82l4.53.68s1.83,1.67,0,2.83-4.27,1.33-4.2,3.5C226,78.84,222.77,73,225.64,71.82Z"/><path class="cls-8" d="M229.54,92.14s8.63,3.2,14.3-2.8c0,0-2.54,5.78-12.85,4.22Z"/><path class="cls-8" d="M256.44,59.5s-7.1-.13-8.6,5.84,3.33,13.49,10.33,13S271.37,59,256.44,59.5Z"/><circle class="cls-4" cx="253.5" cy="66.83" r="3.08"/><path class="cls-3" d="M290.5,49.33a46,46,0,0,1-1.64-12.72c.3-5.94,5.64-21.11,20.47-15.61S321,38.59,321,38.59s.33,6.08-12,15.08c0,0-5,3.5-9.83,2S291.15,52.07,290.5,49.33Z"/><path class="cls-4" d="M279.75,108.75s13.75-1.75,21-9.5,20.7-10.08,22.1-9.92l1.4.17s-4.25-2.6-11-.17S292.5,108.25,279.75,108.75Z"/><path class="cls-4" d="M309.67,93.07s-6.65,6.48-11.43,8.45-3,.76-3,.76S307.58,92.89,309.67,93.07Z"/><path class="cls-4" d="M306.79,95.67s6.89-4.32,8.74-4.85-3.28,0-3.28,0S306.83,93.22,306.79,95.67Z"/><path class="cls-4" d="M268.75,110.13s17.75,2.38,29.25-3l11.5-5.37S292,116.38,268.75,110.13Z"/><path class="cls-4" d="M302.68,20.05l4.53.35A14.6,14.6,0,0,0,302.68,20.05Z"/><path class="cls-9" d="M302.68,128S299,118.5,282,128s-26.24,23.25-43.87,21.62S208,146.5,205,164s10.72,36.38,31.36,33.44,39.8-15.94,52.47-30.44S310.87,135,302.68,128Z"/><path class="cls-9" d="M305.76,178.67S277,195.33,292.33,224s22.67,14,25.33,28-4.33,13.33,5,22.67,27,1.67,37.33-13.33,13-42.67,0-48.33-17.33-5.18-21-15.25S323.85,163.67,305.76,178.67Z"/><path class="cls-2" d="M1849,419s-15,8-15.49,19-1.83,27.17,11.82,34.33,15.88-45.83,15.88-45.83Z"/><path class="cls-2" d="M1932.1,489.8s14.6,11.2,8.94,26.87-2.37,10-2.37,10,4.95,8.67,5.46,12.33,5.49,16.33-22.49,21H1905s-22.32-.33-23.31-14,9.33-23.33,9.33-23.33,2.85-6.05-3.24-8.86S1881,494,1881,494l31.27-7.33Z"/><path class="cls-3" d="M1918.61,320.52s3.8-7.86-2.94-10.69-13.49,5.48-11.63,8.54C1904,318.37,1915.84,319.58,1918.61,320.52Z"/><path class="cls-4" d="M1961.94,356.33s3.33-6-5.33-10-14-6.67-20-14.67-16-17.33-37.3-14c0,0-3.33-22.67-20.65-16.67s-13.32,23.66-4,27.16c0,0-8.66,16.17-8,28.17s-10,43.33-10,43.33-23.31,22.67-11.32,72.67,82.6,36,91.26,18,30-47.33.67-82.67c0,0-4.66-4.67-4.66-20.67,0,0,10-10,16-10.67S1962.61,374.33,1961.94,356.33Z"/><path class="cls-4" d="M1863.17,377.87s-16.85,33.22-18.93,47,34.1,2.44,34.1,2.44Z"/><path class="cls-4" d="M1951.59,453.28s.11,32.32-25.24,46.19-8.7-44.13-8.7-44.13Z"/><path class="cls-5" d="M1932.57,495.31a35.1,35.1,0,0,1-7.07,4.59l-.42.21c-22.85,11.26-70.11,12.3-79.72-27.77-4.83-20.15-3.93-35.85-1.13-47.43v0c2.08-13.8,18.93-47,18.93-47h0c2.08-8.09,3.79-16.51,3.51-21.53-.67-12,8-28.17,8-28.17-9.33-3.51-13.32-21.16,4-27.16a19.68,19.68,0,0,1,2.11-.59l4.53-.35c11.56,1,14,17.61,14,17.61a52.64,52.64,0,0,1,10.32-.65h0s-25.43,6-26.7,25.32-.61,26.35,7.72,33.34-2.33,7-2.33,7l15.4,10.26s-19.59-4.91-31.65,2.76-18.72,35-19.72,44,.67,49,28.64,54.33,50.61-.25,63.1-12.61A45.89,45.89,0,0,1,1932.57,495.31Z"/><path class="cls-6" d="M1934,385.7s-13.69,7-30.34-2.37-26.06-25.93-37.34-20.63c0,0-3.29,1-3.62,5.63s-3,7.4.49,9.53,13.23,13.8,34.52,14.8a327.35,327.35,0,0,0,35.16,0S1938,389.06,1934,385.7Z"/><path class="cls-7" d="M1962.3,351.82l-4.53.68s-1.83,1.67,0,2.83,4.26,1.33,4.2,3.5C1962,358.84,1965.17,353,1962.3,351.82Z"/><path class="cls-8" d="M1958.4,372.14s-8.62,3.2-14.28-2.8c0,0,2.54,5.78,12.84,4.22Z"/><path class="cls-8" d="M1931.53,339.5s7.1-.13,8.59,5.84-3.33,13.49-10.33,13S1916.61,339,1931.53,339.5Z"/><circle class="cls-4" cx="1934.46" cy="346.83" r="3.08"/><path class="cls-3" d="M1897.49,329.33a46,46,0,0,0,1.64-12.72c-.3-5.94-5.63-21.11-20.45-15.61S1867,318.59,1867,318.59s-.33,6.08,12,15.08c0,0,5,3.5,9.83,2S1896.84,332.07,1897.49,329.33Z"/><path class="cls-4" d="M1908.23,388.75s-13.74-1.75-21-9.5-20.69-10.08-22.08-9.92l-1.4.17s4.25-2.6,11-.17S1895.49,388.25,1908.23,388.75Z"/><path class="cls-4" d="M1878.34,373.07s6.64,6.48,11.42,8.45,3,.76,3,.76S1880.42,372.89,1878.34,373.07Z"/><path class="cls-4" d="M1881.21,375.67s-6.89-4.32-8.73-4.85,3.28,0,3.28,0S1881.17,373.22,1881.21,375.67Z"/><path class="cls-4" d="M1919.22,390.13s-17.74,2.38-29.23-3l-11.49-5.37S1896,396.38,1919.22,390.13Z"/><path class="cls-4" d="M1885.32,300.05l-4.53.35A14.58,14.58,0,0,1,1885.32,300.05Z"/><path class="cls-9" d="M1895.49,403.45S1929.27,433,1944.11,440s35.32,11,31.82,32.5-20,28.5-51,11.5-47-57.9-48.32-62.19S1879.51,397.41,1895.49,403.45Z"/><path class="cls-9" d="M1855.69,521s28.37,4.38,37.33-14.14.79-43.52-16.6-50.19-25.72,1.67-30.05,10.33-7.66,16-14,15.67-14,1.67-15,15.67-1.67,50.33,19.32,50S1855.69,521,1855.69,521Z"/><path class="cls-2" d="M1725.38,496.58s10.24,8.92,5.75,19.42-7.49,18-5.75,20.5,12.63,12.5,3.19,18a46.42,46.42,0,0,1-46.12,0c-18.77-10.5-7.15-23.28-4.22-25.89s9-11.61,4.22-19.61S1719.52,493,1725.38,496.58Z"/><path class="cls-3" d="M1724.76,320.52s3.8-7.86-2.94-10.69-13.49,5.48-11.63,8.54C1710.2,318.37,1722,319.58,1724.76,320.52Z"/><path class="cls-4" d="M1768.09,356.33s3.33-6-5.33-10-14-6.67-20-14.67-16-17.33-37.3-14c0,0-3.33-22.67-20.65-16.67s-13.32,23.66-4,27.16c0,0-8.66,16.17-8,28.17s-10,43.33-10,43.33-23.31,22.67-11.32,72.67,82.6,36,91.26,18,30-47.33.67-82.67c0,0-4.66-4.67-4.66-20.67,0,0,10-10,16-10.67S1768.76,374.33,1768.09,356.33Z"/><path class="cls-4" d="M1669.33,377.87s-16.85,33.22-18.93,47,34.1,2.44,34.1,2.44Z"/><path class="cls-4" d="M1757.74,453.28s.11,32.32-25.24,46.19-8.7-44.13-8.7-44.13Z"/><path class="cls-5" d="M1738.72,495.31a35.1,35.1,0,0,1-7.07,4.59l-.42.21c-22.85,11.26-70.11,12.3-79.72-27.77-4.83-20.15-3.93-35.85-1.13-47.43v0c2.08-13.8,18.93-47,18.93-47h0c2.08-8.09,3.79-16.51,3.51-21.53-.67-12,8-28.17,8-28.17-9.33-3.51-13.32-21.16,4-27.16a19.68,19.68,0,0,1,2.11-.59l4.53-.35c11.56,1,14,17.61,14,17.61a52.64,52.64,0,0,1,10.32-.65h0s-25.43,6-26.7,25.32-.61,26.35,7.72,33.34-2.33,7-2.33,7l15.4,10.26s-19.59-4.91-31.65,2.76-18.72,35-19.72,44,.67,49,28.64,54.33,50.61-.25,63.1-12.61A45.89,45.89,0,0,1,1738.72,495.31Z"/><path class="cls-6" d="M1740.15,385.7s-13.69,7-30.34-2.37-26.06-25.93-37.34-20.63c0,0-3.29,1-3.62,5.63s-3,7.4.49,9.53,13.23,13.8,34.52,14.8a327.35,327.35,0,0,0,35.16,0S1744.17,389.06,1740.15,385.7Z"/><path class="cls-7" d="M1768.46,351.82l-4.53.68s-1.83,1.67,0,2.83,4.26,1.33,4.2,3.5C1768.13,358.84,1771.32,353,1768.46,351.82Z"/><path class="cls-8" d="M1764.56,372.14s-8.62,3.2-14.28-2.8c0,0,2.54,5.78,12.84,4.22Z"/><path class="cls-8" d="M1737.68,339.5s7.1-.13,8.59,5.84-3.33,13.49-10.33,13S1722.76,339,1737.68,339.5Z"/><circle class="cls-4" cx="1740.62" cy="346.83" r="3.08"/><path class="cls-3" d="M1703.64,329.33a46,46,0,0,0,1.64-12.72c-.3-5.94-5.63-21.11-20.45-15.61s-11.66,17.59-11.66,17.59-.33,6.08,12,15.08c0,0,5,3.5,9.83,2S1703,332.07,1703.64,329.33Z"/><path class="cls-4" d="M1714.39,388.75s-13.74-1.75-21-9.5-20.69-10.08-22.08-9.92l-1.4.17s4.25-2.6,11-.17S1701.65,388.25,1714.39,388.75Z"/><path class="cls-4" d="M1684.49,373.07s6.64,6.48,11.42,8.45,3,.76,3,.76S1686.57,372.89,1684.49,373.07Z"/><path class="cls-4" d="M1687.37,375.67s-6.89-4.32-8.73-4.85,3.28,0,3.28,0S1687.32,373.22,1687.37,375.67Z"/><path class="cls-4" d="M1725.38,390.13s-17.74,2.38-29.23-3l-11.49-5.37S1702.15,396.38,1725.38,390.13Z"/><path class="cls-4" d="M1691.47,300.05l-4.53.35A14.58,14.58,0,0,1,1691.47,300.05Z"/><path class="cls-9" d="M1702.65,403.45s7.48,4,7.24,12,3.75,20,22.74,28,37.47,20,28,40-33.94,13-52.19-9.5-28-42.5-25.61-60S1702.65,403.45,1702.65,403.45Z"/><path class="cls-9" d="M1650.3,470.33s8.28-3.1,10.41-6.55,17.12-11.67,29.44,3.28,20.32,36.61,0,47.94-30.31-3-36.3,3-3.33,16-18,15.33-14.32-20.67-14.66-29.67-4-30.67,9-36.67S1634.77,471.67,1650.3,470.33Z"/><path class="cls-2" d="M1347.74,435.17S1364.41,447,1363.41,462s-10.11,32.9-26.54,25.2-2.85-44-2.85-44Z"/><path class="cls-2" d="M1288.11,545s1,15-13.3,15-35-2.5-36.4-33.5c0,0-1.67-5.29,5.46-16.15s-3.24-29.35-3.24-29.35l37.06,3.5Z"/><path class="cls-3" d="M1315.09,320.52s3.8-7.86-2.94-10.69-13.49,5.48-11.63,8.54C1300.52,318.37,1312.32,319.58,1315.09,320.52Z"/><path class="cls-4" d="M1358.42,356.33s3.33-6-5.33-10-14-6.67-20-14.67-16-17.33-37.3-14c0,0-3.33-22.67-20.65-16.67s-13.32,23.66-4,27.16c0,0-8.66,16.17-8,28.17s-10,43.33-10,43.33-23.31,22.67-11.32,72.67,82.6,36,91.26,18,30-47.33.67-82.67c0,0-4.66-4.67-4.66-20.67,0,0,10-10,16-10.67S1359.08,374.33,1358.42,356.33Z"/><path class="cls-4" d="M1259.65,377.87s-16.85,33.22-18.93,47,34.1,2.44,34.1,2.44Z"/><path class="cls-4" d="M1348.07,453.28s.11,32.32-25.24,46.19-8.7-44.13-8.7-44.13Z"/><path class="cls-5" d="M1329,495.31a35.1,35.1,0,0,1-7.07,4.59l-.42.21c-22.85,11.26-70.11,12.3-79.72-27.77-4.83-20.15-3.93-35.85-1.13-47.43v0c2.08-13.8,18.93-47,18.93-47h0c2.08-8.09,3.79-16.51,3.51-21.53-.67-12,8-28.17,8-28.17-9.33-3.51-13.32-21.16,4-27.16a19.68,19.68,0,0,1,2.11-.59l4.53-.35c11.56,1,14,17.61,14,17.61a52.64,52.64,0,0,1,10.32-.65h0s-25.43,6-26.7,25.32-.61,26.35,7.72,33.34-2.33,7-2.33,7l15.4,10.26s-19.59-4.91-31.65,2.76-18.72,35-19.72,44,.67,49,28.64,54.33,50.61-.25,63.1-12.61A45.89,45.89,0,0,1,1329,495.31Z"/><path class="cls-6" d="M1330.47,385.7s-13.69,7-30.34-2.37-26.06-25.93-37.34-20.63c0,0-3.29,1-3.62,5.63s-3,7.4.49,9.53,13.23,13.8,34.52,14.8a327.35,327.35,0,0,0,35.16,0S1334.5,389.06,1330.47,385.7Z"/><path class="cls-7" d="M1358.78,351.82l-4.53.68s-1.83,1.67,0,2.83,4.26,1.33,4.2,3.5C1358.45,358.84,1361.64,353,1358.78,351.82Z"/><path class="cls-8" d="M1354.88,372.14s-8.62,3.2-14.28-2.8c0,0,2.54,5.78,12.84,4.22Z"/><path class="cls-8" d="M1328,339.5s7.1-.13,8.59,5.84-3.33,13.49-10.33,13S1313.08,339,1328,339.5Z"/><circle class="cls-4" cx="1330.94" cy="346.83" r="3.08"/><path class="cls-3" d="M1294,329.33a46,46,0,0,0,1.64-12.72c-.3-5.94-5.63-21.11-20.45-15.61s-11.66,17.59-11.66,17.59-.33,6.08,12,15.08c0,0,5,3.5,9.83,2S1293.31,332.07,1294,329.33Z"/><path class="cls-4" d="M1304.71,388.75s-13.74-1.75-21-9.5-20.69-10.08-22.08-9.92l-1.4.17s4.25-2.6,11-.17S1292,388.25,1304.71,388.75Z"/><path class="cls-4" d="M1274.82,373.07s6.64,6.48,11.42,8.45,3,.76,3,.76S1276.9,372.89,1274.82,373.07Z"/><path class="cls-4" d="M1277.69,375.67s-6.89-4.32-8.73-4.85,3.28,0,3.28,0S1277.65,373.22,1277.69,375.67Z"/><path class="cls-4" d="M1315.7,390.13s-17.74,2.38-29.23-3L1275,381.75S1292.47,396.38,1315.7,390.13Z"/><path class="cls-4" d="M1281.79,300.05l-4.53.35A14.58,14.58,0,0,1,1281.79,300.05Z"/><path class="cls-9" d="M1274.1,393.11s11.38,2.49,10.88,11.69-2.94,12.19-7.71,17.7-.75,19,7.73,26.5,22,15.09,15.22,31-19.25,21.5-27.08,21.61S1248.24,498,1240.63,481s-13.15-54.19,2.38-77.55S1274.1,393.11,1274.1,393.11Z"/><path class="cls-9" d="M1294.93,472s18.52,3,28.18,15,2,33.67,2,33.67,9.12,8.67,6.89,16.33-9.69,20-33.27,13.33-28.58-13.67-27.24-21.33l1.33-7.67s-21.32-14.67-24-18.33-6-8-4.66-21S1294.93,472,1294.93,472Z"/><path class="cls-2" d="M1140.59,429.62a22.32,22.32,0,0,0,14.28,0c7.71-2.62,23.19.69,24.19,18.53S1167,480.5,1135,475.5,1140.59,429.62,1140.59,429.62Z"/><path class="cls-2" d="M1093.09,510.35s-13,10.65-17.45,13.15-9.49,6.5-9,14-1.68,20-15.33,21.25-37.66-15.75-35.15-44.25,25-30,25-30S1095.06,486.21,1093.09,510.35Z"/><path class="cls-3" d="M1113.25,320.52s3.8-7.86-2.94-10.69-13.49,5.48-11.63,8.54C1098.68,318.37,1110.48,319.58,1113.25,320.52Z"/><path class="cls-4" d="M1156.58,356.33s3.33-6-5.33-10-14-6.67-20-14.67-16-17.33-37.3-14c0,0-3.33-22.67-20.65-16.67s-13.32,23.66-4,27.16c0,0-8.66,16.17-8,28.17s-10,43.33-10,43.33S1028,422.33,1040,472.33s82.6,36,91.26,18,30-47.33.67-82.67c0,0-4.66-4.67-4.66-20.67,0,0,10-10,16-10.67S1157.24,374.33,1156.58,356.33Z"/><path class="cls-4" d="M1057.81,377.87s-16.85,33.22-18.93,47,34.1,2.44,34.1,2.44Z"/><path class="cls-4" d="M1146.23,453.28s.11,32.32-25.24,46.19-8.7-44.13-8.7-44.13Z"/><path class="cls-5" d="M1127.21,495.31a35.1,35.1,0,0,1-7.07,4.59l-.42.21c-22.85,11.26-70.11,12.3-79.72-27.77-4.83-20.15-3.93-35.85-1.13-47.43v0c2.08-13.8,18.93-47,18.93-47h0c2.08-8.09,3.79-16.51,3.51-21.53-.67-12,8-28.17,8-28.17-9.33-3.51-13.32-21.16,4-27.16a19.68,19.68,0,0,1,2.11-.59l4.53-.35c11.56,1,14,17.61,14,17.61a52.64,52.64,0,0,1,10.32-.65h0s-25.43,6-26.7,25.32-.61,26.35,7.72,33.34-2.33,7-2.33,7l15.4,10.26s-19.59-4.91-31.65,2.76-18.72,35-19.72,44,.67,49,28.64,54.33,50.61-.25,63.1-12.61A45.89,45.89,0,0,1,1127.21,495.31Z"/><path class="cls-6" d="M1128.63,385.7s-13.69,7-30.34-2.37-26.06-25.93-37.34-20.63c0,0-3.29,1-3.62,5.63s-3,7.4.49,9.53,13.23,13.8,34.52,14.8a327.35,327.35,0,0,0,35.16,0S1132.66,389.06,1128.63,385.7Z"/><path class="cls-7" d="M1156.94,351.82l-4.53.68s-1.83,1.67,0,2.83,4.26,1.33,4.2,3.5C1156.61,358.84,1159.8,353,1156.94,351.82Z"/><path class="cls-8" d="M1153,372.14s-8.62,3.2-14.28-2.8c0,0,2.54,5.78,12.84,4.22Z"/><path class="cls-8" d="M1126.17,339.5s7.1-.13,8.59,5.84-3.33,13.49-10.33,13S1111.24,339,1126.17,339.5Z"/><circle class="cls-4" cx="1129.1" cy="346.83" r="3.08"/><path class="cls-3" d="M1092.13,329.33a46,46,0,0,0,1.64-12.72c-.3-5.94-5.63-21.11-20.45-15.61s-11.66,17.59-11.66,17.59-.33,6.08,12,15.08c0,0,5,3.5,9.83,2S1091.47,332.07,1092.13,329.33Z"/><path class="cls-4" d="M1102.87,388.75s-13.74-1.75-21-9.5-20.69-10.08-22.08-9.92l-1.4.17s4.25-2.6,11-.17S1090.13,388.25,1102.87,388.75Z"/><path class="cls-4" d="M1073,373.07s6.64,6.48,11.42,8.45,3,.76,3,.76S1075.06,372.89,1073,373.07Z"/><path class="cls-4" d="M1075.85,375.67s-6.89-4.32-8.73-4.85,3.28,0,3.28,0S1075.81,373.22,1075.85,375.67Z"/><path class="cls-4" d="M1113.86,390.13s-17.74,2.38-29.23-3l-11.49-5.37S1090.63,396.38,1113.86,390.13Z"/><path class="cls-4" d="M1080,300.05l-4.53.35A14.58,14.58,0,0,1,1080,300.05Z"/><path class="cls-9" d="M1075.85,378.52s20.28,7.89,4.79,24.93-22.27,17.94-24.76,45-3.22,40.5-14.21,41.5-26-8.4-25.48-44.45S1053.41,373.71,1075.85,378.52Z"/><path class="cls-9" d="M1086.47,466s17.49-9,32.81,3.33,24.65,32.27,24.65,32.27,2.66,3.06,5.66,3.06,8.33-3,14.32,3.67,8.66,25-4.33,36.67-37.14,19.33-45.71,5.33-2.72-19-17-29.67S1055.66,486,1086.47,466Z"/><path class="cls-2" d="M745.18,419.5s10.55-14.5,29.54-7,15.49,32,9,36.5-10.07,15.41-38.53,17.5S745.18,419.5,745.18,419.5Z"/><path class="cls-2" d="M694.28,505.5s-3.79,15.31-16.88,16.16-18.59-4.16-18.59,3.84S662.72,546,646,547s-23.69-12.56-23.69-28.28-5-38.34,6.49-41.28,13.16,8.31,21.32-5.11S694.28,505.5,694.28,505.5Z"/><path class="cls-3" d="M723.4,320.52s3.8-7.86-2.94-10.69-13.49,5.48-11.63,8.54C708.83,318.37,720.63,319.58,723.4,320.52Z"/><path class="cls-4" d="M766.72,356.33s3.33-6-5.33-10-14-6.67-20-14.67-16-17.33-37.3-14c0,0-3.33-22.67-20.65-16.67s-13.32,23.66-4,27.16c0,0-8.66,16.17-8,28.17s-10,43.33-10,43.33-23.31,22.67-11.32,72.67,82.6,36,91.26,18,30-47.33.67-82.67c0,0-4.66-4.67-4.66-20.67,0,0,10-10,16-10.67S767.39,374.33,766.72,356.33Z"/><path class="cls-4" d="M668,377.87s-16.85,33.22-18.93,47,34.1,2.44,34.1,2.44Z"/><path class="cls-4" d="M756.37,453.28s.11,32.32-25.24,46.19-8.7-44.13-8.7-44.13Z"/><path class="cls-5" d="M737.35,495.31a35.1,35.1,0,0,1-7.07,4.59l-.42.21c-22.85,11.26-70.11,12.3-79.72-27.77-4.83-20.15-3.93-35.85-1.13-47.43v0c2.08-13.8,18.93-47,18.93-47h0c2.08-8.09,3.79-16.51,3.51-21.53-.67-12,8-28.17,8-28.17-9.33-3.51-13.32-21.16,4-27.16a19.68,19.68,0,0,1,2.11-.59l4.53-.35c11.56,1,14,17.61,14,17.61a52.64,52.64,0,0,1,10.32-.65h0s-25.43,6-26.7,25.32-.61,26.35,7.72,33.34-2.33,7-2.33,7l15.4,10.26s-19.59-4.91-31.65,2.76-18.72,35-19.72,44,.67,49,28.64,54.33,50.61-.25,63.1-12.61A45.89,45.89,0,0,1,737.35,495.31Z"/><path class="cls-6" d="M738.78,385.7s-13.69,7-30.34-2.37-26.06-25.93-37.34-20.63c0,0-3.29,1-3.62,5.63s-3,7.4.49,9.53,13.23,13.8,34.52,14.8a327.35,327.35,0,0,0,35.16,0S742.8,389.06,738.78,385.7Z"/><path class="cls-7" d="M767.09,351.82l-4.53.68s-1.83,1.67,0,2.83,4.26,1.33,4.2,3.5C766.76,358.84,770,353,767.09,351.82Z"/><path class="cls-8" d="M763.19,372.14s-8.62,3.2-14.28-2.8c0,0,2.54,5.78,12.84,4.22Z"/><path class="cls-8" d="M736.31,339.5s7.1-.13,8.59,5.84-3.33,13.49-10.33,13S721.39,339,736.31,339.5Z"/><circle class="cls-4" cx="739.25" cy="346.83" r="3.08"/><path class="cls-3" d="M702.28,329.33a46,46,0,0,0,1.64-12.72c-.3-5.94-5.63-21.11-20.45-15.61s-11.66,17.59-11.66,17.59-.33,6.08,12,15.08c0,0,5,3.5,9.83,2S701.62,332.07,702.28,329.33Z"/><path class="cls-4" d="M713,388.75s-13.74-1.75-21-9.5-20.69-10.08-22.08-9.92l-1.4.17s4.25-2.6,11-.17S700.28,388.25,713,388.75Z"/><path class="cls-4" d="M683.12,373.07s6.64,6.48,11.42,8.45,3,.76,3,.76S685.21,372.89,683.12,373.07Z"/><path class="cls-4" d="M686,375.67s-6.89-4.32-8.73-4.85,3.28,0,3.28,0S686,373.22,686,375.67Z"/><path class="cls-4" d="M724,390.13s-17.74,2.38-29.23-3l-11.49-5.37S700.78,396.38,724,390.13Z"/><path class="cls-4" d="M690.1,300.05l-4.53.35A14.58,14.58,0,0,1,690.1,300.05Z"/><path class="cls-9" d="M685.89,380.67s13.65,9.05,10,20.64-11.65,20.59-24.57,26.15-21.87,19.25-25.13,29.94-10.58,21.11-22.29,20-14.67-22-12.5-37.56S659.53,372.56,685.89,380.67Z"/><path class="cls-9" d="M708.77,465.33s27.31,9,34.64,26.33,1,25,0,29.67-2,10,3.49,16.33,3.44,18.09-10.18,20.21-34.27.79-41.6-8.88,0-17.33,1.33-21.33,2-17-8-23.33-15-13-7.33-30.33S708.77,465.33,708.77,465.33Z"/><path class="cls-2" d="M952.05,418.5s7.6,4,18.46,0,29.35-2.85,29.35,14.58-4,37.42-43.47,31.42-20.48-23.41-20.48-23.41Z"/><path class="cls-2" d="M901,515.83s-12,17.67-29.25,15.17c0,0,11.74,25.5-9.24,28s-30.48-34.34-30-43.17S835,503.71,843,500.61s14.57-14.73,17.49-24.68S901,515.83,901,515.83Z"/><path class="cls-3" d="M926.56,319.52s3.8-7.86-2.94-10.69-13.49,5.48-11.63,8.54C912,317.37,923.79,318.58,926.56,319.52Z"/><path class="cls-4" d="M969.89,355.33s3.33-6-5.33-10-14-6.67-20-14.67-16-17.33-37.3-14c0,0-3.33-22.67-20.65-16.67s-13.32,23.66-4,27.16c0,0-8.66,16.17-8,28.17s-10,43.33-10,43.33-23.31,22.67-11.32,72.67,82.6,36,91.26,18,30-47.33.67-82.67c0,0-4.66-4.67-4.66-20.67,0,0,10-10,16-10.67S970.55,373.33,969.89,355.33Z"/><path class="cls-4" d="M871.12,376.87s-16.85,33.22-18.93,47,34.1,2.44,34.1,2.44Z"/><path class="cls-4" d="M959.53,452.28s.11,32.32-25.24,46.19-8.7-44.13-8.7-44.13Z"/><path class="cls-5" d="M940.52,494.31a35.1,35.1,0,0,1-7.07,4.59l-.42.21c-22.85,11.26-70.11,12.3-79.72-27.77-4.83-20.15-3.93-35.85-1.13-47.43v0c2.08-13.8,18.93-47,18.93-47h0c2.08-8.09,3.79-16.51,3.51-21.53-.67-12,8-28.17,8-28.17-9.33-3.51-13.32-21.16,4-27.16a19.68,19.68,0,0,1,2.11-.59l4.53-.35c11.56,1,14,17.61,14,17.61a52.64,52.64,0,0,1,10.32-.65h0s-25.43,6-26.7,25.32-.61,26.35,7.72,33.34-2.33,7-2.33,7l15.4,10.26S892.08,387,880,394.67s-18.72,35-19.72,44,.67,49,28.64,54.33,50.61-.25,63.1-12.61A45.89,45.89,0,0,1,940.52,494.31Z"/><path class="cls-6" d="M941.94,384.7s-13.69,7-30.34-2.37-26.06-25.93-37.34-20.63c0,0-3.29,1-3.62,5.63s-3,7.4.49,9.53,13.23,13.8,34.52,14.8a327.35,327.35,0,0,0,35.16,0S946,388.06,941.94,384.7Z"/><path class="cls-7" d="M970.25,350.82l-4.53.68s-1.83,1.67,0,2.83,4.26,1.33,4.2,3.5C969.92,357.84,973.11,352,970.25,350.82Z"/><path class="cls-8" d="M966.35,371.14s-8.62,3.2-14.28-2.8c0,0,2.54,5.78,12.84,4.22Z"/><path class="cls-8" d="M939.47,338.5s7.1-.13,8.59,5.84-3.33,13.49-10.33,13S924.55,338,939.47,338.5Z"/><circle class="cls-4" cx="942.41" cy="345.83" r="3.08"/><path class="cls-3" d="M905.44,328.33a46,46,0,0,0,1.64-12.72c-.3-5.94-5.63-21.11-20.45-15.61S875,317.59,875,317.59s-.33,6.08,12,15.08c0,0,5,3.5,9.83,2S904.78,331.07,905.44,328.33Z"/><path class="cls-4" d="M916.18,387.75s-13.74-1.75-21-9.5-20.69-10.08-22.08-9.92l-1.4.17s4.25-2.6,11-.17S903.44,387.25,916.18,387.75Z"/><path class="cls-4" d="M886.28,372.07s6.64,6.48,11.42,8.45,3,.76,3,.76S888.37,371.89,886.28,372.07Z"/><path class="cls-4" d="M889.16,374.67s-6.89-4.32-8.73-4.85,3.28,0,3.28,0S889.12,372.22,889.16,374.67Z"/><path class="cls-4" d="M927.17,389.13s-17.74,2.38-29.23-3l-11.49-5.37S903.94,395.38,927.17,389.13Z"/><path class="cls-4" d="M893.26,299.05l-4.53.35A14.58,14.58,0,0,1,893.26,299.05Z"/><path class="cls-9" d="M880.16,384.15s15.33,4.18,15.48,14.26-4.42,19.13-15.26,24-22.51,6.4-29.84,35.5-17,25-24.66,24.58-23.37-14.66-14.31-42.32S851.35,380.17,880.16,384.15Z"/><path class="cls-9" d="M947.57,510s-4.66-19.62-18.32-28.62-28-5.67-33,2-13.19,22.67-2.93,36.33a226.37,226.37,0,0,1,16.85,26s7.39,14.33,16.05,13.83,25.93-8.83,33.28-17.83,6-21.33,1.69-26S947.57,510,947.57,510Z"/><path class="cls-2" d="M545.43,434.31S579.53,440.5,576,459s-11.35,27.27-36.82,22.39S545.43,434.31,545.43,434.31Z"/><path class="cls-2" d="M490.11,506.86S482.56,538,456.36,528c0,0-2.42,17.5-19.31,13.5s-24.83-26.81-7.62-57.15S488.13,482,488.13,482Z"/><path class="cls-3" d="M513.72,320.52s3.8-7.86-2.94-10.69-13.49,5.48-11.63,8.54C499.16,318.37,511,319.58,513.72,320.52Z"/><path class="cls-4" d="M557.05,356.33s3.33-6-5.33-10-14-6.67-20-14.67-16-17.33-37.3-14c0,0-3.33-22.67-20.65-16.67s-13.32,23.66-4,27.16c0,0-8.66,16.17-8,28.17s-10,43.33-10,43.33-23.31,22.67-11.32,72.67,82.6,36,91.26,18,30-47.33.67-82.67c0,0-4.66-4.67-4.66-20.67,0,0,10-10,16-10.67S557.72,374.33,557.05,356.33Z"/><path class="cls-4" d="M458.28,377.87s-16.85,33.22-18.93,47,34.1,2.44,34.1,2.44Z"/><path class="cls-4" d="M546.7,453.28s.11,32.32-25.24,46.19-8.7-44.13-8.7-44.13Z"/><path class="cls-5" d="M527.68,495.31a35.1,35.1,0,0,1-7.07,4.59l-.42.21c-22.85,11.26-70.11,12.3-79.72-27.77-4.83-20.15-3.93-35.85-1.13-47.43v0c2.08-13.8,18.93-47,18.93-47h0c2.08-8.09,3.79-16.51,3.51-21.53-.67-12,8-28.17,8-28.17-9.33-3.51-13.32-21.16,4-27.16a19.68,19.68,0,0,1,2.11-.59l4.53-.35c11.56,1,14,17.61,14,17.61a52.64,52.64,0,0,1,10.32-.65h0s-25.43,6-26.7,25.32-.61,26.35,7.72,33.34-2.33,7-2.33,7l15.4,10.26s-19.59-4.91-31.65,2.76-18.72,35-19.72,44,.67,49,28.64,54.33,50.61-.25,63.1-12.61A45.89,45.89,0,0,1,527.68,495.31Z"/><path class="cls-6" d="M529.1,385.7s-13.69,7-30.34-2.37-26.06-25.93-37.34-20.63c0,0-3.29,1-3.62,5.63s-3,7.4.49,9.53,13.23,13.8,34.52,14.8a327.35,327.35,0,0,0,35.16,0S533.13,389.06,529.1,385.7Z"/><path class="cls-7" d="M557.42,351.82l-4.53.68s-1.83,1.67,0,2.83,4.26,1.33,4.2,3.5C557.08,358.84,560.28,353,557.42,351.82Z"/><path class="cls-8" d="M553.52,372.14s-8.62,3.2-14.28-2.8c0,0,2.54,5.78,12.84,4.22Z"/><path class="cls-8" d="M526.64,339.5s7.1-.13,8.59,5.84-3.33,13.49-10.33,13S511.72,339,526.64,339.5Z"/><circle class="cls-4" cx="529.57" cy="346.83" r="3.08"/><path class="cls-4" d="M503.34,388.75s-13.74-1.75-21-9.5-20.69-10.08-22.08-9.92l-1.4.17s4.25-2.6,11-.17S490.6,388.25,503.34,388.75Z"/><path class="cls-4" d="M473.45,373.07s6.64,6.48,11.42,8.45,3,.76,3,.76S475.53,372.89,473.45,373.07Z"/><path class="cls-4" d="M476.32,375.67s-6.89-4.32-8.73-4.85,3.28,0,3.28,0S476.28,373.22,476.32,375.67Z"/><path class="cls-4" d="M514.34,390.13s-17.74,2.38-29.23-3l-11.49-5.37S491.1,396.38,514.34,390.13Z"/><path class="cls-9" d="M473.62,381.75s12,5.25,12.49,16.25-5.72,11.5-14.35,19.5S456.37,443,456.5,456s-1.84,28.86-10.35,30.18-25.49,5.37-29-32.9S437.65,379.5,473.62,381.75Z"/><path class="cls-9" d="M539.22,527.67s-.15-14.79-3.82-26.06-20.12-31.94-38-27.27-22,25-19.13,31.67,12.21,15.67,12.54,24-4,30,20.65,30,30-2.33,32.64-8S545.7,538.67,539.22,527.67Z"/><path class="cls-2" d="M352.53,439.5s13.93,14.5,11.31,28-11.4,28.17-25,19.15S352.53,439.5,352.53,439.5Z"/><path class="cls-2" d="M287.27,526.5s-8,12-22.23,8c0,0-4.25,16-17.24,15s-20.48-38-12.49-53.5,27.2-9,27.2-9l34.75,22Z"/><path class="cls-3" d="M319.88,320.52s3.8-7.86-2.94-10.69-13.49,5.48-11.63,8.54C305.31,318.37,317.11,319.58,319.88,320.52Z"/><path class="cls-4" d="M363.21,356.33s3.33-6-5.33-10-14-6.67-20-14.67-16-17.33-37.3-14c0,0-3.33-22.67-20.65-16.67s-13.32,23.66-4,27.16c0,0-8.66,16.17-8,28.17s-10,43.33-10,43.33-23.31,22.67-11.32,72.67,82.6,36,91.26,18,30-47.33.67-82.67c0,0-4.66-4.67-4.66-20.67,0,0,10-10,16-10.67S363.87,374.33,363.21,356.33Z"/><path class="cls-4" d="M264.44,377.87s-16.85,33.22-18.93,47,34.1,2.44,34.1,2.44Z"/><path class="cls-4" d="M352.85,453.28s.11,32.32-25.24,46.19-8.7-44.13-8.7-44.13Z"/><path class="cls-5" d="M333.84,495.31a35.1,35.1,0,0,1-7.07,4.59l-.42.21c-22.85,11.26-70.11,12.3-79.72-27.77-4.83-20.15-3.93-35.85-1.13-47.43v0c2.08-13.8,18.93-47,18.93-47h0c2.08-8.09,3.79-16.51,3.51-21.53-.67-12,8-28.17,8-28.17-9.33-3.51-13.32-21.16,4-27.16a19.68,19.68,0,0,1,2.11-.59l4.53-.35c11.56,1,14,17.61,14,17.61a52.64,52.64,0,0,1,10.32-.65h0s-25.43,6-26.7,25.32-.61,26.35,7.72,33.34-2.33,7-2.33,7L305,392.91s-19.59-4.91-31.65,2.76-18.72,35-19.72,44,.67,49,28.64,54.33,50.61-.25,63.1-12.61A45.89,45.89,0,0,1,333.84,495.31Z"/><path class="cls-6" d="M335.26,385.7s-13.69,7-30.34-2.37-26.06-25.93-37.34-20.63c0,0-3.29,1-3.62,5.63s-3,7.4.49,9.53,13.23,13.8,34.52,14.8a327.35,327.35,0,0,0,35.16,0S339.28,389.06,335.26,385.7Z"/><path class="cls-7" d="M363.57,351.82l-4.53.68s-1.83,1.67,0,2.83,4.26,1.33,4.2,3.5C363.24,358.84,366.43,353,363.57,351.82Z"/><path class="cls-8" d="M359.67,372.14s-8.62,3.2-14.28-2.8c0,0,2.54,5.78,12.84,4.22Z"/><path class="cls-8" d="M332.79,339.5s7.1-.13,8.59,5.84-3.33,13.49-10.33,13S317.87,339,332.79,339.5Z"/><circle class="cls-4" cx="335.73" cy="346.83" r="3.08"/><path class="cls-3" d="M298.76,329.33a46,46,0,0,0,1.64-12.72c-.3-5.94-5.63-21.11-20.45-15.61s-11.66,17.59-11.66,17.59-.33,6.08,12,15.08c0,0,5,3.5,9.83,2S298.1,332.07,298.76,329.33Z"/><path class="cls-4" d="M309.5,388.75s-13.74-1.75-21-9.5-20.69-10.08-22.08-9.92l-1.4.17s4.25-2.6,11-.17S296.76,388.25,309.5,388.75Z"/><path class="cls-4" d="M279.6,373.07s6.64,6.48,11.42,8.45,3,.76,3,.76S281.69,372.89,279.6,373.07Z"/><path class="cls-4" d="M282.48,375.67s-6.89-4.32-8.73-4.85,3.28,0,3.28,0S282.44,373.22,282.48,375.67Z"/><path class="cls-4" d="M320.49,390.13s-17.74,2.38-29.23-3l-11.49-5.37S297.26,396.38,320.49,390.13Z"/><path class="cls-4" d="M286.58,300.05l-4.53.35A14.58,14.58,0,0,1,286.58,300.05Z"/><path class="cls-9" d="M277.91,391.68s12.85,1.17,9.35,11.74-7.83,16.74-7.66,23.91S289.32,443,294.29,446s20,18.38,15.21,31.44-20.62,20.63-41.25,9.54S234.81,460.5,240.3,423.5,277.91,391.68,277.91,391.68Z"/><path class="cls-9" d="M305.25,471.67s24.19-3.71,28.58,23.65-6.27,30-6.27,30,8.33-.67,7.33,11.33S327.57,560,310.41,560s-30.81-3.33-27.81-24.67.5-17-.41-22.67-3.58-24,2.75-30S305.25,471.67,305.25,471.67Z"/><path class="cls-2" d="M120.28,490.74s10.61,25.76-3.38,32.76-16.56,9-28,2.5-9.46-33.66-9.46-33.66Z"/><path class="cls-3" d="M109,320.52s3.8-7.86-2.94-10.69-13.49,5.48-11.63,8.54C94.48,318.37,106.27,319.58,109,320.52Z"/><path class="cls-4" d="M152.37,356.33s3.33-6-5.33-10-14-6.67-20-14.67-16-17.33-37.3-14c0,0-3.33-22.67-20.65-16.67s-13.32,23.66-4,27.16c0,0-8.66,16.17-8,28.17s-10,43.33-10,43.33S23.81,422.33,35.8,472.33s82.6,36,91.26,18,30-47.33.67-82.67c0,0-4.66-4.67-4.66-20.67,0,0,10-10,16-10.67S153,374.33,152.37,356.33Z"/><path class="cls-4" d="M53.6,377.87s-16.85,33.22-18.93,47,34.1,2.44,34.1,2.44Z"/><path class="cls-4" d="M142,453.28s.11,32.32-25.24,46.19-8.7-44.13-8.7-44.13Z"/><path class="cls-5" d="M123,495.31a35.1,35.1,0,0,1-7.07,4.59l-.42.21c-22.85,11.26-70.11,12.3-79.72-27.77-4.83-20.15-3.93-35.85-1.13-47.43v0c2.08-13.8,18.93-47,18.93-47h0c2.08-8.09,3.79-16.51,3.51-21.53-.67-12,8-28.17,8-28.17-9.33-3.51-13.32-21.16,4-27.16a19.68,19.68,0,0,1,2.11-.59l4.53-.35c11.56,1,14,17.61,14,17.61a52.64,52.64,0,0,1,10.32-.65h0s-25.43,6-26.7,25.32-.61,26.35,7.72,33.34-2.33,7-2.33,7l15.4,10.26S74.57,388,62.51,395.67s-18.72,35-19.72,44,.67,49,28.64,54.33,50.61-.25,63.1-12.61A45.89,45.89,0,0,1,123,495.31Z"/><path class="cls-6" d="M124.42,385.7s-13.69,7-30.34-2.37S68,357.41,56.74,362.7c0,0-3.29,1-3.62,5.63s-3,7.4.49,9.53,13.23,13.8,34.52,14.8a327.35,327.35,0,0,0,35.16,0S128.45,389.06,124.42,385.7Z"/><path class="cls-7" d="M152.74,351.82l-4.53.68s-1.83,1.67,0,2.83,4.26,1.33,4.2,3.5C152.4,358.84,155.6,353,152.74,351.82Z"/><path class="cls-8" d="M148.84,372.14s-8.62,3.2-14.28-2.8c0,0,2.54,5.78,12.84,4.22Z"/><path class="cls-8" d="M122,339.5s7.1-.13,8.59,5.84-3.33,13.49-10.33,13S107,339,122,339.5Z"/><circle class="cls-4" cx="124.89" cy="346.83" r="3.08"/><path class="cls-3" d="M87.92,329.33a46,46,0,0,0,1.64-12.72c-.3-5.94-5.63-21.11-20.45-15.61s-11.66,17.59-11.66,17.59-.33,6.08,12,15.08c0,0,5,3.5,9.83,2S87.27,332.07,87.92,329.33Z"/><path class="cls-4" d="M98.66,388.75s-13.74-1.75-21-9.5S57,369.17,55.6,369.33l-1.4.17s4.25-2.6,11-.17S85.92,388.25,98.66,388.75Z"/><path class="cls-4" d="M68.77,373.07s6.64,6.48,11.42,8.45,3,.76,3,.76S70.85,372.89,68.77,373.07Z"/><path class="cls-4" d="M71.64,375.67s-6.89-4.32-8.73-4.85,3.28,0,3.28,0S71.6,373.22,71.64,375.67Z"/><path class="cls-4" d="M109.66,390.13s-17.74,2.38-29.23-3l-11.49-5.37S86.42,396.38,109.66,390.13Z"/><path class="cls-4" d="M75.75,300.05l-4.53.35A14.58,14.58,0,0,1,75.75,300.05Z"/><path class="cls-9" d="M62.51,395.67s15.42-5.57,18.42,9.13,6.44,24.16,21.21,26.93,27.75,14.77,22.76,29.77-15.56,22.38-36,15.94-37.93-17-44.68-45.71S62.51,395.67,62.51,395.67Z"/><path class="cls-9" d="M102.71,475.67s11,3,6.37,20.67-12,21-11.32,31.67,6.91,13.33,0,22.67S75.1,560,67.44,560s-30.64-4.33-28.31-21,7.66-19.33,7.66-26.67S50.71,463,102.71,475.67Z"/><path class="cls-2" d="M2345.2,486.64s20.25,8.05,8.59,24.71-8.59,10.16-8.59,10.16,9.06,12.5,0,21-25.27,12-43.89-18.5S2345.2,486.64,2345.2,486.64Z"/><path class="cls-3" d="M2328.29,321.52s3.8-7.86-2.94-10.69-13.49,5.48-11.63,8.54C2313.72,319.37,2325.52,320.58,2328.29,321.52Z"/><path class="cls-4" d="M2371.62,357.33s3.33-6-5.33-10-14-6.67-20-14.67-16-17.33-37.3-14c0,0-3.33-22.67-20.65-16.67s-13.32,23.66-4,27.16c0,0-8.66,16.17-8,28.17s-10,43.33-10,43.33-23.31,22.67-11.32,72.67,82.6,36,91.26,18,30-47.33.67-82.67c0,0-4.66-4.67-4.66-20.67,0,0,10-10,16-10.67S2372.28,375.33,2371.62,357.33Z"/><path class="cls-4" d="M2272.85,378.87s-16.85,33.22-18.93,47,34.1,2.44,34.1,2.44Z"/><path class="cls-4" d="M2361.26,454.28s.11,32.32-25.24,46.19-8.7-44.13-8.7-44.13Z"/><path class="cls-5" d="M2342.25,496.31a35.1,35.1,0,0,1-7.07,4.59l-.42.21c-22.85,11.26-70.11,12.3-79.72-27.77-4.83-20.15-3.93-35.85-1.13-47.43v0c2.08-13.8,18.93-47,18.93-47h0c2.08-8.09,3.79-16.51,3.51-21.53-.67-12,8-28.17,8-28.17-9.33-3.51-13.32-21.16,4-27.16a19.68,19.68,0,0,1,2.11-.59l4.53-.35c11.56,1,14,17.61,14,17.61a52.64,52.64,0,0,1,10.32-.65h0s-25.43,6-26.7,25.32-.61,26.35,7.72,33.34-2.33,7-2.33,7l15.4,10.26s-19.59-4.91-31.65,2.76-18.72,35-19.72,44,.67,49,28.64,54.33,50.61-.25,63.1-12.61A45.89,45.89,0,0,1,2342.25,496.31Z"/><path class="cls-6" d="M2343.67,386.7s-13.69,7-30.34-2.37-26.06-25.93-37.34-20.63c0,0-3.29,1-3.62,5.63s-3,7.4.49,9.53,13.23,13.8,34.52,14.8a327.35,327.35,0,0,0,35.16,0S2347.69,390.06,2343.67,386.7Z"/><path class="cls-7" d="M2372,352.82l-4.53.68s-1.83,1.67,0,2.83,4.26,1.33,4.2,3.5C2371.65,359.84,2374.84,354,2372,352.82Z"/><path class="cls-8" d="M2368.08,373.14s-8.62,3.2-14.28-2.8c0,0,2.54,5.78,12.84,4.22Z"/><path class="cls-8" d="M2341.2,340.5s7.1-.13,8.59,5.84-3.33,13.49-10.33,13S2326.28,340,2341.2,340.5Z"/><circle class="cls-4" cx="2344.14" cy="347.83" r="3.08"/><path class="cls-3" d="M2307.17,330.33a46,46,0,0,0,1.64-12.72c-.3-5.94-5.63-21.11-20.45-15.61s-11.66,17.59-11.66,17.59-.33,6.08,12,15.08c0,0,5,3.5,9.83,2S2306.51,333.07,2307.17,330.33Z"/><path class="cls-4" d="M2317.91,389.75s-13.74-1.75-21-9.5-20.69-10.08-22.08-9.92l-1.4.17s4.25-2.6,11-.17S2305.17,389.25,2317.91,389.75Z"/><path class="cls-4" d="M2288,374.07s6.64,6.48,11.42,8.45,3,.76,3,.76S2290.1,373.89,2288,374.07Z"/><path class="cls-4" d="M2290.89,376.67s-6.89-4.32-8.73-4.85,3.28,0,3.28,0S2290.85,374.22,2290.89,376.67Z"/><path class="cls-4" d="M2328.9,391.13s-17.74,2.38-29.23-3l-11.49-5.37S2305.67,397.38,2328.9,391.13Z"/><path class="cls-4" d="M2295,301.05l-4.53.35A14.58,14.58,0,0,1,2295,301.05Z"/><path class="cls-9" d="M2286.32,392.68s10.35-12.91,18.35,3,7.08,36.37,17.28,39.37,48.09,12,46.13,29-13.54,28-38.72,21.5-45.84-23.81-50.17-52.77S2278.46,399.8,2286.32,392.68Z"/><path class="cls-9" d="M2296.34,474.3s30.31,5.7,21,26.36-17.32,19-16.65,27.67,5,10.33,5,16.33S2299.67,561,2288,561s-29.83-8.33-36.4-23.33.43-17,3.76-23,9.45-15,9.72-21.68S2275.74,462.68,2296.34,474.3Z"/><path class="cls-2" d="M2061.25,469.09s-20.93,7.46-25.15-14.81,18.19-43.59,34.11-49.5S2061.25,469.09,2061.25,469.09Z"/><path class="cls-2" d="M2152.35,483l8.59,17.5s6.33,9.6,10.33,6.8,18.49-1.8,17,16.7-16.36,35.5-35.91,33.5-26.6-15.85-33.27-50.2S2152.35,483,2152.35,483Z"/><path class="cls-3" d="M2135.44,321.52s3.8-7.86-2.94-10.69-13.49,5.48-11.63,8.54C2120.87,319.37,2132.67,320.58,2135.44,321.52Z"/><path class="cls-4" d="M2178.77,357.33s3.33-6-5.33-10-14-6.67-20-14.67-16-17.33-37.3-14c0,0-3.33-22.67-20.65-16.67s-13.32,23.66-4,27.16c0,0-8.66,16.17-8,28.17s-10,43.33-10,43.33-23.31,22.67-11.32,72.67,82.6,36,91.26,18,30-47.33.67-82.67c0,0-4.66-4.67-4.66-20.67,0,0,10-10,16-10.67S2179.43,375.33,2178.77,357.33Z"/><path class="cls-4" d="M2080,378.87s-16.85,33.22-18.93,47,34.1,2.44,34.1,2.44Z"/><path class="cls-4" d="M2168.42,454.28s.11,32.32-25.24,46.19-8.7-44.13-8.7-44.13Z"/><path class="cls-5" d="M2149.4,496.31a35.1,35.1,0,0,1-7.07,4.59l-.42.21c-22.85,11.26-70.11,12.3-79.72-27.77-4.83-20.15-3.93-35.85-1.13-47.43v0c2.08-13.8,18.93-47,18.93-47h0c2.08-8.09,3.79-16.51,3.51-21.53-.67-12,8-28.17,8-28.17-9.33-3.51-13.32-21.16,4-27.16a19.68,19.68,0,0,1,2.11-.59l4.53-.35c11.56,1,14,17.61,14,17.61a52.64,52.64,0,0,1,10.32-.65h0s-25.43,6-26.7,25.32-.61,26.35,7.72,33.34-2.33,7-2.33,7l15.4,10.26s-19.59-4.91-31.65,2.76-18.72,35-19.72,44,.67,49,28.64,54.33,50.61-.25,63.1-12.61A45.89,45.89,0,0,1,2149.4,496.31Z"/><path class="cls-6" d="M2150.82,386.7s-13.69,7-30.34-2.37-26.06-25.93-37.34-20.63c0,0-3.29,1-3.62,5.63s-3,7.4.49,9.53,13.23,13.8,34.52,14.8a327.35,327.35,0,0,0,35.16,0S2154.85,390.06,2150.82,386.7Z"/><path class="cls-7" d="M2179.13,352.82l-4.53.68s-1.83,1.67,0,2.83,4.26,1.33,4.2,3.5C2178.8,359.84,2182,354,2179.13,352.82Z"/><path class="cls-8" d="M2175.23,373.14s-8.62,3.2-14.28-2.8c0,0,2.54,5.78,12.84,4.22Z"/><path class="cls-8" d="M2148.36,340.5s7.1-.13,8.59,5.84-3.33,13.49-10.33,13S2133.43,340,2148.36,340.5Z"/><circle class="cls-4" cx="2151.29" cy="347.83" r="3.08"/><path class="cls-3" d="M2114.32,330.33a46,46,0,0,0,1.64-12.72c-.3-5.94-5.63-21.11-20.45-15.61s-11.66,17.59-11.66,17.59-.33,6.08,12,15.08c0,0,5,3.5,9.83,2S2113.67,333.07,2114.32,330.33Z"/><path class="cls-4" d="M2125.06,389.75s-13.74-1.75-21-9.5-20.69-10.08-22.08-9.92l-1.4.17s4.25-2.6,11-.17S2112.32,389.25,2125.06,389.75Z"/><path class="cls-4" d="M2095.17,374.07s6.64,6.48,11.42,8.45,3,.76,3,.76S2097.25,373.89,2095.17,374.07Z"/><path class="cls-4" d="M2098,376.67s-6.89-4.32-8.73-4.85,3.28,0,3.28,0S2098,374.22,2098,376.67Z"/><path class="cls-4" d="M2136.05,391.13s-17.74,2.38-29.23-3l-11.49-5.37S2112.82,397.38,2136.05,391.13Z"/><path class="cls-4" d="M2102.15,301.05l-4.53.35A14.58,14.58,0,0,1,2102.15,301.05Z"/><path class="cls-9" d="M2102.15,409s3.68-9.5,20.67,0,26.22,23.25,43.83,21.62,30.11-3.12,33.1,14.38-10.71,36.38-31.34,33.44S2128.65,462.5,2116,448,2094,416,2102.15,409Z"/><path class="cls-9" d="M2099.07,459.67s28.74,16.67,13.41,45.33-22.65,14-25.31,28,4.33,13.33-5,22.67-27,1.67-37.3-13.33-13-42.67,0-48.33,17.32-5.18,21-15.25S2081,444.67,2099.07,459.67Z"/><path class="cls-3" d="M492.59,328.33a45.61,45.61,0,0,0,1.65-12.72c-.31-5.94-5.68-21.11-20.63-15.61s-11.76,17.59-11.76,17.59-.34,6.08,12.1,15.08c0,0,5,3.5,9.91,2S491.93,331.07,492.59,328.33Z"/><path class="cls-3" d="M298.59,328.33a45.61,45.61,0,0,0,1.65-12.72c-.31-5.94-5.68-21.11-20.63-15.61s-11.76,17.59-11.76,17.59-.34,6.08,12.1,15.08c0,0,5,3.5,9.91,2S297.93,331.07,298.59,328.33Z"/><path class="cls-3" d="M88.59,328.33a45.61,45.61,0,0,0,1.65-12.72c-.31-5.94-5.68-21.11-20.63-15.61s-11.76,17.59-11.76,17.59-.34,6.08,12.1,15.08c0,0,5,3.5,9.91,2S87.93,331.07,88.59,328.33Z"/><path class="cls-3" d="M703.59,328.33a45.61,45.61,0,0,0,1.65-12.72c-.31-5.94-5.68-21.11-20.63-15.61s-11.76,17.59-11.76,17.59-.34,6.08,12.1,15.08c0,0,5,3.5,9.91,2S702.93,331.07,703.59,328.33Z"/><path class="cls-3" d="M906.59,328.33a45.61,45.61,0,0,0,1.65-12.72c-.31-5.94-5.68-21.11-20.63-15.61s-11.76,17.59-11.76,17.59-.34,6.08,12.1,15.08c0,0,5,3.5,9.91,2S905.93,331.07,906.59,328.33Z"/><path class="cls-3" d="M1092.59,328.33a45.61,45.61,0,0,0,1.65-12.72c-.31-5.94-5.68-21.11-20.63-15.61s-11.76,17.59-11.76,17.59-.34,6.08,12.1,15.08c0,0,5,3.5,9.91,2S1091.93,331.07,1092.59,328.33Z"/><path class="cls-3" d="M1294.59,328.33a45.61,45.61,0,0,0,1.65-12.72c-.31-5.94-5.68-21.11-20.63-15.61s-11.76,17.59-11.76,17.59-.34,6.08,12.1,15.08c0,0,5,3.5,9.91,2S1293.93,331.07,1294.59,328.33Z"/><path class="cls-3" d="M1491.59,328.33a45.61,45.61,0,0,0,1.65-12.72c-.31-5.94-5.68-21.11-20.63-15.61s-11.76,17.59-11.76,17.59-.34,6.08,12.1,15.08c0,0,5,3.5,9.91,2S1490.93,331.07,1491.59,328.33Z"/><path class="cls-3" d="M1703.59,328.33a45.61,45.61,0,0,0,1.65-12.72c-.31-5.94-5.68-21.11-20.63-15.61s-11.76,17.59-11.76,17.59-.34,6.08,12.1,15.08c0,0,5,3.5,9.91,2S1702.93,331.07,1703.59,328.33Z"/><path class="cls-3" d="M1897.59,328.33a45.61,45.61,0,0,0,1.65-12.72c-.31-5.94-5.68-21.11-20.63-15.61s-11.76,17.59-11.76,17.59-.34,6.08,12.1,15.08c0,0,5,3.5,9.91,2S1896.93,331.07,1897.59,328.33Z"/><path class="cls-3" d="M2114.59,328.33a45.61,45.61,0,0,0,1.65-12.72c-.31-5.94-5.68-21.11-20.63-15.61s-11.76,17.59-11.76,17.59-.34,6.08,12.1,15.08c0,0,5,3.5,9.91,2S2113.93,331.07,2114.59,328.33Z"/><path class="cls-3" d="M2307.59,328.33a45.61,45.61,0,0,0,1.65-12.72c-.31-5.94-5.68-21.11-20.63-15.61s-11.76,17.59-11.76,17.59-.34,6.08,12.1,15.08c0,0,5,3.5,9.91,2S2306.93,331.07,2307.59,328.33Z"/><path class="cls-3" d="M1916.59,48.33a45.51,45.51,0,0,1-1.65-12.72c.31-5.94,5.69-21.11,20.68-15.61s11.79,17.59,11.79,17.59.34,6.08-12.12,15.08c0,0-5.05,3.5-9.93,2S1917.25,51.07,1916.59,48.33Z"/><path class="cls-3" d="M2111,48.33a45.51,45.51,0,0,1-1.65-12.72c.31-5.94,5.69-21.11,20.68-15.61s11.79,17.59,11.79,17.59.34,6.08-12.12,15.08c0,0-5.05,3.5-9.93,2S2111.71,51.07,2111,48.33Z"/><path class="cls-3" d="M2321.54,48.33a45.51,45.51,0,0,1-1.65-12.72c.31-5.94,5.69-21.11,20.68-15.61s11.79,17.59,11.79,17.59.34,6.08-12.12,15.08c0,0-5.05,3.5-9.93,2S2322.2,51.07,2321.54,48.33Z"/><path class="cls-3" d="M1705.1,48.33a45.51,45.51,0,0,1-1.65-12.72c.31-5.94,5.69-21.11,20.68-15.61s11.79,17.59,11.79,17.59.34,6.08-12.12,15.08c0,0-5.05,3.5-9.93,2S1705.76,51.07,1705.1,48.33Z"/><path class="cls-3" d="M1501.62,48.33A45.51,45.51,0,0,1,1500,35.61c.31-5.94,5.69-21.11,20.68-15.61s11.79,17.59,11.79,17.59.34,6.08-12.12,15.08c0,0-5.05,3.5-9.93,2S1502.28,51.07,1501.62,48.33Z"/><path class="cls-3" d="M1315.18,48.33a45.51,45.51,0,0,1-1.65-12.72c.31-5.94,5.69-21.11,20.68-15.61S1346,37.59,1346,37.59s.34,6.08-12.12,15.08c0,0-5.05,3.5-9.93,2S1315.85,51.07,1315.18,48.33Z"/><path class="cls-3" d="M1112.71,48.33a45.51,45.51,0,0,1-1.65-12.72c.31-5.94,5.69-21.11,20.68-15.61s11.79,17.59,11.79,17.59.34,6.08-12.12,15.08c0,0-5.05,3.5-9.93,2S1113.37,51.07,1112.71,48.33Z"/><path class="cls-3" d="M915.25,48.33a45.51,45.51,0,0,1-1.65-12.72c.31-5.94,5.69-21.11,20.68-15.61s11.79,17.59,11.79,17.59.34,6.08-12.12,15.08c0,0-5.05,3.5-9.93,2S915.91,51.07,915.25,48.33Z"/><path class="cls-3" d="M702.75,48.33a45.51,45.51,0,0,1-1.65-12.72c.31-5.94,5.69-21.11,20.68-15.61s11.79,17.59,11.79,17.59.34,6.08-12.12,15.08c0,0-5.05,3.5-9.93,2S703.41,51.07,702.75,48.33Z"/><path class="cls-3" d="M508.3,48.33a45.51,45.51,0,0,1-1.65-12.72c.31-5.94,5.69-21.11,20.68-15.61s11.79,17.59,11.79,17.59.34,6.08-12.12,15.08c0,0-5.05,3.5-9.93,2S509,51.07,508.3,48.33Z"/><path class="cls-3" d="M290.79,48.33a45.51,45.51,0,0,1-1.65-12.72c.31-5.94,5.69-21.11,20.68-15.61S321.6,37.59,321.6,37.59s.34,6.08-12.12,15.08c0,0-5.05,3.5-9.93,2S291.45,51.07,290.79,48.33Z"/><path class="cls-3" d="M97.33,48.33a45.51,45.51,0,0,1-1.65-12.72C96,29.67,101.37,14.5,116.36,20s11.79,17.59,11.79,17.59.34,6.08-12.12,15.08c0,0-5.05,3.5-9.93,2S98,51.07,97.33,48.33Z"/><path class="cls-9" d="M1502.55,520s-5.75,8.5,0,19.5,2.25,20.5-18.74,20.5-37-10.5-37-20,7.23-12.5,8.86-20S1502.55,520,1502.55,520Z"/><path class="cls-3" d="M1512.93,320.52s3.8-7.86-2.94-10.69-13.49,5.48-11.63,8.54C1498.36,318.37,1510.16,319.58,1512.93,320.52Z"/><path class="cls-4" d="M1556.26,356.33s3.33-6-5.33-10-14-6.67-20-14.67-16-17.33-37.3-14c0,0-3.33-22.67-20.65-16.67s-13.32,23.66-4,27.16c0,0-8.66,16.17-8,28.17s-10,43.33-10,43.33-23.31,22.67-11.32,72.67,82.6,36,91.26,18,30-47.33.67-82.67c0,0-4.66-4.67-4.66-20.67,0,0,10-10,16-10.67S1556.93,374.33,1556.26,356.33Z"/><path class="cls-4" d="M1457.49,377.87s-16.85,33.22-18.93,47,34.1,2.44,34.1,2.44Z"/><path class="cls-4" d="M1545.91,453.28s.11,32.32-25.24,46.19-8.7-44.13-8.7-44.13Z"/><path class="cls-5" d="M1526.89,495.31a35.1,35.1,0,0,1-7.07,4.59l-.42.21c-22.85,11.26-70.11,12.3-79.72-27.77-4.83-20.15-3.93-35.85-1.13-47.43v0c2.08-13.8,18.93-47,18.93-47h0c2.08-8.09,3.79-16.51,3.51-21.53-.67-12,8-28.17,8-28.17-9.33-3.51-13.32-21.16,4-27.16a19.68,19.68,0,0,1,2.11-.59l4.53-.35c11.56,1,14,17.61,14,17.61A52.64,52.64,0,0,1,1504,317h0s-25.43,6-26.7,25.32-.61,26.35,7.72,33.34-2.33,7-2.33,7l15.4,10.26s-19.59-4.91-31.65,2.76-18.72,35-19.72,44,.67,49,28.64,54.33,50.61-.25,63.1-12.61A45.89,45.89,0,0,1,1526.89,495.31Z"/><path class="cls-6" d="M1528.31,385.7s-13.69,7-30.34-2.37-26.06-25.93-37.34-20.63c0,0-3.29,1-3.62,5.63s-3,7.4.49,9.53,13.23,13.8,34.52,14.8a327.35,327.35,0,0,0,35.16,0S1532.34,389.06,1528.31,385.7Z"/><path class="cls-7" d="M1556.63,351.82l-4.53.68s-1.83,1.67,0,2.83,4.26,1.33,4.2,3.5C1556.29,358.84,1559.49,353,1556.63,351.82Z"/><path class="cls-8" d="M1552.73,372.14s-8.62,3.2-14.28-2.8c0,0,2.54,5.78,12.84,4.22Z"/><path class="cls-8" d="M1525.85,339.5s7.1-.13,8.59,5.84-3.33,13.49-10.33,13S1510.93,339,1525.85,339.5Z"/><circle class="cls-4" cx="1528.78" cy="346.83" r="3.08"/><path class="cls-3" d="M1491.81,329.33a46,46,0,0,0,1.64-12.72c-.3-5.94-5.63-21.11-20.45-15.61s-11.66,17.59-11.66,17.59-.33,6.08,12,15.08c0,0,5,3.5,9.83,2S1491.16,332.07,1491.81,329.33Z"/><path class="cls-4" d="M1502.55,388.75s-13.74-1.75-21-9.5-20.69-10.08-22.08-9.92l-1.4.17s4.25-2.6,11-.17S1489.81,388.25,1502.55,388.75Z"/><path class="cls-4" d="M1472.66,373.07s6.64,6.48,11.42,8.45,3,.76,3,.76S1474.74,372.89,1472.66,373.07Z"/><path class="cls-4" d="M1475.53,375.67s-6.89-4.32-8.73-4.85,3.28,0,3.28,0S1475.49,373.22,1475.53,375.67Z"/><path class="cls-4" d="M1513.55,390.13s-17.74,2.38-29.23-3l-11.49-5.37S1490.31,396.38,1513.55,390.13Z"/><path class="cls-4" d="M1479.64,300.05l-4.53.35A14.58,14.58,0,0,1,1479.64,300.05Z"/><path class="cls-9" d="M1466.4,393.11s16.06-3.11,21,14.39,7.51,28.5,19.21,36,26.81,22,23.25,38.5-33.4,12-42.46,6-23.05-25-29.3-42S1439.41,396.42,1466.4,393.11Z"/><path class="cls-9" d="M1464,450.67s-8.33-7.12-19.32,2.61-.3,27.13,2,34.93,6.42,7.46,3,14.8-7.27,12.33,0,21,32.64,21,37.61,21,11.63-7.33,11-15.33S1509.63,521,1510,520s15.7-10.77,6.35-26.55S1464,450.67,1464,450.67Z"/><path class="cls-2" d="M1449.73,494.66s10.35,12.92,2,33.13c0,0-7-7.1-6.07-12.45S1452.77,501.11,1449.73,494.66Z"/><path class="cls-2" d="M1513.55,493.28s-10.23,10.26-12.72,30.66c0,0,13.12-2.39,17.65-15.33S1513.55,493.28,1513.55,493.28Z"/><path class="cls-9" d="M902.75,239s5.75,8.5,0,19.5S900.5,279,921.5,279s37-10.5,37-20-7.23-12.5-8.87-20S902.75,239,902.75,239Z"/><path class="cls-3" d="M892.36,39.52s-3.81-7.86,2.94-10.69,13.5,5.48,11.64,8.54C906.94,37.37,895.13,38.58,892.36,39.52Z"/><path class="cls-4" d="M849,75.33s-3.33-6,5.33-10,14-6.67,20-14.67,16-17.33,37.33-14c0,0,3.33-22.67,20.67-16.67s13.33,23.66,4,27.16c0,0,8.67,16.17,8,28.17s10,43.33,10,43.33,23.33,22.67,11.33,72.67-82.67,36-91.33,18-30-47.33-.67-82.67c0,0,4.67-4.67,4.67-20.67,0,0-10-10-16-10.67S848.33,93.33,849,75.33Z"/><path class="cls-4" d="M947.85,96.87s16.86,33.22,18.95,47-34.13,2.44-34.13,2.44Z"/><path class="cls-4" d="M859.36,172.28s-.11,32.32,25.26,46.19,8.71-44.13,8.71-44.13Z"/><path class="cls-5" d="M878.39,214.31a35.13,35.13,0,0,0,7.07,4.59l.42.21c22.86,11.26,70.16,12.3,79.78-27.77,4.84-20.15,3.93-35.85,1.13-47.43v0c-2.09-13.8-18.95-47-18.95-47h0c-2.08-8.09-3.79-16.51-3.51-21.53.67-12-8-28.17-8-28.17,9.33-3.51,13.33-21.16-4-27.16a19.71,19.71,0,0,0-2.12-.59l-4.53-.35c-11.57,1-14,17.61-14,17.61A52.72,52.72,0,0,0,901.33,36h0s25.45,6,26.72,25.32.61,26.35-7.72,33.34,2.33,7,2.33,7l-15.41,10.26s19.61-4.91,31.68,2.76,18.73,35,19.73,44S958,207.67,930,213s-50.65-.25-63.15-12.61A45.89,45.89,0,0,0,878.39,214.31Z"/><path class="cls-6" d="M877,104.7s13.7,7,30.36-2.37,26.08-25.93,37.37-20.63c0,0,3.29,1,3.63,5.63s3,7.4-.49,9.53-13.24,13.8-34.54,14.8a327.87,327.87,0,0,1-35.19,0S872.94,108.06,877,104.7Z"/><path class="cls-7" d="M848.64,70.82l4.53.68s1.83,1.67,0,2.83-4.27,1.33-4.2,3.5C849,77.84,845.77,72,848.64,70.82Z"/><path class="cls-8" d="M852.54,91.14s8.63,3.2,14.3-2.8c0,0-2.54,5.78-12.85,4.22Z"/><path class="cls-8" d="M879.44,58.5s-7.1-.13-8.6,5.84,3.33,13.49,10.33,13S894.37,58,879.44,58.5Z"/><circle class="cls-4" cx="876.5" cy="65.83" r="3.08"/><path class="cls-3" d="M913.5,48.33a46,46,0,0,1-1.64-12.72c.3-5.94,5.64-21.11,20.47-15.61S944,37.59,944,37.59s.33,6.08-12,15.08c0,0-5,3.5-9.83,2S914.15,51.07,913.5,48.33Z"/><path class="cls-4" d="M902.75,107.75s13.75-1.75,21-9.5,20.7-10.08,22.1-9.92l1.4.17s-4.25-2.6-11-.17S915.5,107.25,902.75,107.75Z"/><path class="cls-4" d="M932.67,92.07s-6.65,6.48-11.43,8.45-3,.76-3,.76S930.58,91.89,932.67,92.07Z"/><path class="cls-4" d="M929.79,94.67s6.89-4.32,8.74-4.85-3.28,0-3.28,0S929.83,92.22,929.79,94.67Z"/><path class="cls-4" d="M891.75,109.13s17.75,2.38,29.25-3l11.5-5.37S915,115.38,891.75,109.13Z"/><path class="cls-4" d="M925.68,19.05l4.53.35A14.6,14.6,0,0,0,925.68,19.05Z"/><path class="cls-9" d="M938.93,112.11s-16.07-3.11-21,14.39-7.52,28.5-19.22,36-26.84,22-23.27,38.5,33.42,12,42.49,6,23.07-25,29.32-42S965.94,115.42,938.93,112.11Z"/><path class="cls-9" d="M941.33,169.67s8.33-7.12,19.33,2.61.3,27.13-2,34.93-6.43,7.46-3,14.8,7.28,12.33,0,21S922.94,264,918,264s-11.64-7.33-11-15.33S895.67,240,895.33,239s-15.71-10.77-6.36-26.55S941.33,169.67,941.33,169.67Z"/><path class="cls-2" d="M954.72,213.66s-10.41,12.92-2,33.13c0,0,7-7.1,6.11-12.45S951.67,220.11,954.72,213.66Z"/><path class="cls-2" d="M890.53,212.28s10.29,10.26,12.8,30.66c0,0-13.2-2.39-17.75-15.33S890.53,212.28,890.53,212.28Z"/><path class="cls-9" d="M1464.93,216s18.07-32.53,38.74-30.43S1528,203,1528,207.33s-5.19,16.15-10.75,25.53-26.5,0-26.5,0Z"/><path class="cls-9" d="M935.06,486.27a51.94,51.94,0,0,0-37.73-20.69C872,463.67,868.63,494,889,510.35s33.35,0,33.35,0Z"/></g></svg>