<svg id="Layer_1" data-name="Layer 1" xmlns="http://www.w3.org/2000/svg" viewBox="0 0 200 140"><defs><style>.cls-1{fill:#d63a63;}.cls-2{fill:#333439;}.cls-3{fill:#fff;}.cls-4{fill:#d1d1d1;}.cls-5{fill:#ff486f;}</style></defs><title>panda fly spritepageArtboard 1</title><path class="cls-1" d="M67.84,45.05s.27-6.59,3.83-6.59S74,35,74,32.24s3.11-8.42,4.94-8.23l1.83.18-1.46,3.59,2.56,1.71s-2.93-2.92-4,3.66-.73,7.3-4.39,9-5.27,9.71-5.27,9.71S61.55,53.62,67.84,45.05Z"/><path class="cls-1" d="M167.14,47.91s5-4.66,4.29-7.66-3.59-4.41,1.87-7.71S180,22,180,22s1.81,3,1.16,4.75l-.66,1.75A15.69,15.69,0,0,0,184,26l.75-1s-1.19,5.59-3.59,7.54-6.24,3.89-5.45,6.3-.75,9.81-6,12.36S167.14,47.91,167.14,47.91Z"/><path class="cls-2" d="M138.05,54.18s-5,2.91-10.8-7.07,0-15.53-8.54-18.1-6.47,8.73-5,13.67S118.35,56.06,123.3,60s8.52,4.46,8.52,4.46A11.53,11.53,0,0,0,138.05,54.18Z"/><path class="cls-2" d="M135.47,89.11S127,88.5,124,95.68s-.85,16.47.84,19.29-2.72,3.82-4.67,5.11-2.17,6.14,3.64,7.4,12.72.8,13.74-3.63-2.28-6.62-1.62-8.68,5.18-10.68,8.42-11.91,7.06-10.69,7.06-10.69l-10.82-3.33Z"/><path class="cls-2" d="M167.31,90.53s6.71-2.66,11.35,2.84,5.68,14.14,5.15,17,3.37,2.65,5.36,3.28,3.63,4.81-.72,7.36-10.12,3.89-12.29.28-.14-6.34-1.31-8-7.45-8-10.47-8.27-9-7.55-9-7.55l7.81-5.62Z"/><path class="cls-2" d="M160.51,25.12s6.94-3.64,8.39,0,1.73,8.94-2.05,11S160.51,25.12,160.51,25.12Z"/><path class="cls-2" d="M144.43,27.3l-4.06,9.07s-9.23-4.63-9.1-8.42C131.37,25,137.56,20,144.43,27.3Z"/><path class="cls-3" d="M133.81,42.58s5.86-23.64,18.93-22.07S168.2,42.21,168.2,42.21s-2.8,6.38-5.53,7.95S134.75,48.74,133.81,42.58Z"/><path class="cls-3" d="M135.41,49.73S132,64.88,132,67.67,116.65,98,148.25,103.22s27.83-28.12,25.22-33.34-4.06-13.47-7.54-21.67S135.41,49.73,135.41,49.73Z"/><path class="cls-4" d="M131.27,70.21a16.94,16.94,0,0,1,17.29-9.05c12.68,1.23,19.63,2.52,20.83,9.05s2-5.55,2-5.55l-4.81-12H140.4s-5.4-2.29-6.22,2.74S131.27,70.21,131.27,70.21Z"/><path class="cls-5" d="M133.9,45.15s-.9.94-.08,5.3,6.32,9.21,9.51,9.25,18.84,1,23.19-3,4.64-10.13,0-13.13S133.9,45.15,133.9,45.15Z"/><path class="cls-3" d="M138.09,35.29a4.55,4.55,0,0,0,1.18-1.08,29.36,29.36,0,0,0,2.4-3.77c1.12-2.19,2.91-7.89,8.51-9.55a9.48,9.48,0,0,1,11.87,7c.9,4.74,3.69,7.51,4.48,9,1.18,2.19,3.58,8.4-1.12,13.57s-16.34,4.43-16.34,4.43-11-.59-13.66-5.12C132.83,45.39,133.14,38.56,138.09,35.29Z"/><path class="cls-2" d="M146.29,32.55s-4.73-.27-5.74,5.14,3.38,4,5.74,3.37S151.36,33.15,146.29,32.55Z"/><path class="cls-2" d="M161.78,33.67a3.51,3.51,0,0,0-3.8-.36c-1.37.69-3,1.84-3.24,3.39-.34,2.67,2.37,6.78,5.07,6.25C162.18,42.48,165.61,36.81,161.78,33.67Z"/><path class="cls-2" d="M148.56,43.62a1.61,1.61,0,0,1,1.72-1.41,6.36,6.36,0,0,1,2,.18s.89.77.16,1.44-2,.39-1.87,2.71c0,0,.06-2.21-1-2.16S148.56,43.62,148.56,43.62Z"/><path class="cls-2" d="M144.19,48.06s1.67,2.54,4.2,2,2.22-4.43,2.22-4.43S150.28,53.57,144.19,48.06Z"/><path class="cls-2" d="M150.62,45.67s.31,3.56,2.16,3.77,3.66-.58,4-1.16C156.73,48.28,151.61,51.9,150.62,45.67Z"/><circle class="cls-3" cx="158.41" cy="37.13" r="1.5"/><circle class="cls-3" cx="145.55" cy="37.13" r="1.5"/><path class="cls-2" d="M168.53,54.58s9.85-5.24,12.38-12.78,9.16-7.62,11.46-6.35,4.1,6.63-1,12.41-11.5,15.37-17.11,17.43S166.19,57.19,168.53,54.58Z"/><path class="cls-4" d="M167.23,63.19A58.23,58.23,0,0,1,170.87,80c.41,8.81-3.87,22.31-19.15,23.76,0,0,15.88,3.58,21.72-12.55s-1.4-24.8-1.4-24.8A14.14,14.14,0,0,1,167.23,63.19Z"/><path class="cls-2" d="M34,92.91s-8.36-1.33-11.55,4.57-1.29,14.13.31,16.72-2.79,3-4.76,4-2.32,5.09,3.4,6.73,12.56,1.91,13.69-1.82-2.08-5.93-1.37-7.65,5.41-8.72,8.66-9.48,7.27-8.55,7.27-8.55L39,93.5Z"/><path class="cls-2" d="M70.1,91.84s7.21-.13,9.45,6.16,0,14.12-1.57,16.45,2.13,3.39,3.74,4.59,1.57,5.35-3.41,6.15-10.82.09-11.49-3.75,2.23-5.55,1.76-7.34-3.92-9.37-6.61-10.58S56.45,94,56.45,94l9.33-2.34Z"/><path class="cls-2" d="M60.17,25.12s6.94-3.64,8.39,0,1.73,8.94-2.05,11S60.17,25.12,60.17,25.12Z"/><path class="cls-2" d="M44.1,27.3,40,36.37s-9.23-4.63-9.1-8.42C31,25,37.23,20,44.1,27.3Z"/><path class="cls-3" d="M33.48,42.58s5.86-23.64,18.93-22.07S67.87,42.21,67.87,42.21s-2.8,6.38-5.53,7.95S34.42,48.74,33.48,42.58Z"/><path class="cls-3" d="M35.08,49.73s-3.39,15.15-3.39,17.94S16.32,98,47.92,103.22,75.75,75.1,73.14,69.88,69.08,56.4,65.6,48.21,35.08,49.73,35.08,49.73Z"/><path class="cls-4" d="M30.94,70.21a16.94,16.94,0,0,1,17.29-9.05c12.68,1.23,19.63,2.52,20.83,9.05s2-5.55,2-5.55l-4.81-12H40.06s-5.4-2.29-6.22,2.74S30.94,70.21,30.94,70.21Z"/><path class="cls-5" d="M33.56,45.15s-.9.94-.08,5.3S39.8,59.66,43,59.7s18.84,1,23.19-3,4.64-10.13,0-13.13S33.56,45.15,33.56,45.15Z"/><path class="cls-3" d="M37.76,35.29a4.55,4.55,0,0,0,1.18-1.08,29.36,29.36,0,0,0,2.4-3.77c1.12-2.19,2.91-7.89,8.51-9.55a9.48,9.48,0,0,1,11.87,7c.9,4.74,3.69,7.51,4.48,9,1.18,2.19,3.58,8.4-1.12,13.57s-16.34,4.43-16.34,4.43-11-.59-13.66-5.12C32.5,45.39,32.8,38.56,37.76,35.29Z"/><path class="cls-2" d="M46,32.55s-4.73-.27-5.74,5.14,3.38,4,5.74,3.37S51,33.15,46,32.55Z"/><path class="cls-2" d="M61.45,33.67a3.51,3.51,0,0,0-3.8-.36c-1.37.69-3,1.84-3.24,3.39-.34,2.67,2.37,6.78,5.07,6.25C61.85,42.48,65.28,36.81,61.45,33.67Z"/><path class="cls-2" d="M48.23,43.62a1.61,1.61,0,0,1,1.72-1.41,6.36,6.36,0,0,1,2,.18s.89.77.16,1.44-2,.39-1.87,2.71c0,0,.06-2.21-1-2.16S48.23,43.62,48.23,43.62Z"/><path class="cls-2" d="M43.86,48.06s1.67,2.54,4.2,2,2.22-4.43,2.22-4.43S49.95,53.57,43.86,48.06Z"/><path class="cls-2" d="M50.29,45.67s.31,3.56,2.16,3.77,3.66-.58,4-1.16C56.4,48.28,51.28,51.9,50.29,45.67Z"/><circle class="cls-3" cx="58.08" cy="37.13" r="1.5"/><circle class="cls-3" cx="45.22" cy="37.13" r="1.5"/><path class="cls-2" d="M67.81,54.89S78.4,51.38,82.15,44.38s10.31-6,12.36-4.34,2.93,7.23-3,12.07S77.57,65.33,71.7,66.42,65.07,57.07,67.81,54.89Z"/><path class="cls-2" d="M34.32,52.76s-3.69,4.43-12.56-3S16.43,35.2,7.56,35.69s-3.11,10.41,0,14.54,8.87,11,14.86,13S32,64.53,32,64.53A11.53,11.53,0,0,0,34.32,52.76Z"/><path class="cls-4" d="M66.9,63.19A58.23,58.23,0,0,1,70.54,80c.41,8.81-3.87,22.31-19.15,23.76,0,0,15.88,3.58,21.72-12.55s-1.4-24.8-1.4-24.8A14.14,14.14,0,0,1,66.9,63.19Z"/><path class="cls-3" d="M37.52,53.5s5.77,2.83,10.71,2.83h4.94S41.82,58.37,37.52,53.5Z"/><path class="cls-3" d="M54.37,58s9-1.44,12.42-6.8C66.79,51.2,65.92,57.5,54.37,58Z"/><path class="cls-3" d="M136.67,52.67s5.06,3,8.11,3.33l3.05.33S138.28,56.28,136.67,52.67Z"/><path class="cls-3" d="M167.12,51.2a17,17,0,0,1-5.62,3.69l-3.33,1.28S164.95,55.59,167.12,51.2Z"/><path class="cls-3" d="M145.55,58s9.1.83,11.36,0l2.26-.83S150.6,60.71,145.55,58Z"/><path class="cls-3" d="M179.17,27.17s-2.2,7.34-4,7.67S173.29,41,173.29,41s-1.63-3.67,0-5.83S176.17,34.5,179.17,27.17Z"/><path class="cls-3" d="M69.56,42.58a3,3,0,0,1,2.28-2.24l2-.5S69,39.2,69.56,42.58Z"/><path class="cls-3" d="M77.67,27.67a8.74,8.74,0,0,0-2.29,5.25l0,2.92S75.1,29.94,77.67,27.67Z"/></svg>